{
copyright = "Copyright (c) 2015, Cadson Demak (info@cadsondemak.com)";
customParameters = (
{
name = vendorID;
value = CDK;
},
{
name = description;
value = "Copyright (c) 2015, Cadson Demak (info@cadsondemak.com)";
},
{
name = license;

glyphs = (
{
glyphname = A;
lastChange = "2015-10-24 19:57:31 +0000";
layers = (
{
layerId = "1336773A-60E9-4881-855D-D55F9632DBDF";
name = "Light Italic";
paths = (
{
closed = 1;
nodes = (
"59 0 LINE",
"164 177 LINE",
"444 177 LINE",
"475 0 LINE",
"555 0 LINE",
"447 644 LINE",
"351 644 LINE",
"-30 0 LINE"
);
},
{
closed = 1;
nodes = (
"387 573 LINE",
"443 242 LINE",
"192 242 LINE"
);
}
);
width = 685;
}
);
leftKerningGroup = A;
note = A;
rightKerningGroup = A;
unicode = 0041;
},
{
glyphname = Aacute;
lastChange = "2015-10-24 19:57:31 +0000";
layers = (
{
layerId = "1336773A-60E9-4881-855D-D55F9632DBDF";
name = "Light Italic";
paths = (
{
closed = 1;
nodes = (
"59 0 LINE",
"164 177 LINE",
"444 177 LINE",
"475 0 LINE",
"555 0 LINE",
"447 644 LINE",
"351 644 LINE",
"-30 0 LINE"
);
},
{
closed = 1;
nodes = (
"387 573 LINE",
"443 242 LINE",
"192 242 LINE"
);
},
{
closed = 1;
nodes = (
"424 688 LINE",
"539 856 LINE",
"465 856 LINE",
"358 688 LINE"
);
}
);
width = 685;
}
);
leftKerningGroup = A;
note = Aacute;
rightKerningGroup = A;
unicode = 00C1;
},
{
glyphname = Abreve;
lastChange = "2015-10-24 19:57:31 +0000";
layers = (
{
layerId = "1336773A-60E9-4881-855D-D55F9632DBDF";
name = "Light Italic";
paths = (
{
closed = 1;
nodes = (
"59 0 LINE",
"164 177 LINE",
"444 177 LINE",
"475 0 LINE",
"555 0 LINE",
"447 644 LINE",
"351 644 LINE",
"-30 0 LINE"
);
},
{
closed = 1;
nodes = (
"387 573 LINE",
"443 242 LINE",
"192 242 LINE"
);
},
{
closed = 1;
nodes = (
"499 688 OFFCURVE",
"545 739 OFFCURVE",
"561 814 CURVE",
"500 814 LINE",
"489 763 OFFCURVE",
"459 740 OFFCURVE",
"415 740 CURVE SMOOTH",
"368 740 OFFCURVE",
"351 763 OFFCURVE",
"362 814 CURVE",
"307 814 LINE",
"292 739 OFFCURVE",
"323 688 OFFCURVE",
"406 688 CURVE SMOOTH"
);
}
);
width = 685;
}
);
leftKerningGroup = A;
note = Abreve;
rightKerningGroup = A;
unicode = 0102;
},
{
glyphname = Abreveacute;
lastChange = "2015-10-24 19:57:30 +0000";
layers = (
{
layerId = "1336773A-60E9-4881-855D-D55F9632DBDF";
name = "Light Italic";
paths = (
{
closed = 1;
nodes = (
"59 0 LINE",
"164 177 LINE",
"444 177 LINE",
"475 0 LINE",
"555 0 LINE",
"447 644 LINE",
"351 644 LINE",
"-30 0 LINE"
);
},
{
closed = 1;
nodes = (
"387 573 LINE",
"443 242 LINE",
"192 242 LINE"
);
},
{
closed = 1;
nodes = (
"492 688 OFFCURVE",
"563 726 OFFCURVE",
"585 828 CURVE",
"532 828 LINE",
"519 766 OFFCURVE",
"478 736 OFFCURVE",
"417 736 CURVE SMOOTH",
"347 736 OFFCURVE",
"329 766 OFFCURVE",
"342 828 CURVE",
"291 828 LINE",
"272 728 OFFCURVE",
"328 688 OFFCURVE",
"408 688 CURVE SMOOTH"
);
},
{
closed = 1;
nodes = (
"450 792 LINE",
"545 917 LINE",
"480 917 LINE",
"391 792 LINE"
);
}
);
width = 685;
}
);
leftKerningGroup = A;
note = Abreveacute;
rightKerningGroup = A;
unicode = 1EAE;
},
{
glyphname = Abrevedotbelow;
lastChange = "2015-10-24 19:57:30 +0000";
layers = (
{
layerId = "1336773A-60E9-4881-855D-D55F9632DBDF";
name = "Light Italic";
paths = (
{
closed = 1;
nodes = (
"59 0 LINE",
"164 177 LINE",
"444 177 LINE",
"475 0 LINE",
"555 0 LINE",
"447 644 LINE",
"351 644 LINE",
"-30 0 LINE"
);
},
{
closed = 1;
nodes = (
"268 -164 LINE",
"284 -87 LINE",
"204 -87 LINE",
"188 -164 LINE"
);
},
{
closed = 1;
nodes = (
"387 573 LINE",
"443 242 LINE",
"192 242 LINE"
);
},
{
closed = 1;
nodes = (
"499 688 OFFCURVE",
"545 739 OFFCURVE",
"561 814 CURVE",
"500 814 LINE",
"489 763 OFFCURVE",
"459 740 OFFCURVE",
"415 740 CURVE SMOOTH",
"368 740 OFFCURVE",
"351 763 OFFCURVE",
"362 814 CURVE",
"307 814 LINE",
"292 739 OFFCURVE",
"323 688 OFFCURVE",
"406 688 CURVE SMOOTH"
);
}
);
width = 685;
}
);
leftKerningGroup = A;
note = Abrevedotbelow;
rightKerningGroup = A;
unicode = 1EB6;
},
{
glyphname = Abrevegrave;
lastChange = "2015-10-24 19:57:30 +0000";
layers = (
{
layerId = "1336773A-60E9-4881-855D-D55F9632DBDF";
name = "Light Italic";
paths = (
{
closed = 1;
nodes = (
"59 0 LINE",
"164 177 LINE",
"444 177 LINE",
"475 0 LINE",
"555 0 LINE",
"447 644 LINE",
"351 644 LINE",
"-30 0 LINE"
);
},
{
closed = 1;
nodes = (
"387 573 LINE",
"443 242 LINE",
"192 242 LINE"
);
},
{
closed = 1;
nodes = (
"492 688 OFFCURVE",
"563 726 OFFCURVE",
"585 828 CURVE",
"532 828 LINE",
"519 766 OFFCURVE",
"478 736 OFFCURVE",
"417 736 CURVE SMOOTH",
"347 736 OFFCURVE",
"329 766 OFFCURVE",
"342 828 CURVE",
"291 828 LINE",
"272 728 OFFCURVE",
"328 688 OFFCURVE",
"408 688 CURVE SMOOTH"
);
},
{
closed = 1;
nodes = (
"469 792 LINE",
"434 917 LINE",
"369 917 LINE",
"410 792 LINE"
);
}
);
width = 685;
}
);
leftKerningGroup = A;
note = Abrevegrave;
rightKerningGroup = A;
unicode = 1EB0;
},
{
glyphname = Abrevehookabove;
lastChange = "2015-10-24 19:57:30 +0000";
layers = (
{
layerId = "1336773A-60E9-4881-855D-D55F9632DBDF";
name = "Light Italic";
paths = (
{
closed = 1;
nodes = (
"59 0 LINE",
"164 177 LINE",
"444 177 LINE",
"475 0 LINE",
"555 0 LINE",
"447 644 LINE",
"351 644 LINE",
"-30 0 LINE"
);
},
{
closed = 1;
nodes = (
"387 573 LINE",
"443 242 LINE",
"192 242 LINE"
);
},
{
closed = 1;
nodes = (
"492 688 OFFCURVE",
"563 726 OFFCURVE",
"585 828 CURVE",
"532 828 LINE",
"519 766 OFFCURVE",
"478 736 OFFCURVE",
"417 736 CURVE SMOOTH",
"347 736 OFFCURVE",
"329 766 OFFCURVE",
"342 828 CURVE",
"291 828 LINE",
"272 728 OFFCURVE",
"328 688 OFFCURVE",
"408 688 CURVE SMOOTH"
);
},
{
closed = 1;
nodes = (
"453 793 LINE",
"460 827 LINE",
"519 836 OFFCURVE",
"545 858 OFFCURVE",
"555 901 CURVE",
"564 947 OFFCURVE",
"536 975 OFFCURVE",
"477 975 CURVE SMOOTH",
"449 975 OFFCURVE",
"421 970 OFFCURVE",
"401 963 CURVE",
"392 922 LINE",
"411 930 OFFCURVE",
"430 935 OFFCURVE",
"452 935 CURVE SMOOTH",
"488 935 OFFCURVE",
"502 923 OFFCURVE",
"496 896 CURVE",
"491 869 OFFCURVE",
"473 854 OFFCURVE",
"405 851 CURVE",
"393 793 LINE"
);
}
);
width = 685;
}
);
leftKerningGroup = A;
note = Abrevehookabove;
rightKerningGroup = A;
unicode = 1EB2;
},
{
glyphname = Abrevetilde;
lastChange = "2015-10-24 19:57:30 +0000";
layers = (
{
layerId = "1336773A-60E9-4881-855D-D55F9632DBDF";
name = "Light Italic";
paths = (
{
closed = 1;
nodes = (
"59 0 LINE",
"164 177 LINE",
"444 177 LINE",
"475 0 LINE",
"555 0 LINE",
"447 644 LINE",
"351 644 LINE",
"-30 0 LINE"
);
},
{
closed = 1;
nodes = (
"387 573 LINE",
"443 242 LINE",
"192 242 LINE"
);
},
{
closed = 1;
nodes = (
"492 688 OFFCURVE",
"563 726 OFFCURVE",
"585 828 CURVE",
"532 828 LINE",
"519 766 OFFCURVE",
"478 736 OFFCURVE",
"417 736 CURVE SMOOTH",
"347 736 OFFCURVE",
"329 766 OFFCURVE",
"342 828 CURVE",
"291 828 LINE",
"272 728 OFFCURVE",
"328 688 OFFCURVE",
"408 688 CURVE SMOOTH"
);
},
{
closed = 1;
nodes = (
"544 849 OFFCURVE",
"574 860 OFFCURVE",
"589 876 CURVE",
"601 933 LINE",
"579 910 OFFCURVE",
"554 900 OFFCURVE",
"523 900 CURVE SMOOTH",
"478 900 OFFCURVE",
"449 935 OFFCURVE",
"398 935 CURVE SMOOTH",
"370 935 OFFCURVE",
"334 924 OFFCURVE",
"316 908 CURVE",
"304 852 LINE",
"329 876 OFFCURVE",
"358 884 OFFCURVE",
"387 884 CURVE SMOOTH",
"427 884 OFFCURVE",
"465 849 OFFCURVE",
"513 849 CURVE SMOOTH"
);
}
);
width = 685;
}
);
leftKerningGroup = A;
note = Abrevetilde;
rightKerningGroup = A;
unicode = 1EB4;
},
{
glyphname = Acaron;
lastChange = "2015-10-24 19:57:30 +0000";
layers = (
{
layerId = "1336773A-60E9-4881-855D-D55F9632DBDF";
name = "Light Italic";
paths = (
{
closed = 1;
nodes = (
"59 0 LINE",
"164 177 LINE",
"444 177 LINE",
"475 0 LINE",
"555 0 LINE",
"447 644 LINE",
"351 644 LINE",
"-30 0 LINE"
);
},
{
closed = 1;
nodes = (
"387 573 LINE",
"443 242 LINE",
"192 242 LINE"
);
},
{
closed = 1;
nodes = (
"441 688 LINE",
"587 836 LINE",
"513 836 LINE",
"414 734 LINE",
"359 836 LINE",
"292 836 LINE",
"375 688 LINE"
);
}
);
width = 685;
}
);
leftKerningGroup = A;
note = Acaron;
rightKerningGroup = A;
unicode = 01CD;
},
{
glyphname = Acircumflex;
lastChange = "2015-10-24 19:57:30 +0000";
layers = (
{
layerId = "1336773A-60E9-4881-855D-D55F9632DBDF";
name = "Light Italic";
paths = (
{
closed = 1;
nodes = (
"59 0 LINE",
"164 177 LINE",
"444 177 LINE",
"475 0 LINE",
"555 0 LINE",
"447 644 LINE",
"351 644 LINE",
"-30 0 LINE"
);
},
{
closed = 1;
nodes = (
"387 573 LINE",
"443 242 LINE",
"192 242 LINE"
);
},
{
closed = 1;
nodes = (
"334 688 LINE",
"432 790 LINE",
"488 688 LINE",
"556 688 LINE",
"472 836 LINE",
"406 836 LINE",
"261 688 LINE"
);
}
);
width = 685;
}
);
leftKerningGroup = A;
note = Acircumflex;
rightKerningGroup = A;
unicode = 00C2;
},
{
glyphname = Acircumflexacute;
lastChange = "2015-10-24 19:57:31 +0000";
layers = (
{
layerId = "1336773A-60E9-4881-855D-D55F9632DBDF";
name = "Light Italic";
paths = (
{
closed = 1;
nodes = (
"59 0 LINE",
"164 177 LINE",
"444 177 LINE",
"475 0 LINE",
"555 0 LINE",
"447 644 LINE",
"351 644 LINE",
"-30 0 LINE"
);
},
{
closed = 1;
nodes = (
"387 573 LINE",
"443 242 LINE",
"192 242 LINE"
);
},
{
closed = 1;
nodes = (
"331 688 LINE",
"423 771 LINE",
"480 688 LINE",
"547 688 LINE",
"461 806 LINE",
"395 806 LINE",
"259 688 LINE"
);
},
{
closed = 1;
nodes = (
"565 797 LINE",
"659 922 LINE",
"594 922 LINE",
"506 797 LINE"
);
}
);
width = 685;
}
);
leftKerningGroup = A;
note = Acircumflexacute;
rightKerningGroup = A;
unicode = 1EA4;
},
{
glyphname = Acircumflexdotbelow;
lastChange = "2015-10-24 19:57:30 +0000";
layers = (
{
layerId = "1336773A-60E9-4881-855D-D55F9632DBDF";
name = "Light Italic";
paths = (
{
closed = 1;
nodes = (
"59 0 LINE",
"164 177 LINE",
"444 177 LINE",
"475 0 LINE",
"555 0 LINE",
"447 644 LINE",
"351 644 LINE",
"-30 0 LINE"
);
},
{
closed = 1;
nodes = (
"268 -164 LINE",
"284 -87 LINE",
"204 -87 LINE",
"188 -164 LINE"
);
},
{
closed = 1;
nodes = (
"387 573 LINE",
"443 242 LINE",
"192 242 LINE"
);
},
{
closed = 1;
nodes = (
"334 688 LINE",
"432 790 LINE",
"488 688 LINE",
"556 688 LINE",
"472 836 LINE",
"406 836 LINE",
"261 688 LINE"
);
}
);
width = 685;
}
);
leftKerningGroup = A;
note = Acircumflexdotbelow;
rightKerningGroup = A;
unicode = 1EAC;
},
{
glyphname = Acircumflexgrave;
lastChange = "2015-10-24 19:57:30 +0000";
layers = (
{
layerId = "1336773A-60E9-4881-855D-D55F9632DBDF";
name = "Light Italic";
paths = (
{
closed = 1;
nodes = (
"59 0 LINE",
"164 177 LINE",
"444 177 LINE",
"475 0 LINE",
"555 0 LINE",
"447 644 LINE",
"351 644 LINE",
"-30 0 LINE"
);
},
{
closed = 1;
nodes = (
"387 573 LINE",
"443 242 LINE",
"192 242 LINE"
);
},
{
closed = 1;
nodes = (
"332 688 LINE",
"425 771 LINE",
"481 688 LINE",
"548 688 LINE",
"463 806 LINE",
"397 806 LINE",
"261 688 LINE"
);
},
{
closed = 1;
nodes = (
"348 797 LINE",
"313 922 LINE",
"248 922 LINE",
"289 797 LINE"
);
}
);
width = 685;
}
);
leftKerningGroup = A;
note = Acircumflexgrave;
rightKerningGroup = A;
unicode = 1EA6;
},
{
glyphname = Acircumflexhookabove;
lastChange = "2015-10-24 19:57:31 +0000";
layers = (
{
layerId = "1336773A-60E9-4881-855D-D55F9632DBDF";
name = "Light Italic";
paths = (
{
closed = 1;
nodes = (
"59 0 LINE",
"164 177 LINE",
"444 177 LINE",
"475 0 LINE",
"555 0 LINE",
"447 644 LINE",
"351 644 LINE",
"-30 0 LINE"
);
},
{
closed = 1;
nodes = (
"387 573 LINE",
"443 242 LINE",
"192 242 LINE"
);
},
{
closed = 1;
nodes = (
"335 688 LINE",
"427 771 LINE",
"484 688 LINE",
"551 688 LINE",
"465 806 LINE",
"399 806 LINE",
"263 688 LINE"
);
},
{
closed = 1;
nodes = (
"574 776 LINE",
"581 811 LINE",
"638 818 OFFCURVE",
"667 842 OFFCURVE",
"676 885 CURVE SMOOTH",
"686 932 OFFCURVE",
"656 960 OFFCURVE",
"596 960 CURVE SMOOTH",
"566 960 OFFCURVE",
"543 955 OFFCURVE",
"523 948 CURVE",
"514 905 LINE",
"532 912 OFFCURVE",
"551 917 OFFCURVE",
"573 917 CURVE SMOOTH",
"607 917 OFFCURVE",
"621 906 OFFCURVE",
"615 881 CURVE",
"610 855 OFFCURVE",
"594 842 OFFCURVE",
"527 839 CURVE",
"514 776 LINE"
);
}
);
width = 685;
}
);
leftKerningGroup = A;
note = Acircumflexhookabove;
rightKerningGroup = A;
unicode = 1EA8;
},
{
glyphname = Acircumflextilde;
lastChange = "2015-10-24 19:57:30 +0000";
layers = (
{
layerId = "1336773A-60E9-4881-855D-D55F9632DBDF";
name = "Light Italic";
paths = (
{
closed = 1;
nodes = (
"59 0 LINE",
"164 177 LINE",
"444 177 LINE",
"475 0 LINE",
"555 0 LINE",
"447 644 LINE",
"351 644 LINE",
"-30 0 LINE"
);
},
{
closed = 1;
nodes = (
"387 573 LINE",
"443 242 LINE",
"192 242 LINE"
);
},
{
closed = 1;
nodes = (
"336 688 LINE",
"428 771 LINE",
"485 688 LINE",
"552 688 LINE",
"466 806 LINE",
"400 806 LINE",
"264 688 LINE"
);
},
{
closed = 1;
nodes = (
"536 808 OFFCURVE",
"566 819 OFFCURVE",
"580 835 CURVE",
"593 892 LINE",
"571 869 OFFCURVE",
"547 859 OFFCURVE",
"516 859 CURVE SMOOTH",
"471 859 OFFCURVE",
"441 894 OFFCURVE",
"390 894 CURVE SMOOTH",
"362 894 OFFCURVE",
"327 883 OFFCURVE",
"308 867 CURVE",
"296 811 LINE",
"321 835 OFFCURVE",
"350 843 OFFCURVE",
"379 843 CURVE SMOOTH",
"419 843 OFFCURVE",
"457 808 OFFCURVE",
"505 808 CURVE SMOOTH"
);
}
);
width = 685;
}
);
leftKerningGroup = A;
note = Acircumflextilde;
rightKerningGroup = A;
unicode = 1EAA;
},
{
glyphname = Adieresis;
lastChange = "2015-10-24 19:57:30 +0000";
layers = (
{
layerId = "1336773A-60E9-4881-855D-D55F9632DBDF";
name = "Light Italic";
paths = (
{
closed = 1;
nodes = (
"59 0 LINE",
"164 177 LINE",
"444 177 LINE",
"475 0 LINE",
"555 0 LINE",
"447 644 LINE",
"351 644 LINE",
"-30 0 LINE"
);
},
{
closed = 1;
nodes = (
"387 573 LINE",
"443 242 LINE",
"192 242 LINE"
);
},
{
closed = 1;
nodes = (
"363 710 LINE",
"379 785 LINE",
"302 785 LINE",
"286 710 LINE"
);
},
{
closed = 1;
nodes = (
"539 710 LINE",
"555 785 LINE",
"477 785 LINE",
"461 710 LINE"
);
}
);
width = 685;
}
);
leftKerningGroup = A;
note = Adieresis;
rightKerningGroup = A;
unicode = 00C4;
},
{
glyphname = Adotbelow;
lastChange = "2015-10-24 19:57:30 +0000";
layers = (
{
layerId = "1336773A-60E9-4881-855D-D55F9632DBDF";
name = "Light Italic";
paths = (
{
closed = 1;
nodes = (
"59 0 LINE",
"164 177 LINE",
"444 177 LINE",
"475 0 LINE",
"555 0 LINE",
"447 644 LINE",
"351 644 LINE",
"-30 0 LINE"
);
},
{
closed = 1;
nodes = (
"268 -164 LINE",
"284 -87 LINE",
"204 -87 LINE",
"188 -164 LINE"
);
},
{
closed = 1;
nodes = (
"387 573 LINE",
"443 242 LINE",
"192 242 LINE"
);
}
);
width = 685;
}
);
leftKerningGroup = A;
note = Adotbelow;
rightKerningGroup = A;
unicode = 1EA0;
},
{
glyphname = Agrave;
lastChange = "2015-10-24 19:57:31 +0000";
layers = (
{
layerId = "1336773A-60E9-4881-855D-D55F9632DBDF";
name = "Light Italic";
paths = (
{
closed = 1;
nodes = (
"59 0 LINE",
"164 177 LINE",
"444 177 LINE",
"475 0 LINE",
"555 0 LINE",
"447 644 LINE",
"351 644 LINE",
"-30 0 LINE"
);
},
{
closed = 1;
nodes = (
"387 573 LINE",
"443 242 LINE",
"192 242 LINE"
);
},
{
closed = 1;
nodes = (
"428 688 LINE",
"393 856 LINE",
"319 856 LINE",
"362 688 LINE"
);
}
);
width = 685;
}
);
leftKerningGroup = A;
note = Agrave;
rightKerningGroup = A;
unicode = 00C0;
},
{
glyphname = Ahookabove;
lastChange = "2015-10-24 19:57:30 +0000";
layers = (
{
layerId = "1336773A-60E9-4881-855D-D55F9632DBDF";
name = "Light Italic";
paths = (
{
closed = 1;
nodes = (
"59 0 LINE",
"164 177 LINE",
"444 177 LINE",
"475 0 LINE",
"555 0 LINE",
"447 644 LINE",
"351 644 LINE",
"-30 0 LINE"
);
},
{
closed = 1;
nodes = (
"387 573 LINE",
"443 242 LINE",
"192 242 LINE"
);
},
{
closed = 1;
nodes = (
"440 688 LINE",
"450 736 LINE",
"519 745 OFFCURVE",
"547 775 OFFCURVE",
"559 829 CURVE SMOOTH",
"571 886 OFFCURVE",
"529 920 OFFCURVE",
"457 920 CURVE SMOOTH",
"428 920 OFFCURVE",
"391 915 OFFCURVE",
"369 907 CURVE",
"359 856 LINE",
"377 863 OFFCURVE",
"406 868 OFFCURVE",
"427 868 CURVE SMOOTH",
"486 868 OFFCURVE",
"503 856 OFFCURVE",
"496 823 CURVE SMOOTH",
"488 788 OFFCURVE",
"470 775 OFFCURVE",
"392 771 CURVE",
"374 688 LINE"
);
}
);
width = 685;
}
);
leftKerningGroup = A;
note = Ahookabove;
rightKerningGroup = A;
unicode = 1EA2;
},
{
glyphname = Amacron;
lastChange = "2015-10-24 19:57:30 +0000";
layers = (
{
layerId = "1336773A-60E9-4881-855D-D55F9632DBDF";
name = "Light Italic";
paths = (
{
closed = 1;
nodes = (
"59 0 LINE",
"164 177 LINE",
"444 177 LINE",
"475 0 LINE",
"555 0 LINE",
"447 644 LINE",
"351 644 LINE",
"-30 0 LINE"
);
},
{
closed = 1;
nodes = (
"387 573 LINE",
"443 242 LINE",
"192 242 LINE"
);
},
{
closed = 1;
nodes = (
"557 712 LINE",
"569 771 LINE",
"282 771 LINE",
"270 712 LINE"
);
}
);
width = 685;
}
);
leftKerningGroup = A;
note = Amacron;
rightKerningGroup = A;
unicode = 0100;
},
{
glyphname = Aogonek;
lastChange = "2015-10-24 19:57:30 +0000";
layers = (
{
layerId = "1336773A-60E9-4881-855D-D55F9632DBDF";
name = "Light Italic";
paths = (
{
closed = 1;
nodes = (
"493 -220 OFFCURVE",
"521 -216 OFFCURVE",
"538 -208 CURVE",
"550 -152 LINE",
"537 -159 OFFCURVE",
"515 -163 OFFCURVE",
"499 -163 CURVE SMOOTH",
"466 -163 OFFCURVE",
"451 -154 OFFCURVE",
"458 -120 CURVE SMOOTH",
"467 -77 OFFCURVE",
"501 -35 OFFCURVE",
"555 0 CURVE",
"447 644 LINE",
"351 644 LINE",
"-30 0 LINE",
"59 0 LINE",
"164 177 LINE",
"444 177 LINE",
"475 0 LINE",
"441 -30 OFFCURVE",
"399 -80 OFFCURVE",
"388 -132 CURVE SMOOTH",
"375 -195 OFFCURVE",
"415 -220 OFFCURVE",
"469 -220 CURVE SMOOTH"
);
},
{
closed = 1;
nodes = (
"387 573 LINE",
"443 242 LINE",
"192 242 LINE"
);
}
);
width = 656;
}
);
leftKerningGroup = A;
note = Aogonek;
rightKerningGroup = A;
unicode = 0104;
},
{
glyphname = Aring;
lastChange = "2015-10-24 19:57:30 +0000";
layers = (
{
layerId = "1336773A-60E9-4881-855D-D55F9632DBDF";
name = "Light Italic";
paths = (
{
closed = 1;
nodes = (
"59 0 LINE",
"164 177 LINE",
"444 177 LINE",
"475 0 LINE",
"555 0 LINE",
"450 622 LINE",
"488 640 OFFCURVE",
"514 675 OFFCURVE",
"523 716 CURVE SMOOTH",
"536 776 OFFCURVE",
"501 824 OFFCURVE",
"435 824 CURVE SMOOTH",
"364 824 OFFCURVE",
"316 776 OFFCURVE",
"303 716 CURVE SMOOTH",
"294 675 OFFCURVE",
"308 640 OFFCURVE",
"338 622 CURVE",
"-30 0 LINE"
);
},
{
closed = 1;
nodes = (
"387 573 LINE",
"443 242 LINE",
"192 242 LINE"
);
},
{
closed = 1;
nodes = (
"356 655 OFFCURVE",
"344 682 OFFCURVE",
"351 716 CURVE SMOOTH",
"358 750 OFFCURVE",
"388 777 OFFCURVE",
"425 777 CURVE SMOOTH",
"468 777 OFFCURVE",
"481 750 OFFCURVE",
"474 716 CURVE SMOOTH",
"467 682 OFFCURVE",
"438 655 OFFCURVE",
"399 655 CURVE SMOOTH"
);
}
);
width = 685;
}
);
leftKerningGroup = A;
note = Aring;
rightKerningGroup = A;
unicode = 00C5;
},
{
glyphname = Aringacute;
lastChange = "2015-10-24 19:57:30 +0000";
layers = (
{
layerId = "1336773A-60E9-4881-855D-D55F9632DBDF";
name = "Light Italic";
paths = (
{
closed = 1;
nodes = (
"59 0 LINE",
"164 177 LINE",
"444 177 LINE",
"475 0 LINE",
"555 0 LINE",
"450 622 LINE",
"488 640 OFFCURVE",
"514 675 OFFCURVE",
"523 716 CURVE SMOOTH",
"536 776 OFFCURVE",
"501 824 OFFCURVE",
"435 824 CURVE SMOOTH",
"364 824 OFFCURVE",
"316 776 OFFCURVE",
"303 716 CURVE SMOOTH",
"294 675 OFFCURVE",
"308 640 OFFCURVE",
"338 622 CURVE",
"-30 0 LINE"
);
},
{
closed = 1;
nodes = (
"387 573 LINE",
"443 242 LINE",
"192 242 LINE"
);
},
{
closed = 1;
nodes = (
"356 655 OFFCURVE",
"344 682 OFFCURVE",
"351 716 CURVE SMOOTH",
"358 750 OFFCURVE",
"388 777 OFFCURVE",
"425 777 CURVE SMOOTH",
"468 777 OFFCURVE",
"481 750 OFFCURVE",
"474 716 CURVE SMOOTH",
"467 682 OFFCURVE",
"438 655 OFFCURVE",
"399 655 CURVE SMOOTH"
);
},
{
closed = 1;
nodes = (
"458 852 LINE",
"573 1020 LINE",
"499 1020 LINE",
"392 852 LINE"
);
}
);
width = 685;
}
);
leftKerningGroup = A;
note = Aringacute;
rightKerningGroup = A;
unicode = 01FA;
},
{
glyphname = Atilde;
lastChange = "2015-10-24 19:57:31 +0000";
layers = (
{
layerId = "1336773A-60E9-4881-855D-D55F9632DBDF";
name = "Light Italic";
paths = (
{
closed = 1;
nodes = (
"59 0 LINE",
"164 177 LINE",
"444 177 LINE",
"475 0 LINE",
"555 0 LINE",
"447 644 LINE",
"351 644 LINE",
"-30 0 LINE"
);
},
{
closed = 1;
nodes = (
"387 573 LINE",
"443 242 LINE",
"192 242 LINE"
);
},
{
closed = 1;
nodes = (
"520 703 OFFCURVE",
"553 715 OFFCURVE",
"570 733 CURVE",
"583 797 LINE",
"560 772 OFFCURVE",
"533 761 OFFCURVE",
"499 761 CURVE SMOOTH",
"450 761 OFFCURVE",
"418 799 OFFCURVE",
"363 799 CURVE SMOOTH",
"332 799 OFFCURVE",
"293 787 OFFCURVE",
"273 769 CURVE",
"260 706 LINE",
"287 732 OFFCURVE",
"318 741 OFFCURVE",
"350 741 CURVE SMOOTH",
"393 741 OFFCURVE",
"434 703 OFFCURVE",
"486 703 CURVE SMOOTH"
);
}
);
width = 685;
}
);
leftKerningGroup = A;
note = Atilde;
rightKerningGroup = A;
unicode = 00C3;
},
{
glyphname = AE;
lastChange = "2015-10-24 19:57:31 +0000";
layers = (
{
layerId = "1336773A-60E9-4881-855D-D55F9632DBDF";
name = "Light Italic";
paths = (
{
closed = 1;
nodes = (
"58 0 LINE",
"163 178 LINE",
"366 178 LINE",
"329 0 LINE",
"710 0 LINE",
"723 64 LINE",
"424 64 LINE",
"472 290 LINE",
"735 290 LINE",
"749 354 LINE",
"486 354 LINE",
"534 579 LINE",
"833 579 LINE",
"846 644 LINE",
"351 644 LINE",
"-30 0 LINE"
);
},
{
closed = 1;
nodes = (
"401 579 LINE",
"452 579 LINE",
"380 242 LINE",
"202 242 LINE"
);
}
);
width = 840;
}
);
leftKerningGroup = A;
note = AE;
rightKerningGroup = E;
unicode = 00C6;
},
{
glyphname = AEacute;
lastChange = "2015-10-24 19:57:31 +0000";
layers = (
{
layerId = "1336773A-60E9-4881-855D-D55F9632DBDF";
name = "Light Italic";
paths = (
{
closed = 1;
nodes = (
"58 0 LINE",
"163 178 LINE",
"366 178 LINE",
"329 0 LINE",
"710 0 LINE",
"723 64 LINE",
"424 64 LINE",
"472 290 LINE",
"735 290 LINE",
"749 354 LINE",
"486 354 LINE",
"534 579 LINE",
"833 579 LINE",
"846 644 LINE",
"351 644 LINE",
"-30 0 LINE"
);
},
{
closed = 1;
nodes = (
"401 579 LINE",
"452 579 LINE",
"380 242 LINE",
"202 242 LINE"
);
},
{
closed = 1;
nodes = (
"564 688 LINE",
"679 856 LINE",
"605 856 LINE",
"498 688 LINE"
);
}
);
width = 840;
}
);
leftKerningGroup = A;
note = AEacute;
rightKerningGroup = E;
unicode = 01FC;
},
{
glyphname = B;
lastChange = "2015-10-24 19:57:31 +0000";
layers = (
{
layerId = "1336773A-60E9-4881-855D-D55F9632DBDF";
name = "Light Italic";
paths = (
{
closed = 1;
nodes = (
"304 0 LINE SMOOTH",
"440 0 OFFCURVE",
"507 60 OFFCURVE",
"536 184 CURVE SMOOTH",
"553 258 OFFCURVE",
"525 311 OFFCURVE",
"461 332 CURVE",
"519 355 OFFCURVE",
"557 403 OFFCURVE",
"572 474 CURVE SMOOTH",
"595 582 OFFCURVE",
"540 644 OFFCURVE",
"418 644 CURVE SMOOTH",
"126 644 LINE",
"-10 0 LINE"
);
},
{
closed = 1;
nodes = (
"135 300 LINE",
"340 300 LINE SMOOTH",
"452 300 OFFCURVE",
"470 261 OFFCURVE",
"454 187 CURVE SMOOTH",
"435 96 OFFCURVE",
"389 62 OFFCURVE",
"303 62 CURVE SMOOTH",
"85 62 LINE"
);
},
{
closed = 1;
nodes = (
"195 581 LINE",
"391 581 LINE SMOOTH",
"497 581 OFFCURVE",
"510 542 OFFCURVE",
"494 468 CURVE SMOOTH",
"481 405 OFFCURVE",
"440 362 OFFCURVE",
"359 362 CURVE SMOOTH",
"148 362 LINE"
);
}
);
width = 627;
}
);
note = B;
unicode = 0042;
},
{
glyphname = C;
lastChange = "2015-10-24 19:57:30 +0000";
layers = (
{
layerId = "1336773A-60E9-4881-855D-D55F9632DBDF";
name = "Light Italic";
paths = (
{
closed = 1;
nodes = (
"350 -10 OFFCURVE",
"413 0 OFFCURVE",
"468 16 CURVE",
"483 89 LINE",
"426 69 OFFCURVE",
"359 60 OFFCURVE",
"299 60 CURVE SMOOTH",
"125 60 OFFCURVE",
"83 149 OFFCURVE",
"117 308 CURVE SMOOTH",
"154 480 OFFCURVE",
"245 584 OFFCURVE",
"409 584 CURVE SMOOTH",
"475 584 OFFCURVE",
"533 572 OFFCURVE",
"582 552 CURVE",
"597 624 LINE",
"548 643 OFFCURVE",
"491 654 OFFCURVE",
"417 654 CURVE SMOOTH",
"193 654 OFFCURVE",
"80 518 OFFCURVE",
"35 308 CURVE SMOOTH",
"-6 116 OFFCURVE",
"77 -10 OFFCURVE",
"276 -10 CURVE SMOOTH"
);
}
);
width = 595;
}
);
leftKerningGroup = C;
note = C;
rightKerningGroup = C;
unicode = 0043;
},
{
glyphname = Cacute;
lastChange = "2015-10-24 19:57:30 +0000";
layers = (
{
layerId = "1336773A-60E9-4881-855D-D55F9632DBDF";
name = "Light Italic";
paths = (
{
closed = 1;
nodes = (
"350 -10 OFFCURVE",
"413 0 OFFCURVE",
"468 16 CURVE",
"483 89 LINE",
"426 69 OFFCURVE",
"359 60 OFFCURVE",
"299 60 CURVE SMOOTH",
"125 60 OFFCURVE",
"83 149 OFFCURVE",
"117 308 CURVE SMOOTH",
"154 480 OFFCURVE",
"245 584 OFFCURVE",
"409 584 CURVE SMOOTH",
"475 584 OFFCURVE",
"533 572 OFFCURVE",
"582 552 CURVE",
"597 624 LINE",
"548 643 OFFCURVE",
"491 654 OFFCURVE",
"417 654 CURVE SMOOTH",
"193 654 OFFCURVE",
"80 518 OFFCURVE",
"35 308 CURVE SMOOTH",
"-6 116 OFFCURVE",
"77 -10 OFFCURVE",
"276 -10 CURVE SMOOTH"
);
},
{
closed = 1;
nodes = (
"435 688 LINE",
"550 856 LINE",
"476 856 LINE",
"369 688 LINE"
);
}
);
width = 595;
}
);
leftKerningGroup = C;
note = Cacute;
rightKerningGroup = C;
unicode = 0106;
},
{
glyphname = Ccaron;
lastChange = "2015-10-24 19:57:30 +0000";
layers = (
{
layerId = "1336773A-60E9-4881-855D-D55F9632DBDF";
name = "Light Italic";
paths = (
{
closed = 1;
nodes = (
"350 -10 OFFCURVE",
"413 0 OFFCURVE",
"468 16 CURVE",
"483 89 LINE",
"426 69 OFFCURVE",
"359 60 OFFCURVE",
"299 60 CURVE SMOOTH",
"125 60 OFFCURVE",
"83 149 OFFCURVE",
"117 308 CURVE SMOOTH",
"154 480 OFFCURVE",
"245 584 OFFCURVE",
"409 584 CURVE SMOOTH",
"475 584 OFFCURVE",
"533 572 OFFCURVE",
"582 552 CURVE",
"597 624 LINE",
"548 643 OFFCURVE",
"491 654 OFFCURVE",
"417 654 CURVE SMOOTH",
"193 654 OFFCURVE",
"80 518 OFFCURVE",
"35 308 CURVE SMOOTH",
"-6 116 OFFCURVE",
"77 -10 OFFCURVE",
"276 -10 CURVE SMOOTH"
);
},
{
closed = 1;
nodes = (
"456 688 LINE",
"602 836 LINE",
"528 836 LINE",
"429 734 LINE",
"374 836 LINE",
"307 836 LINE",
"390 688 LINE"
);
}
);
width = 595;
}
);
leftKerningGroup = C;
note = Ccaron;
rightKerningGroup = C;
unicode = 010C;
},
{
glyphname = Ccedilla;
lastChange = "2015-10-24 19:57:31 +0000";
layers = (
{
layerId = "1336773A-60E9-4881-855D-D55F9632DBDF";
name = "Light Italic";
paths = (
{
closed = 1;
nodes = (
"293 -240 OFFCURVE",
"345 -203 OFFCURVE",
"359 -138 CURVE SMOOTH",
"371 -81 OFFCURVE",
"340 -48 OFFCURVE",
"268 -48 CURVE",
"288 -10 LINE",
"357 -9 OFFCURVE",
"416 1 OFFCURVE",
"468 16 CURVE",
"483 89 LINE",
"426 69 OFFCURVE",
"359 60 OFFCURVE",
"299 60 CURVE SMOOTH",
"125 60 OFFCURVE",
"83 149 OFFCURVE",
"117 308 CURVE SMOOTH",
"154 480 OFFCURVE",
"245 584 OFFCURVE",
"409 584 CURVE SMOOTH",
"475 584 OFFCURVE",
"533 572 OFFCURVE",
"582 552 CURVE",
"597 624 LINE",
"548 643 OFFCURVE",
"491 654 OFFCURVE",
"417 654 CURVE SMOOTH",
"193 654 OFFCURVE",
"80 518 OFFCURVE",
"35 308 CURVE SMOOTH",
"-3 131 OFFCURVE",
"65 9 OFFCURVE",
"232 -8 CURVE",
"188 -91 LINE",
"225 -91 LINE SMOOTH",
"281 -91 OFFCURVE",
"308 -98 OFFCURVE",
"299 -137 CURVE SMOOTH",
"291 -178 OFFCURVE",
"261 -190 OFFCURVE",
"199 -190 CURVE SMOOTH",
"177 -190 OFFCURVE",
"155 -187 OFFCURVE",
"138 -182 CURVE",
"127 -232 LINE",
"141 -236 OFFCURVE",
"173 -240 OFFCURVE",
"195 -240 CURVE SMOOTH"
);
}
);
width = 595;
}
);
leftKerningGroup = C;
note = Ccedilla;
rightKerningGroup = C;
unicode = 00C7;
},
{
glyphname = Ccircumflex;
lastChange = "2015-10-24 19:57:30 +0000";
layers = (
{
layerId = "1336773A-60E9-4881-855D-D55F9632DBDF";
name = "Light Italic";
paths = (
{
closed = 1;
nodes = (
"350 -10 OFFCURVE",
"413 0 OFFCURVE",
"468 16 CURVE",
"483 89 LINE",
"426 69 OFFCURVE",
"359 60 OFFCURVE",
"299 60 CURVE SMOOTH",
"125 60 OFFCURVE",
"83 149 OFFCURVE",
"117 308 CURVE SMOOTH",
"154 480 OFFCURVE",
"245 584 OFFCURVE",
"409 584 CURVE SMOOTH",
"475 584 OFFCURVE",
"533 572 OFFCURVE",
"582 552 CURVE",
"597 624 LINE",
"548 643 OFFCURVE",
"491 654 OFFCURVE",
"417 654 CURVE SMOOTH",
"193 654 OFFCURVE",
"80 518 OFFCURVE",
"35 308 CURVE SMOOTH",
"-6 116 OFFCURVE",
"77 -10 OFFCURVE",
"276 -10 CURVE SMOOTH"
);
},
{
closed = 1;
nodes = (
"323 688 LINE",
"421 790 LINE",
"477 688 LINE",
"545 688 LINE",
"461 836 LINE",
"395 836 LINE",
"250 688 LINE"
);
}
);
width = 595;
}
);
leftKerningGroup = C;
note = Ccircumflex;
rightKerningGroup = C;
unicode = 0108;
},
{
glyphname = Cdotaccent;
lastChange = "2015-10-24 19:57:31 +0000";
layers = (
{
layerId = "1336773A-60E9-4881-855D-D55F9632DBDF";
name = "Light Italic";
paths = (
{
closed = 1;
nodes = (
"350 -10 OFFCURVE",
"413 0 OFFCURVE",
"468 16 CURVE",
"483 89 LINE",
"426 69 OFFCURVE",
"359 60 OFFCURVE",
"299 60 CURVE SMOOTH",
"125 60 OFFCURVE",
"83 149 OFFCURVE",
"117 308 CURVE SMOOTH",
"154 480 OFFCURVE",
"245 584 OFFCURVE",
"409 584 CURVE SMOOTH",
"475 584 OFFCURVE",
"533 572 OFFCURVE",
"582 552 CURVE",
"597 624 LINE",
"548 643 OFFCURVE",
"491 654 OFFCURVE",
"417 654 CURVE SMOOTH",
"193 654 OFFCURVE",
"80 518 OFFCURVE",
"35 308 CURVE SMOOTH",
"-6 116 OFFCURVE",
"77 -10 OFFCURVE",
"276 -10 CURVE SMOOTH"
);
},
{
closed = 1;
nodes = (
"462 710 LINE",
"478 787 LINE",
"398 787 LINE",
"382 710 LINE"
);
}
);
width = 595;
}
);
leftKerningGroup = C;
note = Cdotaccent;
rightKerningGroup = C;
unicode = 010A;
},
{
glyphname = D;
lastChange = "2015-10-24 19:57:31 +0000";
layers = (
{
layerId = "1336773A-60E9-4881-855D-D55F9632DBDF";
name = "Light Italic";
paths = (
{
closed = 1;
nodes = (
"251 0 LINE SMOOTH",
"441 0 OFFCURVE",
"532 98 OFFCURVE",
"579 318 CURVE SMOOTH",
"628 550 OFFCURVE",
"556 644 OFFCURVE",
"378 644 CURVE SMOOTH",
"126 644 LINE",
"-10 0 LINE"
);
},
{
closed = 1;
nodes = (
"195 579 LINE",
"350 579 LINE SMOOTH",
"508 579 OFFCURVE",
"541 530 OFFCURVE",
"497 318 CURVE SMOOTH",
"454 111 OFFCURVE",
"376 64 OFFCURVE",
"240 64 CURVE SMOOTH",
"85 64 LINE"
);
}
);
width = 642;
}
);
note = D;
rightKerningGroup = D;
unicode = 0044;
},
{
glyphname = Eth;
lastChange = "2015-10-24 19:57:30 +0000";
layers = (
{
layerId = "1336773A-60E9-4881-855D-D55F9632DBDF";
name = "Light Italic";
paths = (
{
closed = 1;
nodes = (
"283 0 LINE SMOOTH",
"473 0 OFFCURVE",
"564 98 OFFCURVE",
"611 318 CURVE SMOOTH",
"660 550 OFFCURVE",
"588 644 OFFCURVE",
"410 644 CURVE SMOOTH",
"158 644 LINE",
"22 0 LINE"
);
},
{
closed = 1;
nodes = (
"345 284 LINE",
"359 349 LINE",
"24 349 LINE",
"10 284 LINE"
);
},
{
closed = 1;
nodes = (
"227 579 LINE",
"382 579 LINE SMOOTH",
"540 579 OFFCURVE",
"573 530 OFFCURVE",
"529 318 CURVE SMOOTH",
"486 111 OFFCURVE",
"408 64 OFFCURVE",
"272 64 CURVE SMOOTH",
"117 64 LINE"
);
}
);
width = 674;
}
);
note = Eth;
rightKerningGroup = D;
unicode = 00D0;
},
{
glyphname = Dcaron;
lastChange = "2015-10-24 19:57:30 +0000";
layers = (
{
layerId = "1336773A-60E9-4881-855D-D55F9632DBDF";
name = "Light Italic";
paths = (
{
closed = 1;
nodes = (
"251 0 LINE SMOOTH",
"441 0 OFFCURVE",
"532 98 OFFCURVE",
"579 318 CURVE SMOOTH",
"628 550 OFFCURVE",
"556 644 OFFCURVE",
"378 644 CURVE SMOOTH",
"126 644 LINE",
"-10 0 LINE"
);
},
{
closed = 1;
nodes = (
"195 579 LINE",
"350 579 LINE SMOOTH",
"508 579 OFFCURVE",
"541 530 OFFCURVE",
"497 318 CURVE SMOOTH",
"454 111 OFFCURVE",
"376 64 OFFCURVE",
"240 64 CURVE SMOOTH",
"85 64 LINE"
);
},
{
closed = 1;
nodes = (
"397 688 LINE",
"543 836 LINE",
"469 836 LINE",
"370 734 LINE",
"315 836 LINE",
"248 836 LINE",
"331 688 LINE"
);
}
);
width = 642;
}
);
note = Dcaron;
rightKerningGroup = D;
unicode = 010E;
},
{
glyphname = Dcroat;
lastChange = "2015-10-24 19:57:30 +0000";
layers = (
{
layerId = "1336773A-60E9-4881-855D-D55F9632DBDF";
name = "Light Italic";
paths = (
{
closed = 1;
nodes = (
"273 0 LINE SMOOTH",
"463 0 OFFCURVE",
"554 98 OFFCURVE",
"601 318 CURVE SMOOTH",
"650 550 OFFCURVE",
"578 644 OFFCURVE",
"400 644 CURVE SMOOTH",
"148 644 LINE",
"12 0 LINE"
);
},
{
closed = 1;
nodes = (
"335 284 LINE",
"349 349 LINE",
"14 349 LINE",
"0 284 LINE"
);
},
{
closed = 1;
nodes = (
"217 579 LINE",
"372 579 LINE SMOOTH",
"530 579 OFFCURVE",
"563 530 OFFCURVE",
"519 318 CURVE SMOOTH",
"476 111 OFFCURVE",
"398 64 OFFCURVE",
"262 64 CURVE SMOOTH",
"107 64 LINE"
);
}
);
width = 664;
}
);
note = Dcroat;
rightKerningGroup = D;
unicode = 0110;
},
{
glyphname = Ddotbelow;
lastChange = "2015-10-24 19:57:31 +0000";
layers = (
{
layerId = "1336773A-60E9-4881-855D-D55F9632DBDF";
name = "Light Italic";
paths = (
{
closed = 1;
nodes = (
"251 0 LINE SMOOTH",
"441 0 OFFCURVE",
"532 98 OFFCURVE",
"579 318 CURVE SMOOTH",
"628 550 OFFCURVE",
"556 644 OFFCURVE",
"378 644 CURVE SMOOTH",
"126 644 LINE",
"-10 0 LINE"
);
},
{
closed = 1;
nodes = (
"243 -164 LINE",
"259 -87 LINE",
"179 -87 LINE",
"163 -164 LINE"
);
},
{
closed = 1;
nodes = (
"195 579 LINE",
"350 579 LINE SMOOTH",
"508 579 OFFCURVE",
"541 530 OFFCURVE",
"497 318 CURVE SMOOTH",
"454 111 OFFCURVE",
"376 64 OFFCURVE",
"240 64 CURVE SMOOTH",
"85 64 LINE"
);
}
);
width = 642;
}
);
note = Ddotbelow;
rightKerningGroup = D;
unicode = 1E0C;
},
{
glyphname = Dlinebelow;
lastChange = "2015-10-24 19:57:30 +0000";
layers = (
{
layerId = "1336773A-60E9-4881-855D-D55F9632DBDF";
name = "Light Italic";
paths = (
{
closed = 1;
nodes = (
"251 0 LINE SMOOTH",
"441 0 OFFCURVE",
"532 98 OFFCURVE",
"579 318 CURVE SMOOTH",
"628 550 OFFCURVE",
"556 644 OFFCURVE",
"378 644 CURVE SMOOTH",
"126 644 LINE",
"-10 0 LINE"
);
},
{
closed = 1;
nodes = (
"317 -144 LINE",
"329 -85 LINE",
"42 -85 LINE",
"30 -144 LINE"
);
},
{
closed = 1;
nodes = (
"195 579 LINE",
"350 579 LINE SMOOTH",
"508 579 OFFCURVE",
"541 530 OFFCURVE",
"497 318 CURVE SMOOTH",
"454 111 OFFCURVE",
"376 64 OFFCURVE",
"240 64 CURVE SMOOTH",
"85 64 LINE"
);
}
);
width = 642;
}
);
note = Dlinebelow;
rightKerningGroup = D;
unicode = 1E0E;
},
{
glyphname = E;
lastChange = "2015-10-24 19:57:31 +0000";
layers = (
{
layerId = "1336773A-60E9-4881-855D-D55F9632DBDF";
name = "Light Italic";
paths = (
{
closed = 1;
nodes = (
"425 0 LINE",
"438 64 LINE",
"85 64 LINE",
"133 290 LINE",
"450 290 LINE",
"464 354 LINE",
"147 354 LINE",
"195 579 LINE",
"548 579 LINE",
"561 644 LINE",
"126 644 LINE",
"-10 0 LINE"
);
}
);
width = 545;
}
);
leftKerningGroup = E;
note = E;
rightKerningGroup = E;
unicode = 0045;
},
{
glyphname = Eacute;
lastChange = "2015-10-24 19:57:30 +0000";
layers = (
{
layerId = "1336773A-60E9-4881-855D-D55F9632DBDF";
name = "Light Italic";
paths = (
{
closed = 1;
nodes = (
"425 0 LINE",
"438 64 LINE",
"85 64 LINE",
"133 290 LINE",
"450 290 LINE",
"464 354 LINE",
"147 354 LINE",
"195 579 LINE",
"548 579 LINE",
"561 644 LINE",
"126 644 LINE",
"-10 0 LINE"
);
},
{
closed = 1;
nodes = (
"371 688 LINE",
"486 856 LINE",
"412 856 LINE",
"305 688 LINE"
);
}
);
width = 545;
}
);
leftKerningGroup = E;
note = Eacute;
rightKerningGroup = E;
unicode = 00C9;
},
{
glyphname = Ebreve;
lastChange = "2015-10-24 19:57:31 +0000";
layers = (
{
layerId = "1336773A-60E9-4881-855D-D55F9632DBDF";
name = "Light Italic";
paths = (
{
closed = 1;
nodes = (
"425 0 LINE",
"438 64 LINE",
"85 64 LINE",
"133 290 LINE",
"450 290 LINE",
"464 354 LINE",
"147 354 LINE",
"195 579 LINE",
"548 579 LINE",
"561 644 LINE",
"126 644 LINE",
"-10 0 LINE"
);
},
{
closed = 1;
nodes = (
"443 688 OFFCURVE",
"489 739 OFFCURVE",
"505 814 CURVE",
"444 814 LINE",
"433 763 OFFCURVE",
"403 740 OFFCURVE",
"359 740 CURVE SMOOTH",
"312 740 OFFCURVE",
"295 763 OFFCURVE",
"306 814 CURVE",
"251 814 LINE",
"236 739 OFFCURVE",
"267 688 OFFCURVE",
"350 688 CURVE SMOOTH"
);
}
);
width = 555;
}
);
leftKerningGroup = E;
note = Ebreve;
rightKerningGroup = E;
unicode = 0114;
},
{
glyphname = Ecaron;
lastChange = "2015-10-24 19:57:30 +0000";
layers = (
{
layerId = "1336773A-60E9-4881-855D-D55F9632DBDF";
name = "Light Italic";
paths = (
{
closed = 1;
nodes = (
"425 0 LINE",
"438 64 LINE",
"85 64 LINE",
"133 290 LINE",
"450 290 LINE",
"464 354 LINE",
"147 354 LINE",
"195 579 LINE",
"548 579 LINE",
"561 644 LINE",
"126 644 LINE",
"-10 0 LINE"
);
},
{
closed = 1;
nodes = (
"386 688 LINE",
"532 836 LINE",
"458 836 LINE",
"359 734 LINE",
"304 836 LINE",
"237 836 LINE",
"320 688 LINE"
);
}
);
width = 555;
}
);
leftKerningGroup = E;
note = Ecaron;
rightKerningGroup = E;
unicode = 011A;
},
{
glyphname = Ecircumflex;
lastChange = "2015-10-24 19:57:30 +0000";
layers = (
{
layerId = "1336773A-60E9-4881-855D-D55F9632DBDF";
name = "Light Italic";
paths = (
{
closed = 1;
nodes = (
"425 0 LINE",
"438 64 LINE",
"85 64 LINE",
"133 290 LINE",
"450 290 LINE",
"464 354 LINE",
"147 354 LINE",
"195 579 LINE",
"548 579 LINE",
"561 644 LINE",
"126 644 LINE",
"-10 0 LINE"
);
},
{
closed = 1;
nodes = (
"266 688 LINE",
"364 790 LINE",
"420 688 LINE",
"488 688 LINE",
"404 836 LINE",
"338 836 LINE",
"193 688 LINE"
);
}
);
width = 555;
}
);
leftKerningGroup = E;
note = Ecircumflex;
rightKerningGroup = E;
unicode = 00CA;
},
{
glyphname = Ecircumflexacute;
lastChange = "2015-10-24 19:57:30 +0000";
layers = (
{
layerId = "1336773A-60E9-4881-855D-D55F9632DBDF";
name = "Light Italic";
paths = (
{
closed = 1;
nodes = (
"425 0 LINE",
"438 64 LINE",
"85 64 LINE",
"133 290 LINE",
"450 290 LINE",
"464 354 LINE",
"147 354 LINE",
"195 579 LINE",
"548 579 LINE",
"561 644 LINE",
"126 644 LINE",
"-10 0 LINE"
);
},
{
closed = 1;
nodes = (
"269 687 LINE",
"361 770 LINE",
"418 687 LINE",
"485 687 LINE",
"399 805 LINE",
"333 805 LINE",
"197 687 LINE"
);
},
{
closed = 1;
nodes = (
"503 796 LINE",
"597 921 LINE",
"532 921 LINE",
"444 796 LINE"
);
}
);
width = 555;
}
);
leftKerningGroup = E;
note = Ecircumflexacute;
rightKerningGroup = E;
unicode = 1EBE;
},
{
glyphname = Ecircumflexdotbelow;
lastChange = "2015-10-24 19:57:30 +0000";
layers = (
{
layerId = "1336773A-60E9-4881-855D-D55F9632DBDF";
name = "Light Italic";
paths = (
{
closed = 1;
nodes = (
"425 0 LINE",
"438 64 LINE",
"85 64 LINE",
"133 290 LINE",
"450 290 LINE",
"464 354 LINE",
"147 354 LINE",
"195 579 LINE",
"548 579 LINE",
"561 644 LINE",
"126 644 LINE",
"-10 0 LINE"
);
},
{
closed = 1;
nodes = (
"196 -164 LINE",
"212 -87 LINE",
"132 -87 LINE",
"116 -164 LINE"
);
},
{
closed = 1;
nodes = (
"262 688 LINE",
"360 790 LINE",
"416 688 LINE",
"484 688 LINE",
"400 836 LINE",
"334 836 LINE",
"189 688 LINE"
);
}
);
width = 555;
}
);
leftKerningGroup = E;
note = Ecircumflexdotbelow;
rightKerningGroup = E;
unicode = 1EC6;
},
{
glyphname = Ecircumflexgrave;
lastChange = "2015-10-24 19:57:30 +0000";
layers = (
{
layerId = "1336773A-60E9-4881-855D-D55F9632DBDF";
name = "Light Italic";
paths = (
{
closed = 1;
nodes = (
"425 0 LINE",
"438 64 LINE",
"85 64 LINE",
"133 290 LINE",
"450 290 LINE",
"464 354 LINE",
"147 354 LINE",
"195 579 LINE",
"548 579 LINE",
"561 644 LINE",
"126 644 LINE",
"-10 0 LINE"
);
},
{
closed = 1;
nodes = (
"286 687 LINE",
"379 770 LINE",
"435 687 LINE",
"502 687 LINE",
"417 805 LINE",
"351 805 LINE",
"215 687 LINE"
);
},
{
closed = 1;
nodes = (
"302 796 LINE",
"267 921 LINE",
"202 921 LINE",
"243 796 LINE"
);
}
);
width = 555;
}
);
leftKerningGroup = E;
note = Ecircumflexgrave;
rightKerningGroup = E;
unicode = 1EC0;
},
{
glyphname = Ecircumflexhookabove;
lastChange = "2015-10-24 19:57:30 +0000";
layers = (
{
layerId = "1336773A-60E9-4881-855D-D55F9632DBDF";
name = "Light Italic";
paths = (
{
closed = 1;
nodes = (
"425 0 LINE",
"438 64 LINE",
"85 64 LINE",
"133 290 LINE",
"450 290 LINE",
"464 354 LINE",
"147 354 LINE",
"195 579 LINE",
"548 579 LINE",
"561 644 LINE",
"126 644 LINE",
"-10 0 LINE"
);
},
{
closed = 1;
nodes = (
"274 687 LINE",
"366 770 LINE",
"423 687 LINE",
"490 687 LINE",
"404 805 LINE",
"338 805 LINE",
"202 687 LINE"
);
},
{
closed = 1;
nodes = (
"513 775 LINE",
"520 810 LINE",
"577 817 OFFCURVE",
"606 841 OFFCURVE",
"615 884 CURVE SMOOTH",
"625 931 OFFCURVE",
"595 959 OFFCURVE",
"535 959 CURVE SMOOTH",
"505 959 OFFCURVE",
"482 954 OFFCURVE",
"462 947 CURVE",
"453 904 LINE",
"471 911 OFFCURVE",
"490 916 OFFCURVE",
"512 916 CURVE SMOOTH",
"546 916 OFFCURVE",
"560 905 OFFCURVE",
"554 880 CURVE",
"549 854 OFFCURVE",
"533 841 OFFCURVE",
"466 838 CURVE",
"453 775 LINE"
);
}
);
width = 558;
}
);
leftKerningGroup = E;
note = Ecircumflexhookabove;
rightKerningGroup = E;
unicode = 1EC2;
},
{
glyphname = Ecircumflextilde;
lastChange = "2015-10-24 19:57:31 +0000";
layers = (
{
layerId = "1336773A-60E9-4881-855D-D55F9632DBDF";
name = "Light Italic";
paths = (
{
closed = 1;
nodes = (
"425 0 LINE",
"438 64 LINE",
"85 64 LINE",
"133 290 LINE",
"450 290 LINE",
"464 354 LINE",
"147 354 LINE",
"195 579 LINE",
"548 579 LINE",
"561 644 LINE",
"126 644 LINE",
"-10 0 LINE"
);
},
{
closed = 1;
nodes = (
"275 688 LINE",
"367 771 LINE",
"424 688 LINE",
"491 688 LINE",
"405 806 LINE",
"339 806 LINE",
"203 688 LINE"
);
},
{
closed = 1;
nodes = (
"475 808 OFFCURVE",
"505 819 OFFCURVE",
"519 835 CURVE",
"532 892 LINE",
"510 869 OFFCURVE",
"486 859 OFFCURVE",
"455 859 CURVE SMOOTH",
"410 859 OFFCURVE",
"380 894 OFFCURVE",
"329 894 CURVE SMOOTH",
"301 894 OFFCURVE",
"266 883 OFFCURVE",
"247 867 CURVE",
"235 811 LINE",
"260 835 OFFCURVE",
"289 843 OFFCURVE",
"318 843 CURVE SMOOTH",
"358 843 OFFCURVE",
"396 808 OFFCURVE",
"444 808 CURVE SMOOTH"
);
}
);
width = 555;
}
);
leftKerningGroup = E;
note = Ecircumflextilde;
rightKerningGroup = E;
unicode = 1EC4;
},
{
glyphname = Edieresis;
lastChange = "2015-10-24 19:57:30 +0000";
layers = (
{
layerId = "1336773A-60E9-4881-855D-D55F9632DBDF";
name = "Light Italic";
paths = (
{
closed = 1;
nodes = (
"425 0 LINE",
"438 64 LINE",
"85 64 LINE",
"133 290 LINE",
"450 290 LINE",
"464 354 LINE",
"147 354 LINE",
"195 579 LINE",
"548 579 LINE",
"561 644 LINE",
"126 644 LINE",
"-10 0 LINE"
);
},
{
closed = 1;
nodes = (
"301 711 LINE",
"317 786 LINE",
"240 786 LINE",
"224 711 LINE"
);
},
{
closed = 1;
nodes = (
"477 711 LINE",
"493 786 LINE",
"415 786 LINE",
"399 711 LINE"
);
}
);
width = 555;
}
);
leftKerningGroup = E;
note = Edieresis;
rightKerningGroup = E;
unicode = 00CB;
},
{
glyphname = Edotaccent;
lastChange = "2015-10-24 19:57:30 +0000";
layers = (
{
layerId = "1336773A-60E9-4881-855D-D55F9632DBDF";
name = "Light Italic";
paths = (
{
closed = 1;
nodes = (
"425 0 LINE",
"438 64 LINE",
"85 64 LINE",
"133 290 LINE",
"450 290 LINE",
"464 354 LINE",
"147 354 LINE",
"195 579 LINE",
"548 579 LINE",
"561 644 LINE",
"126 644 LINE",
"-10 0 LINE"
);
},
{
closed = 1;
nodes = (
"389 710 LINE",
"405 787 LINE",
"325 787 LINE",
"309 710 LINE"
);
}
);
width = 555;
}
);
leftKerningGroup = E;
note = Edotaccent;
rightKerningGroup = E;
unicode = 0116;
},
{
glyphname = Edotbelow;
lastChange = "2015-10-24 19:57:30 +0000";
layers = (
{
layerId = "1336773A-60E9-4881-855D-D55F9632DBDF";
name = "Light Italic";
paths = (
{
closed = 1;
nodes = (
"425 0 LINE",
"438 64 LINE",
"85 64 LINE",
"133 290 LINE",
"450 290 LINE",
"464 354 LINE",
"147 354 LINE",
"195 579 LINE",
"548 579 LINE",
"561 644 LINE",
"126 644 LINE",
"-10 0 LINE"
);
},
{
closed = 1;
nodes = (
"202 -164 LINE",
"218 -87 LINE",
"138 -87 LINE",
"122 -164 LINE"
);
}
);
width = 555;
}
);
leftKerningGroup = E;
note = Edotbelow;
rightKerningGroup = E;
unicode = 1EB8;
},
{
glyphname = Egrave;
lastChange = "2015-10-24 19:57:31 +0000";
layers = (
{
layerId = "1336773A-60E9-4881-855D-D55F9632DBDF";
name = "Light Italic";
paths = (
{
closed = 1;
nodes = (
"425 0 LINE",
"438 64 LINE",
"85 64 LINE",
"133 290 LINE",
"450 290 LINE",
"464 354 LINE",
"147 354 LINE",
"195 579 LINE",
"548 579 LINE",
"561 644 LINE",
"126 644 LINE",
"-10 0 LINE"
);
},
{
closed = 1;
nodes = (
"389 688 LINE",
"354 856 LINE",
"280 856 LINE",
"323 688 LINE"
);
}
);
width = 555;
}
);
leftKerningGroup = E;
note = Egrave;
rightKerningGroup = E;
unicode = 00C8;
},
{
glyphname = Ehookabove;
lastChange = "2015-10-24 19:57:31 +0000";
layers = (
{
layerId = "1336773A-60E9-4881-855D-D55F9632DBDF";
name = "Light Italic";
paths = (
{
closed = 1;
nodes = (
"425 0 LINE",
"438 64 LINE",
"85 64 LINE",
"133 290 LINE",
"450 290 LINE",
"464 354 LINE",
"147 354 LINE",
"195 579 LINE",
"548 579 LINE",
"561 644 LINE",
"126 644 LINE",
"-10 0 LINE"
);
},
{
closed = 1;
nodes = (
"372 688 LINE",
"382 736 LINE",
"451 745 OFFCURVE",
"479 775 OFFCURVE",
"491 829 CURVE SMOOTH",
"503 886 OFFCURVE",
"461 920 OFFCURVE",
"389 920 CURVE SMOOTH",
"360 920 OFFCURVE",
"323 915 OFFCURVE",
"301 907 CURVE",
"291 856 LINE",
"309 863 OFFCURVE",
"338 868 OFFCURVE",
"359 868 CURVE SMOOTH",
"418 868 OFFCURVE",
"435 856 OFFCURVE",
"428 823 CURVE SMOOTH",
"420 788 OFFCURVE",
"402 775 OFFCURVE",
"324 771 CURVE",
"306 688 LINE"
);
}
);
width = 555;
}
);
leftKerningGroup = E;
note = Ehookabove;
rightKerningGroup = E;
unicode = 1EBA;
},
{
glyphname = Emacron;
lastChange = "2015-10-24 19:57:31 +0000";
layers = (
{
layerId = "1336773A-60E9-4881-855D-D55F9632DBDF";
name = "Light Italic";
paths = (
{
closed = 1;
nodes = (
"425 0 LINE",
"438 64 LINE",
"85 64 LINE",
"133 290 LINE",
"450 290 LINE",
"464 354 LINE",
"147 354 LINE",
"195 579 LINE",
"548 579 LINE",
"561 644 LINE",
"126 644 LINE",
"-10 0 LINE"
);
},
{
closed = 1;
nodes = (
"490 720 LINE",
"502 779 LINE",
"215 779 LINE",
"203 720 LINE"
);
}
);
width = 555;
}
);
leftKerningGroup = E;
note = Emacron;
rightKerningGroup = E;
unicode = 0112;
},
{
glyphname = Eogonek;
lastChange = "2015-10-24 19:57:30 +0000";
layers = (
{
layerId = "1336773A-60E9-4881-855D-D55F9632DBDF";
name = "Light Italic";
paths = (
{
closed = 1;
nodes = (
"336 -220 OFFCURVE",
"364 -216 OFFCURVE",
"381 -208 CURVE",
"393 -152 LINE",
"380 -159 OFFCURVE",
"358 -163 OFFCURVE",
"342 -163 CURVE SMOOTH",
"309 -163 OFFCURVE",
"294 -154 OFFCURVE",
"301 -120 CURVE SMOOTH",
"310 -77 OFFCURVE",
"344 -35 OFFCURVE",
"398 0 CURVE",
"425 0 LINE",
"438 64 LINE",
"85 64 LINE",
"133 290 LINE",
"450 290 LINE",
"464 354 LINE",
"147 354 LINE",
"195 579 LINE",
"548 579 LINE",
"561 644 LINE",
"126 644 LINE",
"-10 0 LINE",
"334 0 LINE",
"284 -30 OFFCURVE",
"242 -80 OFFCURVE",
"231 -132 CURVE SMOOTH",
"218 -195 OFFCURVE",
"258 -220 OFFCURVE",
"312 -220 CURVE SMOOTH"
);
}
);
width = 555;
}
);
leftKerningGroup = E;
note = Eogonek;
rightKerningGroup = E;
unicode = 0118;
},
{
glyphname = Etilde;
lastChange = "2015-10-24 19:57:31 +0000";
layers = (
{
layerId = "1336773A-60E9-4881-855D-D55F9632DBDF";
name = "Light Italic";
paths = (
{
closed = 1;
nodes = (
"425 0 LINE",
"438 64 LINE",
"85 64 LINE",
"133 290 LINE",
"450 290 LINE",
"464 354 LINE",
"147 354 LINE",
"195 579 LINE",
"548 579 LINE",
"561 644 LINE",
"126 644 LINE",
"-10 0 LINE"
);
},
{
closed = 1;
nodes = (
"456 708 OFFCURVE",
"489 720 OFFCURVE",
"506 738 CURVE",
"519 802 LINE",
"496 777 OFFCURVE",
"469 766 OFFCURVE",
"435 766 CURVE SMOOTH",
"386 766 OFFCURVE",
"354 804 OFFCURVE",
"299 804 CURVE SMOOTH",
"268 804 OFFCURVE",
"229 792 OFFCURVE",
"209 774 CURVE",
"196 711 LINE",
"223 737 OFFCURVE",
"254 746 OFFCURVE",
"286 746 CURVE SMOOTH",
"329 746 OFFCURVE",
"370 708 OFFCURVE",
"422 708 CURVE SMOOTH"
);
}
);
width = 555;
}
);
leftKerningGroup = E;
note = Etilde;
rightKerningGroup = E;
unicode = 1EBC;
},
{
glyphname = F;
lastChange = "2015-10-24 19:57:30 +0000";
layers = (
{
layerId = "1336773A-60E9-4881-855D-D55F9632DBDF";
name = "Light Italic";
paths = (
{
closed = 1;
nodes = (
"72 0 LINE",
"133 290 LINE",
"436 290 LINE",
"450 354 LINE",
"147 354 LINE",
"195 579 LINE",
"535 579 LINE",
"548 644 LINE",
"126 644 LINE",
"-10 0 LINE"
);
}
);
width = 522;
}
);
note = F;
unicode = 0046;
},
{
glyphname = G;
lastChange = "2015-10-24 19:57:31 +0000";
layers = (
{
layerId = "1336773A-60E9-4881-855D-D55F9632DBDF";
name = "Light Italic";
paths = (
{
closed = 1;
nodes = (
"396 -10 OFFCURVE",
"473 16 OFFCURVE",
"517 41 CURVE",
"582 347 LINE",
"339 347 LINE",
"327 291 LINE",
"499 291 LINE",
"456 86 LINE",
"411 70 OFFCURVE",
"353 60 OFFCURVE",
"296 60 CURVE SMOOTH",
"124 60 OFFCURVE",
"81 144 OFFCURVE",
"117 308 CURVE SMOOTH",
"155 480 OFFCURVE",
"244 584 OFFCURVE",
"409 584 CURVE SMOOTH",
"475 584 OFFCURVE",
"533 572 OFFCURVE",
"582 552 CURVE",
"597 624 LINE",
"548 643 OFFCURVE",
"491 654 OFFCURVE",
"417 654 CURVE SMOOTH",
"200 654 OFFCURVE",
"80 518 OFFCURVE",
"35 308 CURVE SMOOTH",
"-6 116 OFFCURVE",
"81 -10 OFFCURVE",
"276 -10 CURVE SMOOTH"
);
}
);
width = 639;
}
);
leftKerningGroup = G;
note = G;
unicode = 0047;
},
{
glyphname = Gbreve;
lastChange = "2015-10-24 19:57:31 +0000";
layers = (
{
layerId = "1336773A-60E9-4881-855D-D55F9632DBDF";
name = "Light Italic";
paths = (
{
closed = 1;
nodes = (
"396 -10 OFFCURVE",
"473 16 OFFCURVE",
"517 41 CURVE",
"582 347 LINE",
"339 347 LINE",
"327 291 LINE",
"499 291 LINE",
"456 86 LINE",
"411 70 OFFCURVE",
"353 60 OFFCURVE",
"296 60 CURVE SMOOTH",
"124 60 OFFCURVE",
"81 144 OFFCURVE",
"117 308 CURVE SMOOTH",
"155 480 OFFCURVE",
"244 584 OFFCURVE",
"409 584 CURVE SMOOTH",
"475 584 OFFCURVE",
"533 572 OFFCURVE",
"582 552 CURVE",
"597 624 LINE",
"548 643 OFFCURVE",
"491 654 OFFCURVE",
"417 654 CURVE SMOOTH",
"200 654 OFFCURVE",
"80 518 OFFCURVE",
"35 308 CURVE SMOOTH",
"-6 116 OFFCURVE",
"81 -10 OFFCURVE",
"276 -10 CURVE SMOOTH"
);
},
{
closed = 1;
nodes = (
"507 688 OFFCURVE",
"553 739 OFFCURVE",
"569 814 CURVE",
"508 814 LINE",
"497 763 OFFCURVE",
"467 740 OFFCURVE",
"423 740 CURVE SMOOTH",
"376 740 OFFCURVE",
"359 763 OFFCURVE",
"370 814 CURVE",
"315 814 LINE",
"300 739 OFFCURVE",
"331 688 OFFCURVE",
"414 688 CURVE SMOOTH"
);
}
);
width = 639;
}
);
leftKerningGroup = G;
note = Gbreve;
unicode = 011E;
},
{
glyphname = Gcaron;
lastChange = "2015-10-24 19:57:30 +0000";
layers = (
{
layerId = "1336773A-60E9-4881-855D-D55F9632DBDF";
name = "Light Italic";
paths = (
{
closed = 1;
nodes = (
"396 -10 OFFCURVE",
"473 16 OFFCURVE",
"517 41 CURVE",
"582 347 LINE",
"339 347 LINE",
"327 291 LINE",
"499 291 LINE",
"456 86 LINE",
"411 70 OFFCURVE",
"353 60 OFFCURVE",
"296 60 CURVE SMOOTH",
"124 60 OFFCURVE",
"81 144 OFFCURVE",
"117 308 CURVE SMOOTH",
"155 480 OFFCURVE",
"244 584 OFFCURVE",
"409 584 CURVE SMOOTH",
"475 584 OFFCURVE",
"533 572 OFFCURVE",
"582 552 CURVE",
"597 624 LINE",
"548 643 OFFCURVE",
"491 654 OFFCURVE",
"417 654 CURVE SMOOTH",
"200 654 OFFCURVE",
"80 518 OFFCURVE",
"35 308 CURVE SMOOTH",
"-6 116 OFFCURVE",
"81 -10 OFFCURVE",
"276 -10 CURVE SMOOTH"
);
},
{
closed = 1;
nodes = (
"448 687 LINE",
"594 835 LINE",
"520 835 LINE",
"421 733 LINE",
"366 835 LINE",
"299 835 LINE",
"382 687 LINE"
);
}
);
width = 639;
}
);
leftKerningGroup = G;
note = Gcaron;
unicode = 01E6;
},
{
glyphname = Gcircumflex;
lastChange = "2015-10-24 19:57:30 +0000";
layers = (
{
layerId = "1336773A-60E9-4881-855D-D55F9632DBDF";
name = "Light Italic";
paths = (
{
closed = 1;
nodes = (
"396 -10 OFFCURVE",
"473 16 OFFCURVE",
"517 41 CURVE",
"582 347 LINE",
"339 347 LINE",
"327 291 LINE",
"499 291 LINE",
"456 86 LINE",
"411 70 OFFCURVE",
"353 60 OFFCURVE",
"296 60 CURVE SMOOTH",
"124 60 OFFCURVE",
"81 144 OFFCURVE",
"117 308 CURVE SMOOTH",
"155 480 OFFCURVE",
"244 584 OFFCURVE",
"409 584 CURVE SMOOTH",
"475 584 OFFCURVE",
"533 572 OFFCURVE",
"582 552 CURVE",
"597 624 LINE",
"548 643 OFFCURVE",
"491 654 OFFCURVE",
"417 654 CURVE SMOOTH",
"200 654 OFFCURVE",
"80 518 OFFCURVE",
"35 308 CURVE SMOOTH",
"-6 116 OFFCURVE",
"81 -10 OFFCURVE",
"276 -10 CURVE SMOOTH"
);
},
{
closed = 1;
nodes = (
"348 688 LINE",
"446 790 LINE",
"502 688 LINE",
"570 688 LINE",
"486 836 LINE",
"420 836 LINE",
"275 688 LINE"
);
}
);
width = 639;
}
);
leftKerningGroup = G;
note = Gcircumflex;
unicode = 011C;
},
{
glyphname = Gcommaaccent;
lastChange = "2015-10-24 19:57:31 +0000";
layers = (
{
layerId = "1336773A-60E9-4881-855D-D55F9632DBDF";
name = "Light Italic";
paths = (
{
closed = 1;
nodes = (
"396 -10 OFFCURVE",
"473 16 OFFCURVE",
"517 41 CURVE",
"582 347 LINE",
"339 347 LINE",
"327 291 LINE",
"499 291 LINE",
"456 86 LINE",
"411 70 OFFCURVE",
"353 60 OFFCURVE",
"296 60 CURVE SMOOTH",
"124 60 OFFCURVE",
"81 144 OFFCURVE",
"117 308 CURVE SMOOTH",
"155 480 OFFCURVE",
"244 584 OFFCURVE",
"409 584 CURVE SMOOTH",
"475 584 OFFCURVE",
"533 572 OFFCURVE",
"582 552 CURVE",
"597 624 LINE",
"548 643 OFFCURVE",
"491 654 OFFCURVE",
"417 654 CURVE SMOOTH",
"200 654 OFFCURVE",
"80 518 OFFCURVE",
"35 308 CURVE SMOOTH",
"-6 116 OFFCURVE",
"81 -10 OFFCURVE",
"276 -10 CURVE SMOOTH"
);
},
{
closed = 1;
nodes = (
"237 -224 LINE",
"317 -47 LINE",
"243 -47 LINE",
"177 -224 LINE"
);
}
);
width = 639;
}
);
leftKerningGroup = G;
note = Gcommaaccent;
unicode = 0122;
},
{
glyphname = Gdotaccent;
lastChange = "2015-10-24 19:57:30 +0000";
layers = (
{
layerId = "1336773A-60E9-4881-855D-D55F9632DBDF";
name = "Light Italic";
paths = (
{
closed = 1;
nodes = (
"396 -10 OFFCURVE",
"473 16 OFFCURVE",
"517 41 CURVE",
"582 347 LINE",
"339 347 LINE",
"327 291 LINE",
"499 291 LINE",
"456 86 LINE",
"411 70 OFFCURVE",
"353 60 OFFCURVE",
"296 60 CURVE SMOOTH",
"124 60 OFFCURVE",
"81 144 OFFCURVE",
"117 308 CURVE SMOOTH",
"155 480 OFFCURVE",
"244 584 OFFCURVE",
"409 584 CURVE SMOOTH",
"475 584 OFFCURVE",
"533 572 OFFCURVE",
"582 552 CURVE",
"597 624 LINE",
"548 643 OFFCURVE",
"491 654 OFFCURVE",
"417 654 CURVE SMOOTH",
"200 654 OFFCURVE",
"80 518 OFFCURVE",
"35 308 CURVE SMOOTH",
"-6 116 OFFCURVE",
"81 -10 OFFCURVE",
"276 -10 CURVE SMOOTH"
);
},
{
closed = 1;
nodes = (
"462 710 LINE",
"478 787 LINE",
"398 787 LINE",
"382 710 LINE"
);
}
);
width = 639;
}
);
leftKerningGroup = G;
note = Gdotaccent;
unicode = 0120;
},
{
glyphname = Gmacron;
lastChange = "2015-10-24 19:57:31 +0000";
layers = (
{
layerId = "1336773A-60E9-4881-855D-D55F9632DBDF";
name = "Light Italic";
paths = (
{
closed = 1;
nodes = (
"396 -10 OFFCURVE",
"473 16 OFFCURVE",
"517 41 CURVE",
"582 347 LINE",
"339 347 LINE",
"327 291 LINE",
"499 291 LINE",
"456 86 LINE",
"411 70 OFFCURVE",
"353 60 OFFCURVE",
"296 60 CURVE SMOOTH",
"124 60 OFFCURVE",
"81 144 OFFCURVE",
"117 308 CURVE SMOOTH",
"155 480 OFFCURVE",
"244 584 OFFCURVE",
"409 584 CURVE SMOOTH",
"475 584 OFFCURVE",
"533 572 OFFCURVE",
"582 552 CURVE",
"597 624 LINE",
"548 643 OFFCURVE",
"491 654 OFFCURVE",
"417 654 CURVE SMOOTH",
"200 654 OFFCURVE",
"80 518 OFFCURVE",
"35 308 CURVE SMOOTH",
"-6 116 OFFCURVE",
"81 -10 OFFCURVE",
"276 -10 CURVE SMOOTH"
);
},
{
closed = 1;
nodes = (
"568 717 LINE",
"580 776 LINE",
"293 776 LINE",
"281 717 LINE"
);
}
);
width = 639;
}
);
leftKerningGroup = G;
note = Gmacron;
unicode = 1E20;
},
{
glyphname = H;
lastChange = "2015-10-24 19:57:30 +0000";
layers = (
{
layerId = "1336773A-60E9-4881-855D-D55F9632DBDF";
name = "Light Italic";
paths = (
{
closed = 1;
nodes = (
"72 0 LINE",
"133 290 LINE",
"473 290 LINE",
"412 0 LINE",
"494 0 LINE",
"630 644 LINE",
"548 644 LINE",
"487 354 LINE",
"147 354 LINE",
"208 644 LINE",
"126 644 LINE",
"-10 0 LINE"
);
}
);
width = 644;
}
);
note = H;
unicode = 0048;
},
{
glyphname = Hbar;
lastChange = "2015-10-24 19:57:30 +0000";
layers = (
{
layerId = "1336773A-60E9-4881-855D-D55F9632DBDF";
name = "Light Italic";
paths = (
{
closed = 1;
nodes = (
"72 0 LINE",
"133 290 LINE",
"473 290 LINE",
"412 0 LINE",
"494 0 LINE",
"592 464 LINE",
"649 464 LINE",
"663 529 LINE",
"605 529 LINE",
"630 644 LINE",
"548 644 LINE",
"523 529 LINE",
"183 529 LINE",
"208 644 LINE",
"126 644 LINE",
"101 529 LINE",
"39 529 LINE",
"25 464 LINE",
"88 464 LINE",
"-10 0 LINE"
);
},
{
closed = 1;
nodes = (
"170 464 LINE",
"510 464 LINE",
"487 354 LINE",
"147 354 LINE"
);
}
);
width = 644;
}
);
note = Hbar;
unicode = 0126;
},
{
glyphname = Hbrevebelow;
lastChange = "2015-10-24 19:57:30 +0000";
layers = (
{
layerId = "1336773A-60E9-4881-855D-D55F9632DBDF";
name = "Light Italic";
paths = (
{
closed = 1;
nodes = (
"82 0 LINE",
"143 290 LINE",
"483 290 LINE",
"422 0 LINE",
"504 0 LINE",
"640 644 LINE",
"558 644 LINE",
"497 354 LINE",
"157 354 LINE",
"218 644 LINE",
"136 644 LINE",
"0 0 LINE"
);
},
{
closed = 1;
nodes = (
"298 -196 OFFCURVE",
"348 -145 OFFCURVE",
"364 -70 CURVE",
"303 -70 LINE",
"292 -121 OFFCURVE",
"261 -144 OFFCURVE",
"218 -144 CURVE SMOOTH",
"170 -144 OFFCURVE",
"155 -121 OFFCURVE",
"166 -70 CURVE",
"111 -70 LINE",
"95 -145 OFFCURVE",
"127 -196 OFFCURVE",
"210 -196 CURVE SMOOTH"
);
}
);
width = 644;
}
);
note = Hbrevebelow;
unicode = 1E2A;
},
{
glyphname = Hcircumflex;
lastChange = "2015-10-24 19:57:31 +0000";
layers = (
{
layerId = "1336773A-60E9-4881-855D-D55F9632DBDF";
name = "Light Italic";
paths = (
{
closed = 1;
nodes = (
"82 0 LINE",
"143 290 LINE",
"483 290 LINE",
"422 0 LINE",
"504 0 LINE",
"640 644 LINE",
"558 644 LINE",
"497 354 LINE",
"157 354 LINE",
"218 644 LINE",
"136 644 LINE",
"0 0 LINE"
);
},
{
closed = 1;
nodes = (
"324 688 LINE",
"422 790 LINE",
"478 688 LINE",
"546 688 LINE",
"462 836 LINE",
"396 836 LINE",
"251 688 LINE"
);
}
);
width = 644;
}
);
note = Hcircumflex;
unicode = 0124;
},
{
glyphname = Hdotbelow;
lastChange = "2015-10-24 19:57:30 +0000";
layers = (
{
layerId = "1336773A-60E9-4881-855D-D55F9632DBDF";
name = "Light Italic";
paths = (
{
closed = 1;
nodes = (
"82 0 LINE",
"143 290 LINE",
"483 290 LINE",
"422 0 LINE",
"504 0 LINE",
"640 644 LINE",
"558 644 LINE",
"497 354 LINE",
"157 354 LINE",
"218 644 LINE",
"136 644 LINE",
"0 0 LINE"
);
},
{
closed = 1;
nodes = (
"259 -164 LINE",
"275 -87 LINE",
"195 -87 LINE",
"179 -164 LINE"
);
}
);
width = 644;
}
);
note = Hdotbelow;
unicode = 1E24;
},
{
glyphname = I;
lastChange = "2015-10-24 19:57:31 +0000";
layers = (
{
layerId = "1336773A-60E9-4881-855D-D55F9632DBDF";
name = "Light Italic";
paths = (
{
closed = 1;
nodes = (
"72 0 LINE",
"208 644 LINE",
"126 644 LINE",
"-10 0 LINE"
);
}
);
width = 222;
}
);
note = I;
unicode = 0049;
},
{
glyphname = IJ;
lastChange = "2015-10-24 19:57:30 +0000";
layers = (
{
layerId = "1336773A-60E9-4881-855D-D55F9632DBDF";
name = "Light Italic";
paths = (
{
closed = 1;
nodes = (
"426 -10 OFFCURVE",
"495 59 OFFCURVE",
"520 177 CURVE SMOOTH",
"619 644 LINE",
"537 644 LINE",
"439 183 LINE SMOOTH",
"421 97 OFFCURVE",
"382 59 OFFCURVE",
"288 59 CURVE SMOOTH",
"244 59 OFFCURVE",
"197 69 OFFCURVE",
"168 83 CURVE",
"153 13 LINE",
"185 -1 OFFCURVE",
"229 -10 OFFCURVE",
"283 -10 CURVE SMOOTH"
);
},
{
closed = 1;
nodes = (
"72 0 LINE",
"208 644 LINE",
"126 644 LINE",
"-10 0 LINE"
);
}
);
width = 628;
}
);
note = IJ;
unicode = 0132;
},
{
glyphname = Iacute;
lastChange = "2015-10-24 19:57:30 +0000";
layers = (
{
layerId = "1336773A-60E9-4881-855D-D55F9632DBDF";
name = "Light Italic";
paths = (
{
closed = 1;
nodes = (
"72 0 LINE",
"208 644 LINE",
"126 644 LINE",
"-10 0 LINE"
);
},
{
closed = 1;
nodes = (
"202 688 LINE",
"317 856 LINE",
"243 856 LINE",
"136 688 LINE"
);
}
);
width = 222;
}
);
note = Iacute;
unicode = 00CD;
},
{
glyphname = Ibreve;
lastChange = "2015-10-24 19:57:31 +0000";
layers = (
{
layerId = "1336773A-60E9-4881-855D-D55F9632DBDF";
name = "Light Italic";
paths = (
{
closed = 1;
nodes = (
"72 0 LINE",
"208 644 LINE",
"126 644 LINE",
"-10 0 LINE"
);
},
{
closed = 1;
nodes = (
"269 695 OFFCURVE",
"315 746 OFFCURVE",
"331 821 CURVE",
"270 821 LINE",
"259 770 OFFCURVE",
"229 747 OFFCURVE",
"185 747 CURVE SMOOTH",
"138 747 OFFCURVE",
"121 770 OFFCURVE",
"132 821 CURVE",
"77 821 LINE",
"62 746 OFFCURVE",
"93 695 OFFCURVE",
"176 695 CURVE SMOOTH"
);
}
);
width = 222;
}
);
note = Ibreve;
unicode = 012C;
},
{
glyphname = Icaron;
lastChange = "2015-10-24 19:57:30 +0000";
layers = (
{
layerId = "1336773A-60E9-4881-855D-D55F9632DBDF";
name = "Light Italic";
paths = (
{
closed = 1;
nodes = (
"95 0 LINE",
"231 644 LINE",
"149 644 LINE",
"13 0 LINE"
);
},
{
closed = 1;
nodes = (
"221 688 LINE",
"367 836 LINE",
"293 836 LINE",
"194 734 LINE",
"139 836 LINE",
"72 836 LINE",
"155 688 LINE"
);
}
);
width = 244;
}
);
note = Icaron;
unicode = 01CF;
},
{
glyphname = Icircumflex;
lastChange = "2015-10-24 19:57:30 +0000";
layers = (
{
layerId = "1336773A-60E9-4881-855D-D55F9632DBDF";
name = "Light Italic";
paths = (
{
closed = 1;
nodes = (
"72 0 LINE",
"208 644 LINE",
"126 644 LINE",
"-10 0 LINE"
);
},
{
closed = 1;
nodes = (
"103 688 LINE",
"201 790 LINE",
"257 688 LINE",
"325 688 LINE",
"241 836 LINE",
"175 836 LINE",
"30 688 LINE"
);
}
);
width = 222;
}
);
note = Icircumflex;
unicode = 00CE;
},
{
glyphname = Idieresis;
lastChange = "2015-10-24 19:57:31 +0000";
layers = (
{
layerId = "1336773A-60E9-4881-855D-D55F9632DBDF";
name = "Light Italic";
paths = (
{
closed = 1;
nodes = (
"72 0 LINE",
"208 644 LINE",
"126 644 LINE",
"-10 0 LINE"
);
},
{
closed = 1;
nodes = (
"133 713 LINE",
"149 788 LINE",
"72 788 LINE",
"56 713 LINE"
);
},
{
closed = 1;
nodes = (
"309 713 LINE",
"325 788 LINE",
"247 788 LINE",
"231 713 LINE"
);
}
);
width = 222;
}
);
note = Idieresis;
unicode = 00CF;
},
{
glyphname = Idotaccent;
lastChange = "2015-10-24 19:57:30 +0000";
layers = (
{
layerId = "1336773A-60E9-4881-855D-D55F9632DBDF";
name = "Light Italic";
paths = (
{
closed = 1;
nodes = (
"72 0 LINE",
"208 644 LINE",
"126 644 LINE",
"-10 0 LINE"
);
},
{
closed = 1;
nodes = (
"222 712 LINE",
"238 789 LINE",
"158 789 LINE",
"142 712 LINE"
);
}
);
width = 222;
}
);
note = Idotaccent;
unicode = 0130;
},
{
glyphname = Idotbelow;
lastChange = "2015-10-24 19:57:31 +0000";
layers = (
{
layerId = "1336773A-60E9-4881-855D-D55F9632DBDF";
name = "Light Italic";
paths = (
{
closed = 1;
nodes = (
"72 0 LINE",
"208 644 LINE",
"126 644 LINE",
"-10 0 LINE"
);
},
{
closed = 1;
nodes = (
"37 -164 LINE",
"53 -87 LINE",
"-27 -87 LINE",
"-43 -164 LINE"
);
}
);
width = 222;
}
);
note = Idotbelow;
unicode = 1ECA;
},
{
glyphname = Igrave;
lastChange = "2015-10-24 19:57:31 +0000";
layers = (
{
layerId = "1336773A-60E9-4881-855D-D55F9632DBDF";
name = "Light Italic";
paths = (
{
closed = 1;
nodes = (
"72 0 LINE",
"208 644 LINE",
"126 644 LINE",
"-10 0 LINE"
);
},
{
closed = 1;
nodes = (
"212 688 LINE",
"177 856 LINE",
"103 856 LINE",
"146 688 LINE"
);
}
);
width = 222;
}
);
note = Igrave;
unicode = 00CC;
},
{
glyphname = Ihookabove;
lastChange = "2015-10-24 19:57:30 +0000";
layers = (
{
layerId = "1336773A-60E9-4881-855D-D55F9632DBDF";
name = "Light Italic";
paths = (
{
closed = 1;
nodes = (
"72 0 LINE",
"208 644 LINE",
"126 644 LINE",
"-10 0 LINE"
);
},
{
closed = 1;
nodes = (
"209 688 LINE",
"219 736 LINE",
"288 745 OFFCURVE",
"316 775 OFFCURVE",
"328 829 CURVE SMOOTH",
"340 886 OFFCURVE",
"298 920 OFFCURVE",
"226 920 CURVE SMOOTH",
"197 920 OFFCURVE",
"160 915 OFFCURVE",
"138 907 CURVE",
"128 856 LINE",
"146 863 OFFCURVE",
"175 868 OFFCURVE",
"196 868 CURVE SMOOTH",
"255 868 OFFCURVE",
"272 856 OFFCURVE",
"265 823 CURVE SMOOTH",
"257 788 OFFCURVE",
"239 775 OFFCURVE",
"161 771 CURVE",
"143 688 LINE"
);
}
);
width = 222;
}
);
note = Ihookabove;
unicode = 1EC8;
},
{
glyphname = Imacron;
lastChange = "2015-10-24 19:57:30 +0000";
layers = (
{
layerId = "1336773A-60E9-4881-855D-D55F9632DBDF";
name = "Light Italic";
paths = (
{
closed = 1;
nodes = (
"72 0 LINE",
"208 644 LINE",
"126 644 LINE",
"-10 0 LINE"
);
},
{
closed = 1;
nodes = (
"328 720 LINE",
"340 779 LINE",
"52 779 LINE",
"40 720 LINE"
);
}
);
width = 222;
}
);
note = Imacron;
unicode = 012A;
},
{
glyphname = Iogonek;
lastChange = "2015-10-24 19:57:30 +0000";
layers = (
{
layerId = "1336773A-60E9-4881-855D-D55F9632DBDF";
name = "Light Italic";
paths = (
{
closed = 1;
nodes = (
"4 -220 OFFCURVE",
"32 -216 OFFCURVE",
"49 -208 CURVE",
"61 -152 LINE",
"48 -159 OFFCURVE",
"26 -163 OFFCURVE",
"10 -163 CURVE SMOOTH",
"-23 -163 OFFCURVE",
"-38 -154 OFFCURVE",
"-31 -120 CURVE SMOOTH",
"-22 -77 OFFCURVE",
"12 -35 OFFCURVE",
"66 0 CURVE",
"72 0 LINE",
"208 644 LINE",
"126 644 LINE",
"-10 0 LINE",
"2 0 LINE",
"-48 -30 OFFCURVE",
"-90 -80 OFFCURVE",
"-101 -132 CURVE SMOOTH",
"-114 -195 OFFCURVE",
"-74 -220 OFFCURVE",
"-20 -220 CURVE SMOOTH"
);
}
);
width = 222;
}
);
note = Iogonek;
unicode = 012E;
},
{
glyphname = Itilde;
lastChange = "2015-10-24 19:57:30 +0000";
layers = (
{
layerId = "1336773A-60E9-4881-855D-D55F9632DBDF";
name = "Light Italic";
paths = (
{
closed = 1;
nodes = (
"72 0 LINE",
"208 644 LINE",
"126 644 LINE",
"-10 0 LINE"
);
},
{
closed = 1;
nodes = (
"287 693 OFFCURVE",
"320 705 OFFCURVE",
"337 723 CURVE",
"350 787 LINE",
"327 762 OFFCURVE",
"300 751 OFFCURVE",
"266 751 CURVE SMOOTH",
"217 751 OFFCURVE",
"185 789 OFFCURVE",
"130 789 CURVE SMOOTH",
"99 789 OFFCURVE",
"60 777 OFFCURVE",
"40 759 CURVE",
"27 696 LINE",
"54 722 OFFCURVE",
"85 731 OFFCURVE",
"117 731 CURVE SMOOTH",
"160 731 OFFCURVE",
"201 693 OFFCURVE",
"253 693 CURVE SMOOTH"
);
}
);
width = 222;
}
);
note = Itilde;
unicode = 0128;
},
{
glyphname = J;
lastChange = "2015-10-24 19:57:31 +0000";
layers = (
{
layerId = "1336773A-60E9-4881-855D-D55F9632DBDF";
name = "Light Italic";
paths = (
{
closed = 1;
nodes = (
"225 -10 OFFCURVE",
"294 59 OFFCURVE",
"319 177 CURVE SMOOTH",
"418 644 LINE",
"336 644 LINE",
"238 183 LINE SMOOTH",
"220 97 OFFCURVE",
"181 59 OFFCURVE",
"87 59 CURVE SMOOTH",
"43 59 OFFCURVE",
"-4 69 OFFCURVE",
"-33 83 CURVE",
"-48 13 LINE",
"-16 -1 OFFCURVE",
"28 -10 OFFCURVE",
"82 -10 CURVE SMOOTH"
);
}
);
width = 427;
}
);
note = J;
unicode = 004A;
},
{
glyphname = Jcircumflex;
lastChange = "2015-10-24 19:57:31 +0000";
layers = (
{
layerId = "1336773A-60E9-4881-855D-D55F9632DBDF";
name = "Light Italic";
paths = (
{
closed = 1;
nodes = (
"225 -10 OFFCURVE",
"294 59 OFFCURVE",
"319 177 CURVE SMOOTH",
"418 644 LINE",
"336 644 LINE",
"238 183 LINE SMOOTH",
"220 97 OFFCURVE",
"181 59 OFFCURVE",
"87 59 CURVE SMOOTH",
"43 59 OFFCURVE",
"-4 69 OFFCURVE",
"-33 83 CURVE",
"-48 13 LINE",
"-16 -1 OFFCURVE",
"28 -10 OFFCURVE",
"82 -10 CURVE SMOOTH"
);
},
{
closed = 1;
nodes = (
"311 688 LINE",
"409 790 LINE",
"465 688 LINE",
"533 688 LINE",
"449 836 LINE",
"383 836 LINE",
"238 688 LINE"
);
}
);
width = 427;
}
);
note = Jcircumflex;
unicode = 0134;
},
{
glyphname = K;
lastChange = "2015-10-24 19:57:31 +0000";
layers = (
{
layerId = "1336773A-60E9-4881-855D-D55F9632DBDF";
name = "Light Italic";
paths = (
{
closed = 1;
nodes = (
"72 0 LINE",
"119 222 LINE",
"247 333 LINE",
"389 0 LINE",
"477 0 LINE",
"311 386 LINE",
"605 644 LINE",
"509 644 LINE",
"141 325 LINE",
"208 644 LINE",
"126 644 LINE",
"-10 0 LINE"
);
}
);
width = 607;
}
);
leftKerningGroup = K;
note = K;
rightKerningGroup = K;
unicode = 004B;
},
{
glyphname = Kcommaaccent;
lastChange = "2015-10-24 19:57:30 +0000";
layers = (
{
layerId = "1336773A-60E9-4881-855D-D55F9632DBDF";
name = "Light Italic";
paths = (
{
closed = 1;
nodes = (
"72 0 LINE",
"119 222 LINE",
"247 333 LINE",
"389 0 LINE",
"477 0 LINE",
"311 386 LINE",
"605 644 LINE",
"509 644 LINE",
"141 325 LINE",
"208 644 LINE",
"126 644 LINE",
"-10 0 LINE"
);
},
{
closed = 1;
nodes = (
"181 -214 LINE",
"261 -37 LINE",
"187 -37 LINE",
"121 -214 LINE"
);
}
);
width = 607;
}
);
leftKerningGroup = K;
note = Kcommaaccent;
rightKerningGroup = K;
unicode = 0136;
},
{
glyphname = L;
lastChange = "2015-10-24 19:57:31 +0000";
layers = (
{
layerId = "1336773A-60E9-4881-855D-D55F9632DBDF";
name = "Light Italic";
paths = (
{
closed = 1;
nodes = (
"415 0 LINE",
"428 64 LINE",
"85 64 LINE",
"208 644 LINE",
"126 644 LINE",
"-10 0 LINE"
);
}
);
width = 525;
}
);
note = L;
rightKerningGroup = L;
unicode = 004C;
},
{
glyphname = Lacute;
lastChange = "2015-10-24 19:57:30 +0000";
layers = (
{
layerId = "1336773A-60E9-4881-855D-D55F9632DBDF";
name = "Light Italic";
paths = (
{
closed = 1;
nodes = (
"415 0 LINE",
"428 64 LINE",
"85 64 LINE",
"208 644 LINE",
"126 644 LINE",
"-10 0 LINE"
);
},
{
closed = 1;
nodes = (
"202 688 LINE",
"317 856 LINE",
"243 856 LINE",
"136 688 LINE"
);
}
);
width = 525;
}
);
note = Lacute;
rightKerningGroup = L;
unicode = 0139;
},
{
glyphname = Lcaron;
lastChange = "2015-10-24 19:57:31 +0000";
layers = (
{
layerId = "1336773A-60E9-4881-855D-D55F9632DBDF";
name = "Light Italic";
paths = (
{
closed = 1;
nodes = (
"415 0 LINE",
"428 64 LINE",
"85 64 LINE",
"208 644 LINE",
"126 644 LINE",
"-10 0 LINE"
);
},
{
closed = 1;
nodes = (
"401 568 LINE",
"481 745 LINE",
"407 745 LINE",
"341 568 LINE"
);
}
);
width = 525;
}
);
note = Lcaron;
rightKerningGroup = L;
unicode = 013D;
},
{
glyphname = Lcommaaccent;
lastChange = "2015-10-24 19:57:31 +0000";
layers = (
{
layerId = "1336773A-60E9-4881-855D-D55F9632DBDF";
name = "Light Italic";
paths = (
{
closed = 1;
nodes = (
"415 0 LINE",
"428 64 LINE",
"85 64 LINE",
"208 644 LINE",
"126 644 LINE",
"-10 0 LINE"
);
},
{
closed = 1;
nodes = (
"155 -214 LINE",
"235 -37 LINE",
"161 -37 LINE",
"95 -214 LINE"
);
}
);
width = 525;
}
);
note = Lcommaaccent;
rightKerningGroup = L;
unicode = 013B;
},
{
glyphname = Ldot;
lastChange = "2015-10-24 19:57:30 +0000";
layers = (
{
layerId = "1336773A-60E9-4881-855D-D55F9632DBDF";
name = "Light Italic";
paths = (
{
closed = 1;
nodes = (
"415 0 LINE",
"428 64 LINE",
"85 64 LINE",
"208 644 LINE",
"126 644 LINE",
"-10 0 LINE"
);
},
{
closed = 1;
nodes = (
"379 259 LINE",
"395 336 LINE",
"315 336 LINE",
"299 259 LINE"
);
}
);
width = 525;
}
);
note = Ldot;
rightKerningGroup = L;
unicode = 013F;
},
{
glyphname = Ldotbelow;
lastChange = "2015-10-24 19:57:30 +0000";
layers = (
{
layerId = "1336773A-60E9-4881-855D-D55F9632DBDF";
name = "Light Italic";
paths = (
{
closed = 1;
nodes = (
"415 0 LINE",
"428 64 LINE",
"85 64 LINE",
"208 644 LINE",
"126 644 LINE",
"-10 0 LINE"
);
},
{
closed = 1;
nodes = (
"191 -164 LINE",
"207 -87 LINE",
"127 -87 LINE",
"111 -164 LINE"
);
}
);
width = 525;
}
);
note = Ldotbelow;
rightKerningGroup = L;
unicode = 1E36;
},
{
glyphname = Ldotbelowmacron;
lastChange = "2015-10-24 19:57:31 +0000";
layers = (
{
layerId = "1336773A-60E9-4881-855D-D55F9632DBDF";
name = "Light Italic";
paths = (
{
closed = 1;
nodes = (
"415 0 LINE",
"428 64 LINE",
"85 64 LINE",
"208 644 LINE",
"126 644 LINE",
"-10 0 LINE"
);
},
{
closed = 1;
nodes = (
"201 -164 LINE",
"217 -87 LINE",
"137 -87 LINE",
"121 -164 LINE"
);
},
{
closed = 1;
nodes = (
"330 717 LINE",
"342 776 LINE",
"55 776 LINE",
"43 717 LINE"
);
}
);
width = 525;
}
);
note = Ldotbelowmacron;
rightKerningGroup = L;
unicode = 1E38;
},
{
glyphname = Llinebelow;
lastChange = "2015-10-24 19:57:31 +0000";
layers = (
{
layerId = "1336773A-60E9-4881-855D-D55F9632DBDF";
name = "Light Italic";
paths = (
{
closed = 1;
nodes = (
"415 0 LINE",
"428 64 LINE",
"85 64 LINE",
"208 644 LINE",
"126 644 LINE",
"-10 0 LINE"
);
},
{
closed = 1;
nodes = (
"302 -132 LINE",
"314 -73 LINE",
"27 -73 LINE",
"15 -132 LINE"
);
}
);
width = 525;
}
);
note = Llinebelow;
rightKerningGroup = L;
unicode = 1E3A;
},
{
glyphname = Lslash;
lastChange = "2015-10-24 19:57:30 +0000";
layers = (
{
layerId = "1336773A-60E9-4881-855D-D55F9632DBDF";
name = "Light Italic";
paths = (
{
closed = 1;
nodes = (
"415 0 LINE",
"428 64 LINE",
"85 64 LINE",
"138 314 LINE",
"285 373 LINE",
"300 444 LINE",
"153 385 LINE",
"208 644 LINE",
"126 644 LINE",
"63 349 LINE",
"-46 305 LINE",
"-61 234 LINE",
"48 278 LINE",
"-10 0 LINE"
);
}
);
width = 525;
}
);
note = Lslash;
rightKerningGroup = L;
unicode = 0141;
},
{
glyphname = M;
lastChange = "2015-10-24 19:57:31 +0000";
layers = (
{
layerId = "1336773A-60E9-4881-855D-D55F9632DBDF";
name = "Light Italic";
paths = (
{
closed = 1;
nodes = (
"71 0 LINE",
"180 516 LINE",
"292 112 LINE",
"347 112 LINE",
"630 516 LINE",
"521 0 LINE",
"602 0 LINE",
"738 644 LINE",
"646 644 LINE",
"333 197 LINE",
"210 644 LINE",
"126 644 LINE",
"-10 0 LINE"
);
}
);
width = 752;
}
);
note = M;
unicode = 004D;
},
{
glyphname = Mdotbelow;
lastChange = "2015-10-24 19:57:30 +0000";
layers = (
{
layerId = "1336773A-60E9-4881-855D-D55F9632DBDF";
name = "Light Italic";
paths = (
{
closed = 1;
nodes = (
"71 0 LINE",
"180 516 LINE",
"292 112 LINE",
"347 112 LINE",
"630 516 LINE",
"521 0 LINE",
"602 0 LINE",
"738 644 LINE",
"646 644 LINE",
"333 197 LINE",
"210 644 LINE",
"126 644 LINE",
"-10 0 LINE"
);
},
{
closed = 1;
nodes = (
"302 -164 LINE",
"318 -87 LINE",
"238 -87 LINE",
"222 -164 LINE"
);
}
);
width = 752;
}
);
note = Mdotbelow;
unicode = 1E42;
},
{
glyphname = N;
lastChange = "2015-10-24 19:57:31 +0000";
layers = (
{
layerId = "1336773A-60E9-4881-855D-D55F9632DBDF";
name = "Light Italic";
paths = (
{
closed = 1;
nodes = (
"72 0 LINE",
"181 517 LINE",
"438 0 LINE",
"513 0 LINE",
"649 644 LINE",
"567 644 LINE",
"457 126 LINE",
"200 644 LINE",
"126 644 LINE",
"-10 0 LINE"
);
}
);
width = 663;
}
);
note = N;
unicode = 004E;
},
{
glyphname = Nacute;
lastChange = "2015-10-24 19:57:30 +0000";
layers = (
{
layerId = "1336773A-60E9-4881-855D-D55F9632DBDF";
name = "Light Italic";
paths = (
{
closed = 1;
nodes = (
"72 0 LINE",
"181 517 LINE",
"438 0 LINE",
"513 0 LINE",
"649 644 LINE",
"567 644 LINE",
"457 126 LINE",
"200 644 LINE",
"126 644 LINE",
"-10 0 LINE"
);
},
{
closed = 1;
nodes = (
"428 688 LINE",
"543 856 LINE",
"469 856 LINE",
"362 688 LINE"
);
}
);
width = 663;
}
);
note = Nacute;
unicode = 0143;
},
{
glyphname = Ncaron;
lastChange = "2015-10-24 19:57:30 +0000";
layers = (
{
layerId = "1336773A-60E9-4881-855D-D55F9632DBDF";
name = "Light Italic";
paths = (
{
closed = 1;
nodes = (
"72 0 LINE",
"181 517 LINE",
"438 0 LINE",
"513 0 LINE",
"649 644 LINE",
"567 644 LINE",
"457 126 LINE",
"200 644 LINE",
"126 644 LINE",
"-10 0 LINE"
);
},
{
closed = 1;
nodes = (
"445 688 LINE",
"591 836 LINE",
"517 836 LINE",
"418 734 LINE",
"363 836 LINE",
"296 836 LINE",
"379 688 LINE"
);
}
);
width = 663;
}
);
note = Ncaron;
unicode = 0147;
},
{
glyphname = Ncommaaccent;
lastChange = "2015-10-24 19:57:30 +0000";
layers = (
{
layerId = "1336773A-60E9-4881-855D-D55F9632DBDF";
name = "Light Italic";
paths = (
{
closed = 1;
nodes = (
"72 0 LINE",
"181 517 LINE",
"438 0 LINE",
"513 0 LINE",
"649 644 LINE",
"567 644 LINE",
"457 126 LINE",
"200 644 LINE",
"126 644 LINE",
"-10 0 LINE"
);
},
{
closed = 1;
nodes = (
"213 -214 LINE",
"293 -37 LINE",
"219 -37 LINE",
"153 -214 LINE"
);
}
);
width = 663;
}
);
note = Ncommaaccent;
unicode = 0145;
},
{
glyphname = Ndotaccent;
lastChange = "2015-10-24 19:57:30 +0000";
layers = (
{
layerId = "1336773A-60E9-4881-855D-D55F9632DBDF";
name = "Light Italic";
paths = (
{
closed = 1;
nodes = (
"72 0 LINE",
"181 517 LINE",
"438 0 LINE",
"513 0 LINE",
"649 644 LINE",
"567 644 LINE",
"457 126 LINE",
"200 644 LINE",
"126 644 LINE",
"-10 0 LINE"
);
},
{
closed = 1;
nodes = (
"455 710 LINE",
"471 787 LINE",
"391 787 LINE",
"375 710 LINE"
);
}
);
width = 663;
}
);
note = Ndotaccent;
unicode = 1E44;
},
{
glyphname = Ndotbelow;
lastChange = "2015-10-24 19:57:31 +0000";
layers = (
{
layerId = "1336773A-60E9-4881-855D-D55F9632DBDF";
name = "Light Italic";
paths = (
{
closed = 1;
nodes = (
"72 0 LINE",
"181 517 LINE",
"438 0 LINE",
"513 0 LINE",
"649 644 LINE",
"567 644 LINE",
"457 126 LINE",
"200 644 LINE",
"126 644 LINE",
"-10 0 LINE"
);
},
{
closed = 1;
nodes = (
"257 -164 LINE",
"273 -87 LINE",
"193 -87 LINE",
"177 -164 LINE"
);
}
);
width = 663;
}
);
note = Ndotbelow;
unicode = 1E46;
},
{
glyphname = Eng;
lastChange = "2015-10-24 19:57:30 +0000";
layers = (
{
layerId = "1336773A-60E9-4881-855D-D55F9632DBDF";
name = "Light Italic";
paths = (
{
closed = 1;
nodes = (
"417 -234 OFFCURVE",
"474 -180 OFFCURVE",
"493 -94 CURVE SMOOTH",
"649 644 LINE",
"567 644 LINE",
"457 126 LINE",
"200 644 LINE",
"126 644 LINE",
"-10 0 LINE",
"72 0 LINE",
"181 517 LINE",
"433 10 LINE",
"412 -87 LINE SMOOTH",
"400 -143 OFFCURVE",
"376 -165 OFFCURVE",
"304 -165 CURVE SMOOTH",
"287 -165 OFFCURVE",
"266 -162 OFFCURVE",
"246 -155 CURVE",
"232 -220 LINE",
"255 -229 OFFCURVE",
"285 -234 OFFCURVE",
"318 -234 CURVE SMOOTH"
);
}
);
width = 663;
}
);
note = Eng;
unicode = 014A;
},
{
glyphname = Nlinebelow;
lastChange = "2015-10-24 19:57:31 +0000";
layers = (
{
layerId = "1336773A-60E9-4881-855D-D55F9632DBDF";
name = "Light Italic";
paths = (
{
closed = 1;
nodes = (
"72 0 LINE",
"181 517 LINE",
"438 0 LINE",
"513 0 LINE",
"649 644 LINE",
"567 644 LINE",
"457 126 LINE",
"200 644 LINE",
"126 644 LINE",
"-10 0 LINE"
);
},
{
closed = 1;
nodes = (
"373 -130 LINE",
"385 -71 LINE",
"98 -71 LINE",
"86 -130 LINE"
);
}
);
width = 663;
}
);
note = Nlinebelow;
unicode = 1E48;
},
{
glyphname = Ntilde;
lastChange = "2015-10-24 19:57:31 +0000";
layers = (
{
layerId = "1336773A-60E9-4881-855D-D55F9632DBDF";
name = "Light Italic";
paths = (
{
closed = 1;
nodes = (
"72 0 LINE",
"181 517 LINE",
"438 0 LINE",
"513 0 LINE",
"649 644 LINE",
"567 644 LINE",
"457 126 LINE",
"200 644 LINE",
"126 644 LINE",
"-10 0 LINE"
);
},
{
closed = 1;
nodes = (
"508 708 OFFCURVE",
"541 720 OFFCURVE",
"558 738 CURVE",
"571 802 LINE",
"548 777 OFFCURVE",
"521 766 OFFCURVE",
"487 766 CURVE SMOOTH",
"438 766 OFFCURVE",
"406 804 OFFCURVE",
"351 804 CURVE SMOOTH",
"320 804 OFFCURVE",
"281 792 OFFCURVE",
"261 774 CURVE",
"248 711 LINE",
"275 737 OFFCURVE",
"306 746 OFFCURVE",
"338 746 CURVE SMOOTH",
"381 746 OFFCURVE",
"422 708 OFFCURVE",
"474 708 CURVE SMOOTH"
);
}
);
width = 663;
}
);
note = Ntilde;
unicode = 00D1;
},
{
glyphname = O;
lastChange = "2015-10-24 19:57:31 +0000";
layers = (
{
layerId = "1336773A-60E9-4881-855D-D55F9632DBDF";
name = "Light Italic";
paths = (
{
closed = 1;
nodes = (
"472 -10 OFFCURVE",
"583 91 OFFCURVE",
"632 322 CURVE SMOOTH",
"681 553 OFFCURVE",
"598 654 OFFCURVE",
"406 654 CURVE SMOOTH",
"194 654 OFFCURVE",
"87 553 OFFCURVE",
"38 322 CURVE SMOOTH",
"-11 91 OFFCURVE",
"71 -10 OFFCURVE",
"264 -10 CURVE SMOOTH"
);
},
{
closed = 1;
nodes = (
"118 60 OFFCURVE",
"79 128 OFFCURVE",
"120 322 CURVE SMOOTH",
"161 516 OFFCURVE",
"245 584 OFFCURVE",
"391 584 CURVE SMOOTH",
"550 584 OFFCURVE",
"591 516 OFFCURVE",
"550 322 CURVE SMOOTH",
"509 128 OFFCURVE",
"425 60 OFFCURVE",
"279 60 CURVE SMOOTH"
);
}
);
width = 694;
}
);
leftKerningGroup = O;
note = O;
rightKerningGroup = O;
unicode = 004F;
},
{
glyphname = Oacute;
lastChange = "2015-10-24 19:57:31 +0000";
layers = (
{
layerId = "1336773A-60E9-4881-855D-D55F9632DBDF";
name = "Light Italic";
paths = (
{
closed = 1;
nodes = (
"472 -10 OFFCURVE",
"583 91 OFFCURVE",
"632 322 CURVE SMOOTH",
"681 553 OFFCURVE",
"598 654 OFFCURVE",
"406 654 CURVE SMOOTH",
"194 654 OFFCURVE",
"87 553 OFFCURVE",
"38 322 CURVE SMOOTH",
"-11 91 OFFCURVE",
"71 -10 OFFCURVE",
"264 -10 CURVE SMOOTH"
);
},
{
closed = 1;
nodes = (
"118 60 OFFCURVE",
"79 128 OFFCURVE",
"120 322 CURVE SMOOTH",
"161 516 OFFCURVE",
"245 584 OFFCURVE",
"391 584 CURVE SMOOTH",
"550 584 OFFCURVE",
"591 516 OFFCURVE",
"550 322 CURVE SMOOTH",
"509 128 OFFCURVE",
"425 60 OFFCURVE",
"279 60 CURVE SMOOTH"
);
},
{
closed = 1;
nodes = (
"444 688 LINE",
"559 856 LINE",
"485 856 LINE",
"378 688 LINE"
);
}
);
width = 694;
}
);
leftKerningGroup = O;
note = Oacute;
rightKerningGroup = O;
unicode = 00D3;
},
{
glyphname = Obreve;
lastChange = "2015-10-24 19:57:31 +0000";
layers = (
{
layerId = "1336773A-60E9-4881-855D-D55F9632DBDF";
name = "Light Italic";
paths = (
{
closed = 1;
nodes = (
"472 -10 OFFCURVE",
"583 91 OFFCURVE",
"632 322 CURVE SMOOTH",
"681 553 OFFCURVE",
"598 654 OFFCURVE",
"406 654 CURVE SMOOTH",
"194 654 OFFCURVE",
"87 553 OFFCURVE",
"38 322 CURVE SMOOTH",
"-11 91 OFFCURVE",
"71 -10 OFFCURVE",
"264 -10 CURVE SMOOTH"
);
},
{
closed = 1;
nodes = (
"118 60 OFFCURVE",
"79 128 OFFCURVE",
"120 322 CURVE SMOOTH",
"161 516 OFFCURVE",
"245 584 OFFCURVE",
"391 584 CURVE SMOOTH",
"550 584 OFFCURVE",
"591 516 OFFCURVE",
"550 322 CURVE SMOOTH",
"509 128 OFFCURVE",
"425 60 OFFCURVE",
"279 60 CURVE SMOOTH"
);
},
{
closed = 1;
nodes = (
"504 688 OFFCURVE",
"550 739 OFFCURVE",
"566 814 CURVE",
"505 814 LINE",
"494 763 OFFCURVE",
"464 740 OFFCURVE",
"420 740 CURVE SMOOTH",
"373 740 OFFCURVE",
"356 763 OFFCURVE",
"367 814 CURVE",
"312 814 LINE",
"297 739 OFFCURVE",
"328 688 OFFCURVE",
"411 688 CURVE SMOOTH"
);
}
);
width = 694;
}
);
leftKerningGroup = O;
note = Obreve;
rightKerningGroup = O;
unicode = 014E;
},
{
glyphname = Ocaron;
lastChange = "2015-10-24 19:57:31 +0000";
layers = (
{
layerId = "1336773A-60E9-4881-855D-D55F9632DBDF";
name = "Light Italic";
paths = (
{
closed = 1;
nodes = (
"472 -10 OFFCURVE",
"583 91 OFFCURVE",
"632 322 CURVE SMOOTH",
"681 553 OFFCURVE",
"598 654 OFFCURVE",
"406 654 CURVE SMOOTH",
"194 654 OFFCURVE",
"87 553 OFFCURVE",
"38 322 CURVE SMOOTH",
"-11 91 OFFCURVE",
"71 -10 OFFCURVE",
"264 -10 CURVE SMOOTH"
);
},
{
closed = 1;
nodes = (
"118 60 OFFCURVE",
"79 128 OFFCURVE",
"120 322 CURVE SMOOTH",
"161 516 OFFCURVE",
"245 584 OFFCURVE",
"391 584 CURVE SMOOTH",
"550 584 OFFCURVE",
"591 516 OFFCURVE",
"550 322 CURVE SMOOTH",
"509 128 OFFCURVE",
"425 60 OFFCURVE",
"279 60 CURVE SMOOTH"
);
},
{
closed = 1;
nodes = (
"446 688 LINE",
"592 836 LINE",
"518 836 LINE",
"419 734 LINE",
"364 836 LINE",
"297 836 LINE",
"380 688 LINE"
);
}
);
width = 694;
}
);
leftKerningGroup = O;
note = Ocaron;
rightKerningGroup = O;
unicode = 01D1;
},
{
glyphname = Ocircumflex;
lastChange = "2015-10-24 19:57:31 +0000";
layers = (
{
layerId = "1336773A-60E9-4881-855D-D55F9632DBDF";
name = "Light Italic";
paths = (
{
closed = 1;
nodes = (
"472 -10 OFFCURVE",
"583 91 OFFCURVE",
"632 322 CURVE SMOOTH",
"681 553 OFFCURVE",
"598 654 OFFCURVE",
"406 654 CURVE SMOOTH",
"194 654 OFFCURVE",
"87 553 OFFCURVE",
"38 322 CURVE SMOOTH",
"-11 91 OFFCURVE",
"71 -10 OFFCURVE",
"264 -10 CURVE SMOOTH"
);
},
{
closed = 1;
nodes = (
"118 60 OFFCURVE",
"79 128 OFFCURVE",
"120 322 CURVE SMOOTH",
"161 516 OFFCURVE",
"245 584 OFFCURVE",
"391 584 CURVE SMOOTH",
"550 584 OFFCURVE",
"591 516 OFFCURVE",
"550 322 CURVE SMOOTH",
"509 128 OFFCURVE",
"425 60 OFFCURVE",
"279 60 CURVE SMOOTH"
);
},
{
closed = 1;
nodes = (
"339 688 LINE",
"437 790 LINE",
"493 688 LINE",
"561 688 LINE",
"477 836 LINE",
"411 836 LINE",
"266 688 LINE"
);
}
);
width = 694;
}
);
leftKerningGroup = O;
note = Ocircumflex;
rightKerningGroup = O;
unicode = 00D4;
},
{
glyphname = Ocircumflexacute;
lastChange = "2015-10-24 19:57:31 +0000";
layers = (
{
layerId = "1336773A-60E9-4881-855D-D55F9632DBDF";
name = "Light Italic";
paths = (
{
closed = 1;
nodes = (
"472 -10 OFFCURVE",
"583 91 OFFCURVE",
"632 322 CURVE SMOOTH",
"681 553 OFFCURVE",
"598 654 OFFCURVE",
"406 654 CURVE SMOOTH",
"194 654 OFFCURVE",
"87 553 OFFCURVE",
"38 322 CURVE SMOOTH",
"-11 91 OFFCURVE",
"71 -10 OFFCURVE",
"264 -10 CURVE SMOOTH"
);
},
{
closed = 1;
nodes = (
"118 60 OFFCURVE",
"79 128 OFFCURVE",
"120 322 CURVE SMOOTH",
"161 516 OFFCURVE",
"245 584 OFFCURVE",
"391 584 CURVE SMOOTH",
"550 584 OFFCURVE",
"591 516 OFFCURVE",
"550 322 CURVE SMOOTH",
"509 128 OFFCURVE",
"425 60 OFFCURVE",
"279 60 CURVE SMOOTH"
);
},
{
closed = 1;
nodes = (
"345 688 LINE",
"437 771 LINE",
"494 688 LINE",
"561 688 LINE",
"475 806 LINE",
"409 806 LINE",
"273 688 LINE"
);
},
{
closed = 1;
nodes = (
"579 797 LINE",
"673 922 LINE",
"608 922 LINE",
"520 797 LINE"
);
}
);
width = 694;
}
);
leftKerningGroup = O;
note = Ocircumflexacute;
rightKerningGroup = O;
unicode = 1ED0;
},
{
glyphname = Ocircumflexdotbelow;
lastChange = "2015-10-24 19:57:31 +0000";
layers = (
{
layerId = "1336773A-60E9-4881-855D-D55F9632DBDF";
name = "Light Italic";
paths = (
{
closed = 1;
nodes = (
"472 -10 OFFCURVE",
"583 91 OFFCURVE",
"632 322 CURVE SMOOTH",
"681 553 OFFCURVE",
"598 654 OFFCURVE",
"406 654 CURVE SMOOTH",
"194 654 OFFCURVE",
"87 553 OFFCURVE",
"38 322 CURVE SMOOTH",
"-11 91 OFFCURVE",
"71 -10 OFFCURVE",
"264 -10 CURVE SMOOTH"
);
},
{
closed = 1;
nodes = (
"273 -164 LINE",
"289 -87 LINE",
"209 -87 LINE",
"193 -164 LINE"
);
},
{
closed = 1;
nodes = (
"118 60 OFFCURVE",
"79 128 OFFCURVE",
"120 322 CURVE SMOOTH",
"161 516 OFFCURVE",
"245 584 OFFCURVE",
"391 584 CURVE SMOOTH",
"550 584 OFFCURVE",
"591 516 OFFCURVE",
"550 322 CURVE SMOOTH",
"509 128 OFFCURVE",
"425 60 OFFCURVE",
"279 60 CURVE SMOOTH"
);
},
{
closed = 1;
nodes = (
"339 688 LINE",
"437 790 LINE",
"493 688 LINE",
"561 688 LINE",
"477 836 LINE",
"411 836 LINE",
"266 688 LINE"
);
}
);
width = 694;
}
);
leftKerningGroup = O;
note = Ocircumflexdotbelow;
rightKerningGroup = O;
unicode = 1ED8;
},
{
glyphname = Ocircumflexgrave;
lastChange = "2015-10-24 19:57:31 +0000";
layers = (
{
layerId = "1336773A-60E9-4881-855D-D55F9632DBDF";
name = "Light Italic";
paths = (
{
closed = 1;
nodes = (
"472 -10 OFFCURVE",
"583 91 OFFCURVE",
"632 322 CURVE SMOOTH",
"681 553 OFFCURVE",
"598 654 OFFCURVE",
"406 654 CURVE SMOOTH",
"194 654 OFFCURVE",
"87 553 OFFCURVE",
"38 322 CURVE SMOOTH",
"-11 91 OFFCURVE",
"71 -10 OFFCURVE",
"264 -10 CURVE SMOOTH"
);
},
{
closed = 1;
nodes = (
"118 60 OFFCURVE",
"79 128 OFFCURVE",
"120 322 CURVE SMOOTH",
"161 516 OFFCURVE",
"245 584 OFFCURVE",
"391 584 CURVE SMOOTH",
"550 584 OFFCURVE",
"591 516 OFFCURVE",
"550 322 CURVE SMOOTH",
"509 128 OFFCURVE",
"425 60 OFFCURVE",
"279 60 CURVE SMOOTH"
);
},
{
closed = 1;
nodes = (
"328 688 LINE",
"421 771 LINE",
"477 688 LINE",
"544 688 LINE",
"459 806 LINE",
"393 806 LINE",
"257 688 LINE"
);
},
{
closed = 1;
nodes = (
"344 797 LINE",
"309 922 LINE",
"244 922 LINE",
"285 797 LINE"
);
}
);
width = 694;
}
);
leftKerningGroup = O;
note = Ocircumflexgrave;
rightKerningGroup = O;
unicode = 1ED2;
},
{
glyphname = Ocircumflexhookabove;
lastChange = "2015-10-24 19:57:31 +0000";
layers = (
{
layerId = "1336773A-60E9-4881-855D-D55F9632DBDF";
name = "Light Italic";
paths = (
{
closed = 1;
nodes = (
"472 -10 OFFCURVE",
"583 91 OFFCURVE",
"632 322 CURVE SMOOTH",
"681 553 OFFCURVE",
"598 654 OFFCURVE",
"406 654 CURVE SMOOTH",
"194 654 OFFCURVE",
"87 553 OFFCURVE",
"38 322 CURVE SMOOTH",
"-11 91 OFFCURVE",
"71 -10 OFFCURVE",
"264 -10 CURVE SMOOTH"
);
},
{
closed = 1;
nodes = (
"118 60 OFFCURVE",
"79 128 OFFCURVE",
"120 322 CURVE SMOOTH",
"161 516 OFFCURVE",
"245 584 OFFCURVE",
"391 584 CURVE SMOOTH",
"550 584 OFFCURVE",
"591 516 OFFCURVE",
"550 322 CURVE SMOOTH",
"509 128 OFFCURVE",
"425 60 OFFCURVE",
"279 60 CURVE SMOOTH"
);
},
{
closed = 1;
nodes = (
"340 688 LINE",
"432 771 LINE",
"489 688 LINE",
"556 688 LINE",
"470 806 LINE",
"404 806 LINE",
"268 688 LINE"
);
},
{
closed = 1;
nodes = (
"579 776 LINE",
"586 811 LINE",
"643 818 OFFCURVE",
"672 842 OFFCURVE",
"681 885 CURVE SMOOTH",
"691 932 OFFCURVE",
"661 960 OFFCURVE",
"601 960 CURVE SMOOTH",
"571 960 OFFCURVE",
"548 955 OFFCURVE",
"528 948 CURVE",
"519 905 LINE",
"537 912 OFFCURVE",
"556 917 OFFCURVE",
"578 917 CURVE SMOOTH",
"612 917 OFFCURVE",
"626 906 OFFCURVE",
"620 881 CURVE",
"615 855 OFFCURVE",
"599 842 OFFCURVE",
"532 839 CURVE",
"519 776 LINE"
);
}
);
width = 694;
}
);
leftKerningGroup = O;
note = Ocircumflexhookabove;
rightKerningGroup = O;
unicode = 1ED4;
},
{
glyphname = Ocircumflextilde;
lastChange = "2015-10-24 19:57:30 +0000";
layers = (
{
layerId = "1336773A-60E9-4881-855D-D55F9632DBDF";
name = "Light Italic";
paths = (
{
closed = 1;
nodes = (
"472 -10 OFFCURVE",
"583 91 OFFCURVE",
"632 322 CURVE SMOOTH",
"681 553 OFFCURVE",
"598 654 OFFCURVE",
"406 654 CURVE SMOOTH",
"194 654 OFFCURVE",
"87 553 OFFCURVE",
"38 322 CURVE SMOOTH",
"-11 91 OFFCURVE",
"71 -10 OFFCURVE",
"264 -10 CURVE SMOOTH"
);
},
{
closed = 1;
nodes = (
"118 60 OFFCURVE",
"79 128 OFFCURVE",
"120 322 CURVE SMOOTH",
"161 516 OFFCURVE",
"245 584 OFFCURVE",
"391 584 CURVE SMOOTH",
"550 584 OFFCURVE",
"591 516 OFFCURVE",
"550 322 CURVE SMOOTH",
"509 128 OFFCURVE",
"425 60 OFFCURVE",
"279 60 CURVE SMOOTH"
);
},
{
closed = 1;
nodes = (
"497 688 OFFCURVE",
"568 726 OFFCURVE",
"590 828 CURVE",
"537 828 LINE",
"524 766 OFFCURVE",
"483 736 OFFCURVE",
"422 736 CURVE SMOOTH",
"352 736 OFFCURVE",
"334 766 OFFCURVE",
"347 828 CURVE",
"296 828 LINE",
"277 728 OFFCURVE",
"333 688 OFFCURVE",
"413 688 CURVE SMOOTH"
);
},
{
closed = 1;
nodes = (
"549 849 OFFCURVE",
"579 860 OFFCURVE",
"594 876 CURVE",
"606 933 LINE",
"584 910 OFFCURVE",
"559 900 OFFCURVE",
"528 900 CURVE SMOOTH",
"483 900 OFFCURVE",
"454 935 OFFCURVE",
"403 935 CURVE SMOOTH",
"375 935 OFFCURVE",
"339 924 OFFCURVE",
"321 908 CURVE",
"309 852 LINE",
"334 876 OFFCURVE",
"363 884 OFFCURVE",
"392 884 CURVE SMOOTH",
"432 884 OFFCURVE",
"470 849 OFFCURVE",
"518 849 CURVE SMOOTH"
);
}
);
width = 694;
}
);
leftKerningGroup = O;
note = Ocircumflextilde;
rightKerningGroup = O;
unicode = 1ED6;
},
{
glyphname = Odieresis;
lastChange = "2015-10-24 19:57:30 +0000";
layers = (
{
layerId = "1336773A-60E9-4881-855D-D55F9632DBDF";
name = "Light Italic";
paths = (
{
closed = 1;
nodes = (
"472 -10 OFFCURVE",
"583 91 OFFCURVE",
"632 322 CURVE SMOOTH",
"681 553 OFFCURVE",
"598 654 OFFCURVE",
"406 654 CURVE SMOOTH",
"194 654 OFFCURVE",
"87 553 OFFCURVE",
"38 322 CURVE SMOOTH",
"-11 91 OFFCURVE",
"71 -10 OFFCURVE",
"264 -10 CURVE SMOOTH"
);
},
{
closed = 1;
nodes = (
"118 60 OFFCURVE",
"79 128 OFFCURVE",
"120 322 CURVE SMOOTH",
"161 516 OFFCURVE",
"245 584 OFFCURVE",
"391 584 CURVE SMOOTH",
"550 584 OFFCURVE",
"591 516 OFFCURVE",
"550 322 CURVE SMOOTH",
"509 128 OFFCURVE",
"425 60 OFFCURVE",
"279 60 CURVE SMOOTH"
);
},
{
closed = 1;
nodes = (
"368 711 LINE",
"384 786 LINE",
"307 786 LINE",
"291 711 LINE"
);
},
{
closed = 1;
nodes = (
"544 711 LINE",
"560 786 LINE",
"482 786 LINE",
"466 711 LINE"
);
}
);
width = 694;
}
);
leftKerningGroup = O;
note = Odieresis;
rightKerningGroup = O;
unicode = 00D6;
},
{
glyphname = Odotbelow;
lastChange = "2015-10-24 19:57:30 +0000";
layers = (
{
layerId = "1336773A-60E9-4881-855D-D55F9632DBDF";
name = "Light Italic";
paths = (
{
closed = 1;
nodes = (
"472 -10 OFFCURVE",
"583 91 OFFCURVE",
"632 322 CURVE SMOOTH",
"681 553 OFFCURVE",
"598 654 OFFCURVE",
"406 654 CURVE SMOOTH",
"194 654 OFFCURVE",
"87 553 OFFCURVE",
"38 322 CURVE SMOOTH",
"-11 91 OFFCURVE",
"71 -10 OFFCURVE",
"264 -10 CURVE SMOOTH"
);
},
{
closed = 1;
nodes = (
"273 -164 LINE",
"289 -87 LINE",
"209 -87 LINE",
"193 -164 LINE"
);
},
{
closed = 1;
nodes = (
"118 60 OFFCURVE",
"79 128 OFFCURVE",
"120 322 CURVE SMOOTH",
"161 516 OFFCURVE",
"245 584 OFFCURVE",
"391 584 CURVE SMOOTH",
"550 584 OFFCURVE",
"591 516 OFFCURVE",
"550 322 CURVE SMOOTH",
"509 128 OFFCURVE",
"425 60 OFFCURVE",
"279 60 CURVE SMOOTH"
);
}
);
width = 694;
}
);
leftKerningGroup = O;
note = Odotbelow;
rightKerningGroup = O;
unicode = 1ECC;
},
{
glyphname = Ograve;
lastChange = "2015-10-24 19:57:30 +0000";
layers = (
{
layerId = "1336773A-60E9-4881-855D-D55F9632DBDF";
name = "Light Italic";
paths = (
{
closed = 1;
nodes = (
"472 -10 OFFCURVE",
"583 91 OFFCURVE",
"632 322 CURVE SMOOTH",
"681 553 OFFCURVE",
"598 654 OFFCURVE",
"406 654 CURVE SMOOTH",
"194 654 OFFCURVE",
"87 553 OFFCURVE",
"38 322 CURVE SMOOTH",
"-11 91 OFFCURVE",
"71 -10 OFFCURVE",
"264 -10 CURVE SMOOTH"
);
},
{
closed = 1;
nodes = (
"118 60 OFFCURVE",
"79 128 OFFCURVE",
"120 322 CURVE SMOOTH",
"161 516 OFFCURVE",
"245 584 OFFCURVE",
"391 584 CURVE SMOOTH",
"550 584 OFFCURVE",
"591 516 OFFCURVE",
"550 322 CURVE SMOOTH",
"509 128 OFFCURVE",
"425 60 OFFCURVE",
"279 60 CURVE SMOOTH"
);
},
{
closed = 1;
nodes = (
"452 688 LINE",
"417 856 LINE",
"343 856 LINE",
"386 688 LINE"
);
}
);
width = 694;
}
);
leftKerningGroup = O;
note = Ograve;
rightKerningGroup = O;
unicode = 00D2;
},
{
glyphname = Ohookabove;
lastChange = "2015-10-24 19:57:30 +0000";
layers = (
{
layerId = "1336773A-60E9-4881-855D-D55F9632DBDF";
name = "Light Italic";
paths = (
{
closed = 1;
nodes = (
"472 -10 OFFCURVE",
"583 91 OFFCURVE",
"632 322 CURVE SMOOTH",
"681 553 OFFCURVE",
"598 654 OFFCURVE",
"406 654 CURVE SMOOTH",
"194 654 OFFCURVE",
"87 553 OFFCURVE",
"38 322 CURVE SMOOTH",
"-11 91 OFFCURVE",
"71 -10 OFFCURVE",
"264 -10 CURVE SMOOTH"
);
},
{
closed = 1;
nodes = (
"118 60 OFFCURVE",
"79 128 OFFCURVE",
"120 322 CURVE SMOOTH",
"161 516 OFFCURVE",
"245 584 OFFCURVE",
"391 584 CURVE SMOOTH",
"550 584 OFFCURVE",
"591 516 OFFCURVE",
"550 322 CURVE SMOOTH",
"509 128 OFFCURVE",
"425 60 OFFCURVE",
"279 60 CURVE SMOOTH"
);
},
{
closed = 1;
nodes = (
"448 688 LINE",
"458 736 LINE",
"527 745 OFFCURVE",
"555 775 OFFCURVE",
"567 829 CURVE SMOOTH",
"579 886 OFFCURVE",
"537 920 OFFCURVE",
"465 920 CURVE SMOOTH",
"436 920 OFFCURVE",
"399 915 OFFCURVE",
"377 907 CURVE",
"367 856 LINE",
"385 863 OFFCURVE",
"414 868 OFFCURVE",
"435 868 CURVE SMOOTH",
"494 868 OFFCURVE",
"511 856 OFFCURVE",
"504 823 CURVE SMOOTH",
"496 788 OFFCURVE",
"478 775 OFFCURVE",
"400 771 CURVE",
"382 688 LINE"
);
}
);
width = 694;
}
);
leftKerningGroup = O;
note = Ohookabove;
rightKerningGroup = O;
unicode = 1ECE;
},
{
glyphname = Ohorn;
lastChange = "2015-10-24 19:57:31 +0000";
layers = (
{
layerId = "1336773A-60E9-4881-855D-D55F9632DBDF";
name = "Light Italic";
paths = (
{
closed = 1;
nodes = (
"472 -10 OFFCURVE",
"583 91 OFFCURVE",
"632 322 CURVE SMOOTH",
"648 398 OFFCURVE",
"650 460 OFFCURVE",
"638 509 CURVE",
"722 521 OFFCURVE",
"780 570 OFFCURVE",
"806 688 CURVE",
"735 688 LINE",
"716 600 OFFCURVE",
"686 574 OFFCURVE",
"610 573 CURVE",
"572 628 OFFCURVE",
"503 654 OFFCURVE",
"406 654 CURVE SMOOTH",
"194 654 OFFCURVE",
"87 553 OFFCURVE",
"38 322 CURVE SMOOTH",
"-11 91 OFFCURVE",
"71 -10 OFFCURVE",
"264 -10 CURVE SMOOTH"
);
},
{
closed = 1;
nodes = (
"118 60 OFFCURVE",
"79 128 OFFCURVE",
"120 322 CURVE SMOOTH",
"161 516 OFFCURVE",
"245 584 OFFCURVE",
"391 584 CURVE SMOOTH",
"550 584 OFFCURVE",
"591 516 OFFCURVE",
"550 322 CURVE SMOOTH",
"509 128 OFFCURVE",
"425 60 OFFCURVE",
"279 60 CURVE SMOOTH"
);
}
);
width = 760;
}
);
leftKerningGroup = O;
note = Ohorn;
rightKerningGroup = O;
unicode = 01A0;
},
{
glyphname = Ohornacute;
lastChange = "2015-10-24 19:57:30 +0000";
layers = (
{
layerId = "1336773A-60E9-4881-855D-D55F9632DBDF";
name = "Light Italic";
paths = (
{
closed = 1;
nodes = (
"472 -10 OFFCURVE",
"583 91 OFFCURVE",
"632 322 CURVE SMOOTH",
"648 398 OFFCURVE",
"650 460 OFFCURVE",
"638 509 CURVE",
"722 521 OFFCURVE",
"780 570 OFFCURVE",
"806 688 CURVE",
"735 688 LINE",
"716 600 OFFCURVE",
"686 574 OFFCURVE",
"610 573 CURVE",
"572 628 OFFCURVE",
"503 654 OFFCURVE",
"406 654 CURVE SMOOTH",
"194 654 OFFCURVE",
"87 553 OFFCURVE",
"38 322 CURVE SMOOTH",
"-11 91 OFFCURVE",
"71 -10 OFFCURVE",
"264 -10 CURVE SMOOTH"
);
},
{
closed = 1;
nodes = (
"118 60 OFFCURVE",
"79 128 OFFCURVE",
"120 322 CURVE SMOOTH",
"161 516 OFFCURVE",
"245 584 OFFCURVE",
"391 584 CURVE SMOOTH",
"550 584 OFFCURVE",
"591 516 OFFCURVE",
"550 322 CURVE SMOOTH",
"509 128 OFFCURVE",
"425 60 OFFCURVE",
"279 60 CURVE SMOOTH"
);
},
{
closed = 1;
nodes = (
"457 688 LINE",
"572 856 LINE",
"498 856 LINE",
"391 688 LINE"
);
}
);
width = 760;
}
);
leftKerningGroup = O;
note = Ohornacute;
rightKerningGroup = O;
unicode = 1EDA;
},
{
glyphname = Ohorndotbelow;
lastChange = "2015-10-24 19:57:30 +0000";
layers = (
{
layerId = "1336773A-60E9-4881-855D-D55F9632DBDF";
name = "Light Italic";
paths = (
{
closed = 1;
nodes = (
"472 -10 OFFCURVE",
"583 91 OFFCURVE",
"632 322 CURVE SMOOTH",
"648 398 OFFCURVE",
"650 460 OFFCURVE",
"638 509 CURVE",
"722 521 OFFCURVE",
"780 570 OFFCURVE",
"806 688 CURVE",
"735 688 LINE",
"716 600 OFFCURVE",
"686 574 OFFCURVE",
"610 573 CURVE",
"572 628 OFFCURVE",
"503 654 OFFCURVE",
"406 654 CURVE SMOOTH",
"194 654 OFFCURVE",
"87 553 OFFCURVE",
"38 322 CURVE SMOOTH",
"-11 91 OFFCURVE",
"71 -10 OFFCURVE",
"264 -10 CURVE SMOOTH"
);
},
{
closed = 1;
nodes = (
"277 -164 LINE",
"293 -87 LINE",
"213 -87 LINE",
"197 -164 LINE"
);
},
{
closed = 1;
nodes = (
"118 60 OFFCURVE",
"79 128 OFFCURVE",
"120 322 CURVE SMOOTH",
"161 516 OFFCURVE",
"245 584 OFFCURVE",
"391 584 CURVE SMOOTH",
"550 584 OFFCURVE",
"591 516 OFFCURVE",
"550 322 CURVE SMOOTH",
"509 128 OFFCURVE",
"425 60 OFFCURVE",
"279 60 CURVE SMOOTH"
);
}
);
width = 760;
}
);
leftKerningGroup = O;
note = Ohorndotbelow;
rightKerningGroup = O;
unicode = 1EE2;
},
{
glyphname = Ohorngrave;
lastChange = "2015-10-24 19:57:31 +0000";
layers = (
{
layerId = "1336773A-60E9-4881-855D-D55F9632DBDF";
name = "Light Italic";
paths = (
{
closed = 1;
nodes = (
"472 -10 OFFCURVE",
"583 91 OFFCURVE",
"632 322 CURVE SMOOTH",
"648 398 OFFCURVE",
"650 460 OFFCURVE",
"638 509 CURVE",
"722 521 OFFCURVE",
"780 570 OFFCURVE",
"806 688 CURVE",
"735 688 LINE",
"716 600 OFFCURVE",
"686 574 OFFCURVE",
"610 573 CURVE",
"572 628 OFFCURVE",
"503 654 OFFCURVE",
"406 654 CURVE SMOOTH",
"194 654 OFFCURVE",
"87 553 OFFCURVE",
"38 322 CURVE SMOOTH",
"-11 91 OFFCURVE",
"71 -10 OFFCURVE",
"264 -10 CURVE SMOOTH"
);
},
{
closed = 1;
nodes = (
"118 60 OFFCURVE",
"79 128 OFFCURVE",
"120 322 CURVE SMOOTH",
"161 516 OFFCURVE",
"245 584 OFFCURVE",
"391 584 CURVE SMOOTH",
"550 584 OFFCURVE",
"591 516 OFFCURVE",
"550 322 CURVE SMOOTH",
"509 128 OFFCURVE",
"425 60 OFFCURVE",
"279 60 CURVE SMOOTH"
);
},
{
closed = 1;
nodes = (
"463 688 LINE",
"428 856 LINE",
"354 856 LINE",
"397 688 LINE"
);
}
);
width = 760;
}
);
leftKerningGroup = O;
note = Ohorngrave;
rightKerningGroup = O;
unicode = 1EDC;
},
{
glyphname = Ohornhookabove;
lastChange = "2015-10-24 19:57:31 +0000";
layers = (
{
layerId = "1336773A-60E9-4881-855D-D55F9632DBDF";
name = "Light Italic";
paths = (
{
closed = 1;
nodes = (
"472 -10 OFFCURVE",
"583 91 OFFCURVE",
"632 322 CURVE SMOOTH",
"648 398 OFFCURVE",
"650 460 OFFCURVE",
"638 509 CURVE",
"722 521 OFFCURVE",
"780 570 OFFCURVE",
"806 688 CURVE",
"735 688 LINE",
"716 600 OFFCURVE",
"686 574 OFFCURVE",
"610 573 CURVE",
"572 628 OFFCURVE",
"503 654 OFFCURVE",
"406 654 CURVE SMOOTH",
"194 654 OFFCURVE",
"87 553 OFFCURVE",
"38 322 CURVE SMOOTH",
"-11 91 OFFCURVE",
"71 -10 OFFCURVE",
"264 -10 CURVE SMOOTH"
);
},
{
closed = 1;
nodes = (
"118 60 OFFCURVE",
"79 128 OFFCURVE",
"120 322 CURVE SMOOTH",
"161 516 OFFCURVE",
"245 584 OFFCURVE",
"391 584 CURVE SMOOTH",
"550 584 OFFCURVE",
"591 516 OFFCURVE",
"550 322 CURVE SMOOTH",
"509 128 OFFCURVE",
"425 60 OFFCURVE",
"279 60 CURVE SMOOTH"
);
},
{
closed = 1;
nodes = (
"454 688 LINE",
"464 736 LINE",
"533 745 OFFCURVE",
"561 775 OFFCURVE",
"573 829 CURVE SMOOTH",
"585 886 OFFCURVE",
"543 920 OFFCURVE",
"471 920 CURVE SMOOTH",
"442 920 OFFCURVE",
"405 915 OFFCURVE",
"383 907 CURVE",
"373 856 LINE",
"391 863 OFFCURVE",
"420 868 OFFCURVE",
"441 868 CURVE SMOOTH",
"500 868 OFFCURVE",
"517 856 OFFCURVE",
"510 823 CURVE SMOOTH",
"502 788 OFFCURVE",
"484 775 OFFCURVE",
"406 771 CURVE",
"388 688 LINE"
);
}
);
width = 760;
}
);
leftKerningGroup = O;
note = Ohornhookabove;
rightKerningGroup = O;
unicode = 1EDE;
},
{
glyphname = Ohorntilde;
lastChange = "2015-10-24 19:57:30 +0000";
layers = (
{
layerId = "1336773A-60E9-4881-855D-D55F9632DBDF";
name = "Light Italic";
paths = (
{
closed = 1;
nodes = (
"472 -10 OFFCURVE",
"583 91 OFFCURVE",
"632 322 CURVE SMOOTH",
"648 398 OFFCURVE",
"650 460 OFFCURVE",
"638 509 CURVE",
"722 521 OFFCURVE",
"780 570 OFFCURVE",
"806 688 CURVE",
"735 688 LINE",
"716 600 OFFCURVE",
"686 574 OFFCURVE",
"610 573 CURVE",
"572 628 OFFCURVE",
"503 654 OFFCURVE",
"406 654 CURVE SMOOTH",
"194 654 OFFCURVE",
"87 553 OFFCURVE",
"38 322 CURVE SMOOTH",
"-11 91 OFFCURVE",
"71 -10 OFFCURVE",
"264 -10 CURVE SMOOTH"
);
},
{
closed = 1;
nodes = (
"118 60 OFFCURVE",
"79 128 OFFCURVE",
"120 322 CURVE SMOOTH",
"161 516 OFFCURVE",
"245 584 OFFCURVE",
"391 584 CURVE SMOOTH",
"550 584 OFFCURVE",
"591 516 OFFCURVE",
"550 322 CURVE SMOOTH",
"509 128 OFFCURVE",
"425 60 OFFCURVE",
"279 60 CURVE SMOOTH"
);
},
{
closed = 1;
nodes = (
"542 707 OFFCURVE",
"575 719 OFFCURVE",
"592 737 CURVE",
"605 801 LINE",
"582 776 OFFCURVE",
"555 765 OFFCURVE",
"521 765 CURVE SMOOTH",
"472 765 OFFCURVE",
"440 803 OFFCURVE",
"385 803 CURVE SMOOTH",
"354 803 OFFCURVE",
"315 791 OFFCURVE",
"295 773 CURVE",
"282 710 LINE",
"309 736 OFFCURVE",
"340 745 OFFCURVE",
"372 745 CURVE SMOOTH",
"415 745 OFFCURVE",
"456 707 OFFCURVE",
"508 707 CURVE SMOOTH"
);
}
);
width = 760;
}
);
leftKerningGroup = O;
note = Ohorntilde;
rightKerningGroup = O;
unicode = 1EE0;
},
{
glyphname = Ohungarumlaut;
lastChange = "2015-10-24 19:57:31 +0000";
layers = (
{
layerId = "1336773A-60E9-4881-855D-D55F9632DBDF";
name = "Light Italic";
paths = (
{
closed = 1;
nodes = (
"472 -10 OFFCURVE",
"583 91 OFFCURVE",
"632 322 CURVE SMOOTH",
"681 553 OFFCURVE",
"598 654 OFFCURVE",
"406 654 CURVE SMOOTH",
"194 654 OFFCURVE",
"87 553 OFFCURVE",
"38 322 CURVE SMOOTH",
"-11 91 OFFCURVE",
"71 -10 OFFCURVE",
"264 -10 CURVE SMOOTH"
);
},
{
closed = 1;
nodes = (
"118 60 OFFCURVE",
"79 128 OFFCURVE",
"120 322 CURVE SMOOTH",
"161 516 OFFCURVE",
"245 584 OFFCURVE",
"391 584 CURVE SMOOTH",
"550 584 OFFCURVE",
"591 516 OFFCURVE",
"550 322 CURVE SMOOTH",
"509 128 OFFCURVE",
"425 60 OFFCURVE",
"279 60 CURVE SMOOTH"
);
},
{
closed = 1;
nodes = (
"323 688 LINE",
"435 840 LINE",
"357 840 LINE",
"255 688 LINE"
);
},
{
closed = 1;
nodes = (
"528 688 LINE",
"641 840 LINE",
"563 840 LINE",
"460 688 LINE"
);
}
);
width = 694;
}
);
leftKerningGroup = O;
note = Ohungarumlaut;
rightKerningGroup = O;
unicode = 0150;
},
{
glyphname = Omacron;
lastChange = "2015-10-24 19:57:31 +0000";
layers = (
{
layerId = "1336773A-60E9-4881-855D-D55F9632DBDF";
name = "Light Italic";
paths = (
{
closed = 1;
nodes = (
"472 -10 OFFCURVE",
"583 91 OFFCURVE",
"632 322 CURVE SMOOTH",
"681 553 OFFCURVE",
"598 654 OFFCURVE",
"406 654 CURVE SMOOTH",
"194 654 OFFCURVE",
"87 553 OFFCURVE",
"38 322 CURVE SMOOTH",
"-11 91 OFFCURVE",
"71 -10 OFFCURVE",
"264 -10 CURVE SMOOTH"
);
},
{
closed = 1;
nodes = (
"118 60 OFFCURVE",
"79 128 OFFCURVE",
"120 322 CURVE SMOOTH",
"161 516 OFFCURVE",
"245 584 OFFCURVE",
"391 584 CURVE SMOOTH",
"550 584 OFFCURVE",
"591 516 OFFCURVE",
"550 322 CURVE SMOOTH",
"509 128 OFFCURVE",
"425 60 OFFCURVE",
"279 60 CURVE SMOOTH"
);
},
{
closed = 1;
nodes = (
"563 720 LINE",
"575 779 LINE",
"288 779 LINE",
"276 720 LINE"
);
}
);
width = 694;
}
);
leftKerningGroup = O;
note = Omacron;
rightKerningGroup = O;
unicode = 014C;
},
{
glyphname = Oslash;
lastChange = "2015-10-24 19:57:30 +0000";
layers = (
{
layerId = "1336773A-60E9-4881-855D-D55F9632DBDF";
name = "Light Italic";
paths = (
{
closed = 1;
nodes = (
"149 -53 LINE",
"178 -1 LINE",
"204 -7 OFFCURVE",
"232 -10 OFFCURVE",
"264 -10 CURVE SMOOTH",
"472 -10 OFFCURVE",
"583 91 OFFCURVE",
"632 322 CURVE SMOOTH",
"667 486 OFFCURVE",
"634 585 OFFCURVE",
"544 628 CURVE",
"582 693 LINE",
"510 693 LINE",
"483 647 LINE",
"460 651 OFFCURVE",
"434 654 OFFCURVE",
"406 654 CURVE SMOOTH",
"194 654 OFFCURVE",
"87 553 OFFCURVE",
"38 322 CURVE SMOOTH",
"4 161 OFFCURVE",
"33 63 OFFCURVE",
"119 19 CURVE",
"77 -53 LINE"
);
},
{
closed = 1;
nodes = (
"100 119 OFFCURVE",
"92 192 OFFCURVE",
"120 322 CURVE SMOOTH",
"161 516 OFFCURVE",
"245 584 OFFCURVE",
"391 584 CURVE SMOOTH",
"411 584 OFFCURVE",
"428 582 OFFCURVE",
"445 580 CURVE",
"157 84 LINE"
);
},
{
closed = 1;
nodes = (
"256 60 OFFCURVE",
"235 61 OFFCURVE",
"217 64 CURVE",
"506 562 LINE",
"567 529 OFFCURVE",
"578 455 OFFCURVE",
"550 322 CURVE SMOOTH",
"509 128 OFFCURVE",
"425 60 OFFCURVE",
"279 60 CURVE SMOOTH"
);
}
);
width = 694;
}
);
leftKerningGroup = O;
note = Oslash;
rightKerningGroup = O;
unicode = 00D8;
},
{
glyphname = Oslashacute;
lastChange = "2015-10-24 19:57:31 +0000";
layers = (
{
layerId = "1336773A-60E9-4881-855D-D55F9632DBDF";
name = "Light Italic";
paths = (
{
closed = 1;
nodes = (
"149 -53 LINE",
"178 -1 LINE",
"204 -7 OFFCURVE",
"232 -10 OFFCURVE",
"264 -10 CURVE SMOOTH",
"472 -10 OFFCURVE",
"583 91 OFFCURVE",
"632 322 CURVE SMOOTH",
"667 486 OFFCURVE",
"634 585 OFFCURVE",
"544 628 CURVE",
"582 693 LINE",
"510 693 LINE",
"483 647 LINE",
"460 651 OFFCURVE",
"434 654 OFFCURVE",
"406 654 CURVE SMOOTH",
"194 654 OFFCURVE",
"87 553 OFFCURVE",
"38 322 CURVE SMOOTH",
"4 161 OFFCURVE",
"33 63 OFFCURVE",
"119 19 CURVE",
"77 -53 LINE"
);
},
{
closed = 1;
nodes = (
"100 119 OFFCURVE",
"92 192 OFFCURVE",
"120 322 CURVE SMOOTH",
"161 516 OFFCURVE",
"245 584 OFFCURVE",
"391 584 CURVE SMOOTH",
"411 584 OFFCURVE",
"428 582 OFFCURVE",
"445 580 CURVE",
"157 84 LINE"
);
},
{
closed = 1;
nodes = (
"256 60 OFFCURVE",
"235 61 OFFCURVE",
"217 64 CURVE",
"506 562 LINE",
"567 529 OFFCURVE",
"578 455 OFFCURVE",
"550 322 CURVE SMOOTH",
"509 128 OFFCURVE",
"425 60 OFFCURVE",
"279 60 CURVE SMOOTH"
);
},
{
closed = 1;
nodes = (
"433 688 LINE",
"548 856 LINE",
"474 856 LINE",
"367 688 LINE"
);
}
);
width = 694;
}
);
leftKerningGroup = O;
note = Oslashacute;
rightKerningGroup = O;
unicode = 01FE;
},
{
glyphname = Otilde;
lastChange = "2015-10-24 19:57:30 +0000";
layers = (
{
layerId = "1336773A-60E9-4881-855D-D55F9632DBDF";
name = "Light Italic";
paths = (
{
closed = 1;
nodes = (
"472 -10 OFFCURVE",
"583 91 OFFCURVE",
"632 322 CURVE SMOOTH",
"681 553 OFFCURVE",
"598 654 OFFCURVE",
"406 654 CURVE SMOOTH",
"194 654 OFFCURVE",
"87 553 OFFCURVE",
"38 322 CURVE SMOOTH",
"-11 91 OFFCURVE",
"71 -10 OFFCURVE",
"264 -10 CURVE SMOOTH"
);
},
{
closed = 1;
nodes = (
"118 60 OFFCURVE",
"79 128 OFFCURVE",
"120 322 CURVE SMOOTH",
"161 516 OFFCURVE",
"245 584 OFFCURVE",
"391 584 CURVE SMOOTH",
"550 584 OFFCURVE",
"591 516 OFFCURVE",
"550 322 CURVE SMOOTH",
"509 128 OFFCURVE",
"425 60 OFFCURVE",
"279 60 CURVE SMOOTH"
);
},
{
closed = 1;
nodes = (
"527 713 OFFCURVE",
"560 725 OFFCURVE",
"577 743 CURVE",
"590 807 LINE",
"567 782 OFFCURVE",
"540 771 OFFCURVE",
"506 771 CURVE SMOOTH",
"457 771 OFFCURVE",
"425 809 OFFCURVE",
"370 809 CURVE SMOOTH",
"339 809 OFFCURVE",
"300 797 OFFCURVE",
"280 779 CURVE",
"267 716 LINE",
"294 742 OFFCURVE",
"325 751 OFFCURVE",
"357 751 CURVE SMOOTH",
"400 751 OFFCURVE",
"441 713 OFFCURVE",
"493 713 CURVE SMOOTH"
);
}
);
width = 694;
}
);
leftKerningGroup = O;
note = Otilde;
rightKerningGroup = O;
unicode = 00D5;
},
{
glyphname = OE;
lastChange = "2015-10-24 19:57:31 +0000";
layers = (
{
layerId = "1336773A-60E9-4881-855D-D55F9632DBDF";
name = "Light Italic";
paths = (
{
closed = 1;
nodes = (
"360 -10 OFFCURVE",
"440 13 OFFCURVE",
"496 65 CURVE",
"482 0 LINE",
"917 0 LINE",
"930 64 LINE",
"577 64 LINE",
"625 290 LINE",
"942 290 LINE",
"956 354 LINE",
"639 354 LINE",
"687 579 LINE",
"1040 579 LINE",
"1053 644 LINE",
"618 644 LINE",
"603 573 LINE",
"565 627 OFFCURVE",
"498 654 OFFCURVE",
"406 654 CURVE SMOOTH",
"194 654 OFFCURVE",
"87 553 OFFCURVE",
"38 322 CURVE SMOOTH",
"-11 91 OFFCURVE",
"71 -10 OFFCURVE",
"264 -10 CURVE SMOOTH"
);
},
{
closed = 1;
nodes = (
"118 60 OFFCURVE",
"79 128 OFFCURVE",
"120 322 CURVE SMOOTH",
"161 516 OFFCURVE",
"245 584 OFFCURVE",
"391 584 CURVE SMOOTH",
"550 584 OFFCURVE",
"591 516 OFFCURVE",
"550 322 CURVE SMOOTH",
"509 128 OFFCURVE",
"425 60 OFFCURVE",
"279 60 CURVE SMOOTH"
);
}
);
width = 1047;
}
);
leftKerningGroup = O;
note = OE;
rightKerningGroup = E;
unicode = 0152;
},
{
glyphname = P;
lastChange = "2015-10-24 19:57:30 +0000";
layers = (
{
layerId = "1336773A-60E9-4881-855D-D55F9632DBDF";
name = "Light Italic";
paths = (
{
closed = 1;
nodes = (
"72 0 LINE",
"121 233 LINE",
"307 233 LINE SMOOTH",
"459 233 OFFCURVE",
"538 311 OFFCURVE",
"564 436 CURVE SMOOTH",
"590 558 OFFCURVE",
"529 644 OFFCURVE",
"389 644 CURVE SMOOTH",
"126 644 LINE",
"-10 0 LINE"
);
},
{
closed = 1;
nodes = (
"195 579 LINE",
"373 579 LINE SMOOTH",
"480 579 OFFCURVE",
"502 527 OFFCURVE",
"482 436 CURVE SMOOTH",
"464 351 OFFCURVE",
"416 297 OFFCURVE",
"308 297 CURVE SMOOTH",
"135 297 LINE"
);
}
);
width = 582;
}
);
note = P;
unicode = 0050;
},
{
glyphname = Thorn;
lastChange = "2015-10-24 19:57:30 +0000";
layers = (
{
layerId = "1336773A-60E9-4881-855D-D55F9632DBDF";
name = "Light Italic";
paths = (
{
closed = 1;
nodes = (
"72 0 LINE",
"96 115 LINE",
"282 115 LINE SMOOTH",
"435 115 OFFCURVE",
"513 195 OFFCURVE",
"540 320 CURVE SMOOTH",
"565 442 OFFCURVE",
"502 526 OFFCURVE",
"366 526 CURVE SMOOTH",
"183 526 LINE",
"208 644 LINE",
"126 644 LINE",
"-10 0 LINE"
);
},
{
closed = 1;
nodes = (
"169 461 LINE",
"347 461 LINE SMOOTH",
"450 461 OFFCURVE",
"477 416 OFFCURVE",
"458 320 CURVE SMOOTH",
"441 235 OFFCURVE",
"387 179 OFFCURVE",
"283 179 CURVE SMOOTH",
"110 179 LINE"
);
}
);
width = 602;
}
);
note = Thorn;
unicode = 00DE;
},
{
glyphname = Q;
lastChange = "2015-10-24 19:57:30 +0000";
layers = (
{
layerId = "1336773A-60E9-4881-855D-D55F9632DBDF";
name = "Light Italic";
paths = (
{
closed = 1;
nodes = (
"354 -172 OFFCURVE",
"390 -167 OFFCURVE",
"413 -161 CURVE",
"428 -92 LINE",
"406 -98 OFFCURVE",
"376 -102 OFFCURVE",
"355 -102 CURVE SMOOTH",
"296 -102 OFFCURVE",
"287 -79 OFFCURVE",
"300 -9 CURVE",
"485 2 OFFCURVE",
"586 105 OFFCURVE",
"632 322 CURVE SMOOTH",
"681 553 OFFCURVE",
"598 654 OFFCURVE",
"406 654 CURVE SMOOTH",
"194 654 OFFCURVE",
"87 553 OFFCURVE",
"38 322 CURVE SMOOTH",
"-7 109 OFFCURVE",
"59 6 OFFCURVE",
"221 -8 CURVE",
"202 -117 OFFCURVE",
"236 -172 OFFCURVE",
"324 -172 CURVE SMOOTH"
);
},
{
closed = 1;
nodes = (
"118 60 OFFCURVE",
"79 128 OFFCURVE",
"120 322 CURVE SMOOTH",
"161 516 OFFCURVE",
"245 584 OFFCURVE",
"391 584 CURVE SMOOTH",
"550 584 OFFCURVE",
"591 516 OFFCURVE",
"550 322 CURVE SMOOTH",
"509 128 OFFCURVE",
"425 60 OFFCURVE",
"279 60 CURVE SMOOTH"
);
}
);
width = 694;
}
);
leftKerningGroup = O;
note = Q;
rightKerningGroup = O;
unicode = 0051;
},
{
glyphname = R;
lastChange = "2015-10-24 19:57:30 +0000";
layers = (
{
layerId = "1336773A-60E9-4881-855D-D55F9632DBDF";
name = "Light Italic";
paths = (
{
closed = 1;
nodes = (
"72 0 LINE",
"123 243 LINE",
"259 243 LINE SMOOTH",
"321 243 OFFCURVE",
"335 227 OFFCURVE",
"344 187 CURVE SMOOTH",
"387 0 LINE",
"471 0 LINE",
"428 194 LINE SMOOTH",
"420 228 OFFCURVE",
"414 247 OFFCURVE",
"390 263 CURVE",
"485 284 OFFCURVE",
"546 349 OFFCURVE",
"566 444 CURVE SMOOTH",
"590 558 OFFCURVE",
"530 644 OFFCURVE",
"401 644 CURVE SMOOTH",
"126 644 LINE",
"-10 0 LINE"
);
},
{
closed = 1;
nodes = (
"195 579 LINE",
"384 579 LINE SMOOTH",
"478 579 OFFCURVE",
"503 533 OFFCURVE",
"484 444 CURVE SMOOTH",
"463 348 OFFCURVE",
"402 307 OFFCURVE",
"315 307 CURVE SMOOTH",
"137 307 LINE"
);
}
);
width = 602;
}
);
note = R;
rightKerningGroup = R;
unicode = 0052;
},
{
glyphname = Racute;
lastChange = "2015-10-24 19:57:31 +0000";
layers = (
{
layerId = "1336773A-60E9-4881-855D-D55F9632DBDF";
name = "Light Italic";
paths = (
{
closed = 1;
nodes = (
"72 0 LINE",
"123 243 LINE",
"259 243 LINE SMOOTH",
"321 243 OFFCURVE",
"335 227 OFFCURVE",
"344 187 CURVE SMOOTH",
"387 0 LINE",
"471 0 LINE",
"428 194 LINE SMOOTH",
"420 228 OFFCURVE",
"414 247 OFFCURVE",
"390 263 CURVE",
"485 284 OFFCURVE",
"546 349 OFFCURVE",
"566 444 CURVE SMOOTH",
"590 558 OFFCURVE",
"530 644 OFFCURVE",
"401 644 CURVE SMOOTH",
"126 644 LINE",
"-10 0 LINE"
);
},
{
closed = 1;
nodes = (
"195 579 LINE",
"384 579 LINE SMOOTH",
"478 579 OFFCURVE",
"503 533 OFFCURVE",
"484 444 CURVE SMOOTH",
"463 348 OFFCURVE",
"402 307 OFFCURVE",
"315 307 CURVE SMOOTH",
"137 307 LINE"
);
},
{
closed = 1;
nodes = (
"377 688 LINE",
"492 856 LINE",
"418 856 LINE",
"311 688 LINE"
);
}
);
width = 602;
}
);
note = Racute;
rightKerningGroup = R;
unicode = 0154;
},
{
glyphname = Rcaron;
lastChange = "2015-10-24 19:57:31 +0000";
layers = (
{
layerId = "1336773A-60E9-4881-855D-D55F9632DBDF";
name = "Light Italic";
paths = (
{
closed = 1;
nodes = (
"72 0 LINE",
"123 243 LINE",
"259 243 LINE SMOOTH",
"321 243 OFFCURVE",
"335 227 OFFCURVE",
"344 187 CURVE SMOOTH",
"387 0 LINE",
"471 0 LINE",
"428 194 LINE SMOOTH",
"420 228 OFFCURVE",
"414 247 OFFCURVE",
"390 263 CURVE",
"485 284 OFFCURVE",
"546 349 OFFCURVE",
"566 444 CURVE SMOOTH",
"590 558 OFFCURVE",
"530 644 OFFCURVE",
"401 644 CURVE SMOOTH",
"126 644 LINE",
"-10 0 LINE"
);
},
{
closed = 1;
nodes = (
"195 579 LINE",
"384 579 LINE SMOOTH",
"478 579 OFFCURVE",
"503 533 OFFCURVE",
"484 444 CURVE SMOOTH",
"463 348 OFFCURVE",
"402 307 OFFCURVE",
"315 307 CURVE SMOOTH",
"137 307 LINE"
);
},
{
closed = 1;
nodes = (
"388 688 LINE",
"534 836 LINE",
"460 836 LINE",
"361 734 LINE",
"306 836 LINE",
"239 836 LINE",
"322 688 LINE"
);
}
);
width = 602;
}
);
note = Rcaron;
rightKerningGroup = R;
unicode = 0158;
},
{
glyphname = Rcommaaccent;
lastChange = "2015-10-24 19:57:30 +0000";
layers = (
{
layerId = "1336773A-60E9-4881-855D-D55F9632DBDF";
name = "Light Italic";
paths = (
{
closed = 1;
nodes = (
"72 0 LINE",
"123 243 LINE",
"259 243 LINE SMOOTH",
"321 243 OFFCURVE",
"335 227 OFFCURVE",
"344 187 CURVE SMOOTH",
"387 0 LINE",
"471 0 LINE",
"428 194 LINE SMOOTH",
"420 228 OFFCURVE",
"414 247 OFFCURVE",
"390 263 CURVE",
"485 284 OFFCURVE",
"546 349 OFFCURVE",
"566 444 CURVE SMOOTH",
"590 558 OFFCURVE",
"530 644 OFFCURVE",
"401 644 CURVE SMOOTH",
"126 644 LINE",
"-10 0 LINE"
);
},
{
closed = 1;
nodes = (
"155 -214 LINE",
"235 -37 LINE",
"161 -37 LINE",
"95 -214 LINE"
);
},
{
closed = 1;
nodes = (
"195 579 LINE",
"384 579 LINE SMOOTH",
"478 579 OFFCURVE",
"503 533 OFFCURVE",
"484 444 CURVE SMOOTH",
"463 348 OFFCURVE",
"402 307 OFFCURVE",
"315 307 CURVE SMOOTH",
"137 307 LINE"
);
}
);
width = 602;
}
);
note = Rcommaaccent;
rightKerningGroup = R;
unicode = 0156;
},
{
glyphname = Rdotbelow;
lastChange = "2015-10-24 19:57:31 +0000";
layers = (
{
layerId = "1336773A-60E9-4881-855D-D55F9632DBDF";
name = "Light Italic";
paths = (
{
closed = 1;
nodes = (
"72 0 LINE",
"123 243 LINE",
"259 243 LINE SMOOTH",
"321 243 OFFCURVE",
"335 227 OFFCURVE",
"344 187 CURVE SMOOTH",
"387 0 LINE",
"471 0 LINE",
"428 194 LINE SMOOTH",
"420 228 OFFCURVE",
"414 247 OFFCURVE",
"390 263 CURVE",
"485 284 OFFCURVE",
"546 349 OFFCURVE",
"566 444 CURVE SMOOTH",
"590 558 OFFCURVE",
"530 644 OFFCURVE",
"401 644 CURVE SMOOTH",
"126 644 LINE",
"-10 0 LINE"
);
},
{
closed = 1;
nodes = (
"227 -164 LINE",
"243 -87 LINE",
"163 -87 LINE",
"147 -164 LINE"
);
},
{
closed = 1;
nodes = (
"195 579 LINE",
"384 579 LINE SMOOTH",
"478 579 OFFCURVE",
"503 533 OFFCURVE",
"484 444 CURVE SMOOTH",
"463 348 OFFCURVE",
"402 307 OFFCURVE",
"315 307 CURVE SMOOTH",
"137 307 LINE"
);
}
);
width = 602;
}
);
note = Rdotbelow;
rightKerningGroup = R;
unicode = 1E5A;
},
{
glyphname = Rdotbelowmacron;
lastChange = "2015-10-24 19:57:30 +0000";
layers = (
{
layerId = "1336773A-60E9-4881-855D-D55F9632DBDF";
name = "Light Italic";
paths = (
{
closed = 1;
nodes = (
"72 0 LINE",
"123 243 LINE",
"259 243 LINE SMOOTH",
"321 243 OFFCURVE",
"335 227 OFFCURVE",
"344 187 CURVE SMOOTH",
"387 0 LINE",
"471 0 LINE",
"428 194 LINE SMOOTH",
"420 228 OFFCURVE",
"414 247 OFFCURVE",
"390 263 CURVE",
"485 284 OFFCURVE",
"546 349 OFFCURVE",
"566 444 CURVE SMOOTH",
"590 558 OFFCURVE",
"530 644 OFFCURVE",
"401 644 CURVE SMOOTH",
"126 644 LINE",
"-10 0 LINE"
);
},
{
closed = 1;
nodes = (
"217 -164 LINE",
"233 -87 LINE",
"153 -87 LINE",
"137 -164 LINE"
);
},
{
closed = 1;
nodes = (
"195 579 LINE",
"384 579 LINE SMOOTH",
"478 579 OFFCURVE",
"503 533 OFFCURVE",
"484 444 CURVE SMOOTH",
"463 348 OFFCURVE",
"402 307 OFFCURVE",
"315 307 CURVE SMOOTH",
"137 307 LINE"
);
},
{
closed = 1;
nodes = (
"509 717 LINE",
"521 776 LINE",
"234 776 LINE",
"222 717 LINE"
);
}
);
width = 602;
}
);
note = Rdotbelowmacron;
rightKerningGroup = R;
unicode = 1E5C;
},
{
glyphname = Rlinebelow;
lastChange = "2015-10-24 19:57:31 +0000";
layers = (
{
layerId = "1336773A-60E9-4881-855D-D55F9632DBDF";
name = "Light Italic";
paths = (
{
closed = 1;
nodes = (
"72 0 LINE",
"123 243 LINE",
"259 243 LINE SMOOTH",
"321 243 OFFCURVE",
"335 227 OFFCURVE",
"344 187 CURVE SMOOTH",
"387 0 LINE",
"471 0 LINE",
"428 194 LINE SMOOTH",
"420 228 OFFCURVE",
"414 247 OFFCURVE",
"390 263 CURVE",
"485 284 OFFCURVE",
"546 349 OFFCURVE",
"566 444 CURVE SMOOTH",
"590 558 OFFCURVE",
"530 644 OFFCURVE",
"401 644 CURVE SMOOTH",
"126 644 LINE",
"-10 0 LINE"
);
},
{
closed = 1;
nodes = (
"327 -130 LINE",
"339 -71 LINE",
"52 -71 LINE",
"40 -130 LINE"
);
},
{
closed = 1;
nodes = (
"195 579 LINE",
"384 579 LINE SMOOTH",
"478 579 OFFCURVE",
"503 533 OFFCURVE",
"484 444 CURVE SMOOTH",
"463 348 OFFCURVE",
"402 307 OFFCURVE",
"315 307 CURVE SMOOTH",
"137 307 LINE"
);
}
);
width = 602;
}
);
note = Rlinebelow;
rightKerningGroup = R;
unicode = 1E5E;
},
{
glyphname = S;
lastChange = "2015-10-24 19:57:30 +0000";
layers = (
{
layerId = "1336773A-60E9-4881-855D-D55F9632DBDF";
name = "Light Italic";
paths = (
{
closed = 1;
nodes = (
"350 -10 OFFCURVE",
"437 54 OFFCURVE",
"461 168 CURVE SMOOTH",
"481 261 OFFCURVE",
"440 320 OFFCURVE",
"299 358 CURVE SMOOTH",
"173 392 OFFCURVE",
"139 411 OFFCURVE",
"153 477 CURVE SMOOTH",
"169 555 OFFCURVE",
"237 584 OFFCURVE",
"346 584 CURVE SMOOTH",
"406 584 OFFCURVE",
"461 574 OFFCURVE",
"505 557 CURVE",
"520 629 LINE",
"488 641 OFFCURVE",
"422 654 OFFCURVE",
"348 654 CURVE SMOOTH",
"178 654 OFFCURVE",
"93 586 OFFCURVE",
"71 477 CURVE SMOOTH",
"53 386 OFFCURVE",
"94 334 OFFCURVE",
"225 298 CURVE SMOOTH",
"352 263 OFFCURVE",
"397 247 OFFCURVE",
"379 168 CURVE SMOOTH",
"360 86 OFFCURVE",
"298 60 OFFCURVE",
"184 60 CURVE SMOOTH",
"117 60 OFFCURVE",
"56 72 OFFCURVE",
"4 93 CURVE",
"-11 20 LINE",
"38 0 OFFCURVE",
"99 -10 OFFCURVE",
"176 -10 CURVE SMOOTH"
);
}
);
width = 556;
}
);
leftKerningGroup = S;
note = S;
rightKerningGroup = S;
unicode = 0053;
},
{
glyphname = Sacute;
lastChange = "2015-10-24 19:57:31 +0000";
layers = (
{
layerId = "1336773A-60E9-4881-855D-D55F9632DBDF";
name = "Light Italic";
paths = (
{
closed = 1;
nodes = (
"350 -10 OFFCURVE",
"437 54 OFFCURVE",
"461 168 CURVE SMOOTH",
"481 261 OFFCURVE",
"440 320 OFFCURVE",
"299 358 CURVE SMOOTH",
"173 392 OFFCURVE",
"139 411 OFFCURVE",
"153 477 CURVE SMOOTH",
"169 555 OFFCURVE",
"237 584 OFFCURVE",
"346 584 CURVE SMOOTH",
"406 584 OFFCURVE",
"461 574 OFFCURVE",
"505 557 CURVE",
"520 629 LINE",
"488 641 OFFCURVE",
"422 654 OFFCURVE",
"348 654 CURVE SMOOTH",
"178 654 OFFCURVE",
"93 586 OFFCURVE",
"71 477 CURVE SMOOTH",
"53 386 OFFCURVE",
"94 334 OFFCURVE",
"225 298 CURVE SMOOTH",
"352 263 OFFCURVE",
"397 247 OFFCURVE",
"379 168 CURVE SMOOTH",
"360 86 OFFCURVE",
"298 60 OFFCURVE",
"184 60 CURVE SMOOTH",
"117 60 OFFCURVE",
"56 72 OFFCURVE",
"4 93 CURVE",
"-11 20 LINE",
"38 0 OFFCURVE",
"99 -10 OFFCURVE",
"176 -10 CURVE SMOOTH"
);
},
{
closed = 1;
nodes = (
"355 688 LINE",
"470 856 LINE",
"396 856 LINE",
"289 688 LINE"
);
}
);
width = 556;
}
);
leftKerningGroup = S;
note = Sacute;
rightKerningGroup = S;
unicode = 015A;
},
{
glyphname = Scaron;
lastChange = "2015-10-24 19:57:30 +0000";
layers = (
{
layerId = "1336773A-60E9-4881-855D-D55F9632DBDF";
name = "Light Italic";
paths = (
{
closed = 1;
nodes = (
"350 -10 OFFCURVE",
"437 54 OFFCURVE",
"461 168 CURVE SMOOTH",
"481 261 OFFCURVE",
"440 320 OFFCURVE",
"299 358 CURVE SMOOTH",
"173 392 OFFCURVE",
"139 411 OFFCURVE",
"153 477 CURVE SMOOTH",
"169 555 OFFCURVE",
"237 584 OFFCURVE",
"346 584 CURVE SMOOTH",
"406 584 OFFCURVE",
"461 574 OFFCURVE",
"505 557 CURVE",
"520 629 LINE",
"488 641 OFFCURVE",
"422 654 OFFCURVE",
"348 654 CURVE SMOOTH",
"178 654 OFFCURVE",
"93 586 OFFCURVE",
"71 477 CURVE SMOOTH",
"53 386 OFFCURVE",
"94 334 OFFCURVE",
"225 298 CURVE SMOOTH",
"352 263 OFFCURVE",
"397 247 OFFCURVE",
"379 168 CURVE SMOOTH",
"360 86 OFFCURVE",
"298 60 OFFCURVE",
"184 60 CURVE SMOOTH",
"117 60 OFFCURVE",
"56 72 OFFCURVE",
"4 93 CURVE",
"-11 20 LINE",
"38 0 OFFCURVE",
"99 -10 OFFCURVE",
"176 -10 CURVE SMOOTH"
);
},
{
closed = 1;
nodes = (
"395 688 LINE",
"541 836 LINE",
"467 836 LINE",
"368 734 LINE",
"313 836 LINE",
"246 836 LINE",
"329 688 LINE"
);
}
);
width = 556;
}
);
leftKerningGroup = S;
note = Scaron;
rightKerningGroup = S;
unicode = 0160;
},
{
glyphname = Scedilla;
lastChange = "2015-10-24 19:57:31 +0000";
layers = (
{
layerId = "1336773A-60E9-4881-855D-D55F9632DBDF";
name = "Light Italic";
paths = (
{
closed = 1;
nodes = (
"209 -240 OFFCURVE",
"261 -203 OFFCURVE",
"275 -138 CURVE SMOOTH",
"287 -81 OFFCURVE",
"256 -48 OFFCURVE",
"184 -48 CURVE",
"205 -9 LINE",
"359 -2 OFFCURVE",
"438 60 OFFCURVE",
"461 168 CURVE SMOOTH",
"481 261 OFFCURVE",
"440 320 OFFCURVE",
"299 358 CURVE SMOOTH",
"173 392 OFFCURVE",
"139 411 OFFCURVE",
"153 477 CURVE SMOOTH",
"169 555 OFFCURVE",
"237 584 OFFCURVE",
"346 584 CURVE SMOOTH",
"406 584 OFFCURVE",
"461 574 OFFCURVE",
"505 557 CURVE",
"520 629 LINE",
"488 641 OFFCURVE",
"422 654 OFFCURVE",
"348 654 CURVE SMOOTH",
"178 654 OFFCURVE",
"93 586 OFFCURVE",
"71 477 CURVE SMOOTH",
"53 386 OFFCURVE",
"94 334 OFFCURVE",
"225 298 CURVE SMOOTH",
"352 263 OFFCURVE",
"397 247 OFFCURVE",
"379 168 CURVE SMOOTH",
"360 86 OFFCURVE",
"298 60 OFFCURVE",
"184 60 CURVE SMOOTH",
"117 60 OFFCURVE",
"56 72 OFFCURVE",
"4 93 CURVE",
"-11 20 LINE",
"31 2 OFFCURVE",
"83 -7 OFFCURVE",
"147 -9 CURVE",
"104 -91 LINE",
"141 -91 LINE SMOOTH",
"197 -91 OFFCURVE",
"224 -98 OFFCURVE",
"215 -137 CURVE SMOOTH",
"207 -178 OFFCURVE",
"177 -190 OFFCURVE",
"115 -190 CURVE SMOOTH",
"93 -190 OFFCURVE",
"71 -187 OFFCURVE",
"54 -182 CURVE",
"43 -232 LINE",
"57 -236 OFFCURVE",
"89 -240 OFFCURVE",
"111 -240 CURVE SMOOTH"
);
}
);
width = 556;
}
);
leftKerningGroup = S;
note = Scedilla;
rightKerningGroup = S;
unicode = 015E;
},
{
glyphname = Scircumflex;
lastChange = "2015-10-24 19:57:31 +0000";
layers = (
{
layerId = "1336773A-60E9-4881-855D-D55F9632DBDF";
name = "Light Italic";
paths = (
{
closed = 1;
nodes = (
"350 -10 OFFCURVE",
"437 54 OFFCURVE",
"461 168 CURVE SMOOTH",
"481 261 OFFCURVE",
"440 320 OFFCURVE",
"299 358 CURVE SMOOTH",
"173 392 OFFCURVE",
"139 411 OFFCURVE",
"153 477 CURVE SMOOTH",
"169 555 OFFCURVE",
"237 584 OFFCURVE",
"346 584 CURVE SMOOTH",
"406 584 OFFCURVE",
"461 574 OFFCURVE",
"505 557 CURVE",
"520 629 LINE",
"488 641 OFFCURVE",
"422 654 OFFCURVE",
"348 654 CURVE SMOOTH",
"178 654 OFFCURVE",
"93 586 OFFCURVE",
"71 477 CURVE SMOOTH",
"53 386 OFFCURVE",
"94 334 OFFCURVE",
"225 298 CURVE SMOOTH",
"352 263 OFFCURVE",
"397 247 OFFCURVE",
"379 168 CURVE SMOOTH",
"360 86 OFFCURVE",
"298 60 OFFCURVE",
"184 60 CURVE SMOOTH",
"117 60 OFFCURVE",
"56 72 OFFCURVE",
"4 93 CURVE",
"-11 20 LINE",
"38 0 OFFCURVE",
"99 -10 OFFCURVE",
"176 -10 CURVE SMOOTH"
);
},
{
closed = 1;
nodes = (
"273 688 LINE",
"371 790 LINE",
"427 688 LINE",
"495 688 LINE",
"411 836 LINE",
"345 836 LINE",
"200 688 LINE"
);
}
);
width = 556;
}
);
leftKerningGroup = S;
note = Scircumflex;
rightKerningGroup = S;
unicode = 015C;
},
{
glyphname = Scommaaccent;
lastChange = "2015-10-24 19:57:31 +0000";
layers = (
{
layerId = "1336773A-60E9-4881-855D-D55F9632DBDF";
name = "Light Italic";
paths = (
{
closed = 1;
nodes = (
"350 -10 OFFCURVE",
"437 54 OFFCURVE",
"461 168 CURVE SMOOTH",
"481 261 OFFCURVE",
"440 320 OFFCURVE",
"299 358 CURVE SMOOTH",
"173 392 OFFCURVE",
"139 411 OFFCURVE",
"153 477 CURVE SMOOTH",
"169 555 OFFCURVE",
"237 584 OFFCURVE",
"346 584 CURVE SMOOTH",
"406 584 OFFCURVE",
"461 574 OFFCURVE",
"505 557 CURVE",
"520 629 LINE",
"488 641 OFFCURVE",
"422 654 OFFCURVE",
"348 654 CURVE SMOOTH",
"178 654 OFFCURVE",
"93 586 OFFCURVE",
"71 477 CURVE SMOOTH",
"53 386 OFFCURVE",
"94 334 OFFCURVE",
"225 298 CURVE SMOOTH",
"352 263 OFFCURVE",
"397 247 OFFCURVE",
"379 168 CURVE SMOOTH",
"360 86 OFFCURVE",
"298 60 OFFCURVE",
"184 60 CURVE SMOOTH",
"117 60 OFFCURVE",
"56 72 OFFCURVE",
"4 93 CURVE",
"-11 20 LINE",
"38 0 OFFCURVE",
"99 -10 OFFCURVE",
"176 -10 CURVE SMOOTH"
);
},
{
closed = 1;
nodes = (
"141 -218 LINE",
"215 -52 LINE",
"141 -52 LINE",
"78 -218 LINE"
);
}
);
width = 556;
}
);
leftKerningGroup = S;
note = Scommaaccent;
rightKerningGroup = S;
unicode = 0218;
},
{
glyphname = Sdotaccent;
lastChange = "2015-10-24 19:57:31 +0000";
layers = (
{
layerId = "1336773A-60E9-4881-855D-D55F9632DBDF";
name = "Light Italic";
paths = (
{
closed = 1;
nodes = (
"350 -10 OFFCURVE",
"437 54 OFFCURVE",
"461 168 CURVE SMOOTH",
"481 261 OFFCURVE",
"440 320 OFFCURVE",
"299 358 CURVE SMOOTH",
"173 392 OFFCURVE",
"139 411 OFFCURVE",
"153 477 CURVE SMOOTH",
"169 555 OFFCURVE",
"237 584 OFFCURVE",
"346 584 CURVE SMOOTH",
"406 584 OFFCURVE",
"461 574 OFFCURVE",
"505 557 CURVE",
"520 629 LINE",
"488 641 OFFCURVE",
"422 654 OFFCURVE",
"348 654 CURVE SMOOTH",
"178 654 OFFCURVE",
"93 586 OFFCURVE",
"71 477 CURVE SMOOTH",
"53 386 OFFCURVE",
"94 334 OFFCURVE",
"225 298 CURVE SMOOTH",
"352 263 OFFCURVE",
"397 247 OFFCURVE",
"379 168 CURVE SMOOTH",
"360 86 OFFCURVE",
"298 60 OFFCURVE",
"184 60 CURVE SMOOTH",
"117 60 OFFCURVE",
"56 72 OFFCURVE",
"4 93 CURVE",
"-11 20 LINE",
"38 0 OFFCURVE",
"99 -10 OFFCURVE",
"176 -10 CURVE SMOOTH"
);
},
{
closed = 1;
nodes = (
"390 710 LINE",
"406 787 LINE",
"326 787 LINE",
"310 710 LINE"
);
}
);
width = 556;
}
);
leftKerningGroup = S;
note = Sdotaccent;
rightKerningGroup = S;
unicode = 1E60;
},
{
glyphname = Sdotbelow;
lastChange = "2015-10-24 19:57:30 +0000";
layers = (
{
layerId = "1336773A-60E9-4881-855D-D55F9632DBDF";
name = "Light Italic";
paths = (
{
closed = 1;
nodes = (
"350 -10 OFFCURVE",
"437 54 OFFCURVE",
"461 168 CURVE SMOOTH",
"481 261 OFFCURVE",
"440 320 OFFCURVE",
"299 358 CURVE SMOOTH",
"173 392 OFFCURVE",
"139 411 OFFCURVE",
"153 477 CURVE SMOOTH",
"169 555 OFFCURVE",
"237 584 OFFCURVE",
"346 584 CURVE SMOOTH",
"406 584 OFFCURVE",
"461 574 OFFCURVE",
"505 557 CURVE",
"520 629 LINE",
"488 641 OFFCURVE",
"422 654 OFFCURVE",
"348 654 CURVE SMOOTH",
"178 654 OFFCURVE",
"93 586 OFFCURVE",
"71 477 CURVE SMOOTH",
"53 386 OFFCURVE",
"94 334 OFFCURVE",
"225 298 CURVE SMOOTH",
"352 263 OFFCURVE",
"397 247 OFFCURVE",
"379 168 CURVE SMOOTH",
"360 86 OFFCURVE",
"298 60 OFFCURVE",
"184 60 CURVE SMOOTH",
"117 60 OFFCURVE",
"56 72 OFFCURVE",
"4 93 CURVE",
"-11 20 LINE",
"38 0 OFFCURVE",
"99 -10 OFFCURVE",
"176 -10 CURVE SMOOTH"
);
},
{
closed = 1;
nodes = (
"190 -164 LINE",
"206 -87 LINE",
"126 -87 LINE",
"110 -164 LINE"
);
}
);
width = 556;
}
);
leftKerningGroup = S;
note = Sdotbelow;
rightKerningGroup = S;
unicode = 1E62;
},
{
glyphname = Germandbls;
lastChange = "2015-10-24 19:57:30 +0000";
layers = (
{
layerId = "1336773A-60E9-4881-855D-D55F9632DBDF";
name = "Light Italic";
paths = (
{
closed = 1;
nodes = (
"427 -10 OFFCURVE",
"507 63 OFFCURVE",
"531 181 CURVE SMOOTH",
"549 271 OFFCURVE",
"500 343 OFFCURVE",
"400 343 CURVE SMOOTH",
"353 343 LINE",
"560 455 LINE",
"584 566 OFFCURVE",
"523 654 OFFCURVE",
"368 654 CURVE SMOOTH",
"196 654 OFFCURVE",
"107 576 OFFCURVE",
"77 435 CURVE SMOOTH",
"-15 0 LINE",
"67 0 LINE",
"159 436 LINE SMOOTH",
"181 538 OFFCURVE",
"233 584 OFFCURVE",
"353 584 CURVE SMOOTH",
"467 584 OFFCURVE",
"500 540 OFFCURVE",
"488 480 CURVE",
"270 360 LINE",
"254 283 LINE",
"352 283 LINE SMOOTH",
"447 283 OFFCURVE",
"465 256 OFFCURVE",
"449 182 CURVE SMOOTH",
"432 100 OFFCURVE",
"383 60 OFFCURVE",
"297 60 CURVE SMOOTH",
"252 60 OFFCURVE",
"205 66 OFFCURVE",
"171 82 CURVE",
"156 12 LINE",
"193 -3 OFFCURVE",
"242 -10 OFFCURVE",
"295 -10 CURVE SMOOTH"
);
}
);
width = 623;
}
);
note = uni1E9E;
unicode = 1E9E;
},
{
glyphname = Schwa;
lastChange = "2015-10-24 19:57:31 +0000";
layers = (
{
layerId = "1336773A-60E9-4881-855D-D55F9632DBDF";
name = "Light Italic";
paths = (
{
closed = 1;
nodes = (
"462 -10 OFFCURVE",
"564 114 OFFCURVE",
"606 315 CURVE SMOOTH",
"654 541 OFFCURVE",
"577 654 OFFCURVE",
"349 654 CURVE SMOOTH",
"278 654 OFFCURVE",
"200 639 OFFCURVE",
"141 617 CURVE",
"127 551 LINE",
"186 574 OFFCURVE",
"258 588 OFFCURVE",
"320 588 CURVE SMOOTH",
"534 588 OFFCURVE",
"567 517 OFFCURVE",
"541 359 CURVE",
"46 359 LINE",
"23 253 LINE SMOOTH",
"-9 100 OFFCURVE",
"52 -10 OFFCURVE",
"238 -10 CURVE SMOOTH"
);
},
{
closed = 1;
nodes = (
"102 56 OFFCURVE",
"68 119 OFFCURVE",
"94 240 CURVE SMOOTH",
"106 300 LINE",
"528 300 LINE",
"494 138 OFFCURVE",
"407 56 OFFCURVE",
"252 56 CURVE SMOOTH"
);
}
);
width = 670;
}
);
note = uni018F;
unicode = 018F;
},
{
glyphname = T;
lastChange = "2015-10-24 19:57:30 +0000";
layers = (
{
layerId = "1336773A-60E9-4881-855D-D55F9632DBDF";
name = "Light Italic";
paths = (
{
closed = 1;
nodes = (
"246 0 LINE",
"369 579 LINE",
"583 579 LINE",
"596 644 LINE",
"86 644 LINE",
"73 579 LINE",
"287 579 LINE",
"164 0 LINE"
);
}
);
width = 570;
}
);
leftKerningGroup = T;
note = T;
rightKerningGroup = T;
unicode = 0054;
},
{
glyphname = Tbar;
lastChange = "2015-10-24 19:57:30 +0000";
layers = (
{
layerId = "1336773A-60E9-4881-855D-D55F9632DBDF";
name = "Light Italic";
paths = (
{
closed = 1;
nodes = (
"246 0 LINE",
"314 320 LINE",
"456 320 LINE",
"469 382 LINE",
"327 382 LINE",
"369 579 LINE",
"583 579 LINE",
"596 644 LINE",
"86 644 LINE",
"73 579 LINE",
"287 579 LINE",
"245 382 LINE",
"107 382 LINE",
"94 320 LINE",
"232 320 LINE",
"164 0 LINE"
);
}
);
width = 570;
}
);
leftKerningGroup = T;
note = Tbar;
rightKerningGroup = T;
unicode = 0166;
},
{
glyphname = Tcaron;
lastChange = "2015-10-24 19:57:30 +0000";
layers = (
{
layerId = "1336773A-60E9-4881-855D-D55F9632DBDF";
name = "Light Italic";
paths = (
{
closed = 1;
nodes = (
"246 0 LINE",
"369 579 LINE",
"583 579 LINE",
"596 644 LINE",
"86 644 LINE",
"73 579 LINE",
"287 579 LINE",
"164 0 LINE"
);
},
{
closed = 1;
nodes = (
"384 688 LINE",
"530 836 LINE",
"456 836 LINE",
"357 734 LINE",
"302 836 LINE",
"235 836 LINE",
"318 688 LINE"
);
}
);
width = 570;
}
);
leftKerningGroup = T;
note = Tcaron;
rightKerningGroup = T;
unicode = 0164;
},
{
glyphname = Tcedilla;
lastChange = "2015-10-24 19:57:30 +0000";
layers = (
{
layerId = "1336773A-60E9-4881-855D-D55F9632DBDF";
name = "Light Italic";
paths = (
{
closed = 1;
nodes = (
"232 -240 OFFCURVE",
"284 -203 OFFCURVE",
"298 -138 CURVE SMOOTH",
"310 -81 OFFCURVE",
"279 -48 OFFCURVE",
"207 -48 CURVE",
"233 0 LINE",
"246 0 LINE",
"369 579 LINE",
"583 579 LINE",
"596 644 LINE",
"86 644 LINE",
"73 579 LINE",
"287 579 LINE",
"164 0 LINE",
"175 0 LINE",
"127 -91 LINE",
"164 -91 LINE SMOOTH",
"220 -91 OFFCURVE",
"247 -98 OFFCURVE",
"238 -137 CURVE SMOOTH",
"230 -178 OFFCURVE",
"200 -190 OFFCURVE",
"138 -190 CURVE SMOOTH",
"116 -190 OFFCURVE",
"94 -187 OFFCURVE",
"77 -182 CURVE",
"66 -232 LINE",
"80 -236 OFFCURVE",
"112 -240 OFFCURVE",
"134 -240 CURVE SMOOTH"
);
}
);
width = 570;
}
);
leftKerningGroup = T;
note = Tcedilla;
rightKerningGroup = T;
unicode = 0162;
},
{
glyphname = Tcommaaccent;
lastChange = "2015-10-24 19:57:30 +0000";
layers = (
{
layerId = "1336773A-60E9-4881-855D-D55F9632DBDF";
name = "Light Italic";
paths = (
{
closed = 1;
nodes = (
"246 0 LINE",
"369 579 LINE",
"583 579 LINE",
"596 644 LINE",
"86 644 LINE",
"73 579 LINE",
"287 579 LINE",
"164 0 LINE"
);
},
{
closed = 1;
nodes = (
"154 -219 LINE",
"234 -42 LINE",
"160 -42 LINE",
"94 -219 LINE"
);
}
);
width = 570;
}
);
leftKerningGroup = T;
note = Tcommaaccent;
rightKerningGroup = T;
unicode = 021A;
},
{
glyphname = Tdotbelow;
lastChange = "2015-10-24 19:57:31 +0000";
layers = (
{
layerId = "1336773A-60E9-4881-855D-D55F9632DBDF";
name = "Light Italic";
paths = (
{
closed = 1;
nodes = (
"246 0 LINE",
"369 579 LINE",
"583 579 LINE",
"596 644 LINE",
"86 644 LINE",
"73 579 LINE",
"287 579 LINE",
"164 0 LINE"
);
},
{
closed = 1;
nodes = (
"212 -159 LINE",
"228 -82 LINE",
"148 -82 LINE",
"132 -159 LINE"
);
}
);
width = 570;
}
);
leftKerningGroup = T;
note = Tdotbelow;
rightKerningGroup = T;
unicode = 1E6C;
},
{
glyphname = Tlinebelow;
lastChange = "2015-10-24 19:57:31 +0000";
layers = (
{
layerId = "1336773A-60E9-4881-855D-D55F9632DBDF";
name = "Light Italic";
paths = (
{
closed = 1;
nodes = (
"246 0 LINE",
"369 579 LINE",
"583 579 LINE",
"596 644 LINE",
"86 644 LINE",
"73 579 LINE",
"287 579 LINE",
"164 0 LINE"
);
},
{
closed = 1;
nodes = (
"322 -125 LINE",
"334 -66 LINE",
"47 -66 LINE",
"35 -125 LINE"
);
}
);
width = 570;
}
);
leftKerningGroup = T;
note = Tlinebelow;
rightKerningGroup = T;
unicode = 1E6E;
},
{
glyphname = U;
lastChange = "2015-10-24 19:57:30 +0000";
layers = (
{
layerId = "1336773A-60E9-4881-855D-D55F9632DBDF";
name = "Light Italic";
paths = (
{
closed = 1;
nodes = (
"445 -10 OFFCURVE",
"541 70 OFFCURVE",
"576 236 CURVE SMOOTH",
"662 644 LINE",
"580 644 LINE",
"493 235 LINE SMOOTH",
"466 109 OFFCURVE",
"395 60 OFFCURVE",
"268 60 CURVE SMOOTH",
"137 60 OFFCURVE",
"89 106 OFFCURVE",
"116 235 CURVE SMOOTH",
"203 644 LINE",
"121 644 LINE",
"35 236 LINE SMOOTH",
"2 82 OFFCURVE",
"80 -10 OFFCURVE",
"253 -10 CURVE SMOOTH"
);
}
);
width = 671;
}
);
leftKerningGroup = U;
note = U;
rightKerningGroup = U;
unicode = 0055;
},
{
glyphname = Uacute;
lastChange = "2015-10-24 19:57:31 +0000";
layers = (
{
layerId = "1336773A-60E9-4881-855D-D55F9632DBDF";
name = "Light Italic";
paths = (
{
closed = 1;
nodes = (
"445 -10 OFFCURVE",
"541 70 OFFCURVE",
"576 236 CURVE SMOOTH",
"662 644 LINE",
"580 644 LINE",
"493 235 LINE SMOOTH",
"466 109 OFFCURVE",
"395 60 OFFCURVE",
"268 60 CURVE SMOOTH",
"137 60 OFFCURVE",
"89 106 OFFCURVE",
"116 235 CURVE SMOOTH",
"203 644 LINE",
"121 644 LINE",
"35 236 LINE SMOOTH",
"2 82 OFFCURVE",
"80 -10 OFFCURVE",
"253 -10 CURVE SMOOTH"
);
},
{
closed = 1;
nodes = (
"427 688 LINE",
"542 856 LINE",
"468 856 LINE",
"361 688 LINE"
);
}
);
width = 671;
}
);
leftKerningGroup = U;
note = Uacute;
rightKerningGroup = U;
unicode = 00DA;
},
{
glyphname = Ubreve;
lastChange = "2015-10-24 19:57:30 +0000";
layers = (
{
layerId = "1336773A-60E9-4881-855D-D55F9632DBDF";
name = "Light Italic";
paths = (
{
closed = 1;
nodes = (
"445 -10 OFFCURVE",
"541 70 OFFCURVE",
"576 236 CURVE SMOOTH",
"662 644 LINE",
"580 644 LINE",
"493 235 LINE SMOOTH",
"466 109 OFFCURVE",
"395 60 OFFCURVE",
"268 60 CURVE SMOOTH",
"137 60 OFFCURVE",
"89 106 OFFCURVE",
"116 235 CURVE SMOOTH",
"203 644 LINE",
"121 644 LINE",
"35 236 LINE SMOOTH",
"2 82 OFFCURVE",
"80 -10 OFFCURVE",
"253 -10 CURVE SMOOTH"
);
},
{
closed = 1;
nodes = (
"473 688 OFFCURVE",
"519 739 OFFCURVE",
"535 814 CURVE",
"474 814 LINE",
"463 763 OFFCURVE",
"433 740 OFFCURVE",
"389 740 CURVE SMOOTH",
"342 740 OFFCURVE",
"325 763 OFFCURVE",
"336 814 CURVE",
"281 814 LINE",
"266 739 OFFCURVE",
"297 688 OFFCURVE",
"380 688 CURVE SMOOTH"
);
}
);
width = 671;
}
);
leftKerningGroup = U;
note = Ubreve;
rightKerningGroup = U;
unicode = 016C;
},
{
glyphname = Ucaron;
lastChange = "2015-10-24 19:57:30 +0000";
layers = (
{
layerId = "1336773A-60E9-4881-855D-D55F9632DBDF";
name = "Light Italic";
paths = (
{
closed = 1;
nodes = (
"445 -10 OFFCURVE",
"541 70 OFFCURVE",
"576 236 CURVE SMOOTH",
"662 644 LINE",
"580 644 LINE",
"493 235 LINE SMOOTH",
"466 109 OFFCURVE",
"395 60 OFFCURVE",
"268 60 CURVE SMOOTH",
"137 60 OFFCURVE",
"89 106 OFFCURVE",
"116 235 CURVE SMOOTH",
"203 644 LINE",
"121 644 LINE",
"35 236 LINE SMOOTH",
"2 82 OFFCURVE",
"80 -10 OFFCURVE",
"253 -10 CURVE SMOOTH"
);
},
{
closed = 1;
nodes = (
"434 688 LINE",
"580 836 LINE",
"506 836 LINE",
"407 734 LINE",
"352 836 LINE",
"285 836 LINE",
"368 688 LINE"
);
}
);
width = 671;
}
);
leftKerningGroup = U;
note = Ucaron;
rightKerningGroup = U;
unicode = 01D3;
},
{
glyphname = Ucircumflex;
lastChange = "2015-10-24 19:57:30 +0000";
layers = (
{
layerId = "1336773A-60E9-4881-855D-D55F9632DBDF";
name = "Light Italic";
paths = (
{
closed = 1;
nodes = (
"445 -10 OFFCURVE",
"541 70 OFFCURVE",
"576 236 CURVE SMOOTH",
"662 644 LINE",
"580 644 LINE",
"493 235 LINE SMOOTH",
"466 109 OFFCURVE",
"395 60 OFFCURVE",
"268 60 CURVE SMOOTH",
"137 60 OFFCURVE",
"89 106 OFFCURVE",
"116 235 CURVE SMOOTH",
"203 644 LINE",
"121 644 LINE",
"35 236 LINE SMOOTH",
"2 82 OFFCURVE",
"80 -10 OFFCURVE",
"253 -10 CURVE SMOOTH"
);
},
{
closed = 1;
nodes = (
"327 688 LINE",
"425 790 LINE",
"481 688 LINE",
"549 688 LINE",
"465 836 LINE",
"399 836 LINE",
"254 688 LINE"
);
}
);
width = 671;
}
);
leftKerningGroup = U;
note = Ucircumflex;
rightKerningGroup = U;
unicode = 00DB;
},
{
glyphname = Udieresis;
lastChange = "2015-10-24 19:57:31 +0000";
layers = (
{
layerId = "1336773A-60E9-4881-855D-D55F9632DBDF";
name = "Light Italic";
paths = (
{
closed = 1;
nodes = (
"445 -10 OFFCURVE",
"541 70 OFFCURVE",
"576 236 CURVE SMOOTH",
"662 644 LINE",
"580 644 LINE",
"493 235 LINE SMOOTH",
"466 109 OFFCURVE",
"395 60 OFFCURVE",
"268 60 CURVE SMOOTH",
"137 60 OFFCURVE",
"89 106 OFFCURVE",
"116 235 CURVE SMOOTH",
"203 644 LINE",
"121 644 LINE",
"35 236 LINE SMOOTH",
"2 82 OFFCURVE",
"80 -10 OFFCURVE",
"253 -10 CURVE SMOOTH"
);
},
{
closed = 1;
nodes = (
"344 711 LINE",
"360 786 LINE",
"283 786 LINE",
"267 711 LINE"
);
},
{
closed = 1;
nodes = (
"520 711 LINE",
"536 786 LINE",
"458 786 LINE",
"442 711 LINE"
);
}
);
width = 671;
}
);
leftKerningGroup = U;
note = Udieresis;
rightKerningGroup = U;
unicode = 00DC;
},
{
glyphname = Udieresisacute;
lastChange = "2015-10-24 19:57:31 +0000";
layers = (
{
layerId = "1336773A-60E9-4881-855D-D55F9632DBDF";
name = "Light Italic";
paths = (
{
closed = 1;
nodes = (
"445 -10 OFFCURVE",
"541 70 OFFCURVE",
"576 236 CURVE SMOOTH",
"662 644 LINE",
"580 644 LINE",
"493 235 LINE SMOOTH",
"466 109 OFFCURVE",
"395 60 OFFCURVE",
"268 60 CURVE SMOOTH",
"137 60 OFFCURVE",
"89 106 OFFCURVE",
"116 235 CURVE SMOOTH",
"203 644 LINE",
"121 644 LINE",
"35 236 LINE SMOOTH",
"2 82 OFFCURVE",
"80 -10 OFFCURVE",
"253 -10 CURVE SMOOTH"
);
},
{
closed = 1;
nodes = (
"342 688 LINE",
"358 763 LINE",
"281 763 LINE",
"265 688 LINE"
);
},
{
closed = 1;
nodes = (
"538 688 LINE",
"554 763 LINE",
"476 763 LINE",
"460 688 LINE"
);
},
{
closed = 1;
nodes = (
"445 771 LINE",
"540 896 LINE",
"475 896 LINE",
"386 771 LINE"
);
}
);
width = 671;
}
);
leftKerningGroup = U;
note = Udieresisacute;
rightKerningGroup = U;
unicode = 01D7;
},
{
glyphname = Udieresiscaron;
lastChange = "2015-10-24 19:57:30 +0000";
layers = (
{
layerId = "1336773A-60E9-4881-855D-D55F9632DBDF";
name = "Light Italic";
paths = (
{
closed = 1;
nodes = (
"445 -10 OFFCURVE",
"541 70 OFFCURVE",
"576 236 CURVE SMOOTH",
"662 644 LINE",
"580 644 LINE",
"493 235 LINE SMOOTH",
"466 109 OFFCURVE",
"395 60 OFFCURVE",
"268 60 CURVE SMOOTH",
"137 60 OFFCURVE",
"89 106 OFFCURVE",
"116 235 CURVE SMOOTH",
"203 644 LINE",
"121 644 LINE",
"35 236 LINE SMOOTH",
"2 82 OFFCURVE",
"80 -10 OFFCURVE",
"253 -10 CURVE SMOOTH"
);
},
{
closed = 1;
nodes = (
"338 688 LINE",
"354 763 LINE",
"276 763 LINE",
"260 688 LINE"
);
},
{
closed = 1;
nodes = (
"533 688 LINE",
"549 763 LINE",
"472 763 LINE",
"456 688 LINE"
);
},
{
closed = 1;
nodes = (
"451 771 LINE",
"586 889 LINE",
"514 889 LINE",
"423 806 LINE",
"366 889 LINE",
"299 889 LINE",
"385 771 LINE"
);
}
);
width = 671;
}
);
leftKerningGroup = U;
note = Udieresiscaron;
rightKerningGroup = U;
unicode = 01D9;
},
{
glyphname = Udieresisgrave;
lastChange = "2015-10-24 19:57:30 +0000";
layers = (
{
layerId = "1336773A-60E9-4881-855D-D55F9632DBDF";
name = "Light Italic";
paths = (
{
closed = 1;
nodes = (
"445 -10 OFFCURVE",
"541 70 OFFCURVE",
"576 236 CURVE SMOOTH",
"662 644 LINE",
"580 644 LINE",
"493 235 LINE SMOOTH",
"466 109 OFFCURVE",
"395 60 OFFCURVE",
"268 60 CURVE SMOOTH",
"137 60 OFFCURVE",
"89 106 OFFCURVE",
"116 235 CURVE SMOOTH",
"203 644 LINE",
"121 644 LINE",
"35 236 LINE SMOOTH",
"2 82 OFFCURVE",
"80 -10 OFFCURVE",
"253 -10 CURVE SMOOTH"
);
},
{
closed = 1;
nodes = (
"341 688 LINE",
"357 763 LINE",
"280 763 LINE",
"264 688 LINE"
);
},
{
closed = 1;
nodes = (
"537 688 LINE",
"553 763 LINE",
"475 763 LINE",
"459 688 LINE"
);
},
{
closed = 1;
nodes = (
"449 771 LINE",
"414 896 LINE",
"349 896 LINE",
"390 771 LINE"
);
}
);
width = 671;
}
);
leftKerningGroup = U;
note = Udieresisgrave;
rightKerningGroup = U;
unicode = 01DB;
},
{
glyphname = Udieresismacron;
lastChange = "2015-10-24 19:57:31 +0000";
layers = (
{
layerId = "1336773A-60E9-4881-855D-D55F9632DBDF";
name = "Light Italic";
paths = (
{
closed = 1;
nodes = (
"445 -10 OFFCURVE",
"541 70 OFFCURVE",
"576 236 CURVE SMOOTH",
"662 644 LINE",
"580 644 LINE",
"493 235 LINE SMOOTH",
"466 109 OFFCURVE",
"395 60 OFFCURVE",
"268 60 CURVE SMOOTH",
"137 60 OFFCURVE",
"89 106 OFFCURVE",
"116 235 CURVE SMOOTH",
"203 644 LINE",
"121 644 LINE",
"35 236 LINE SMOOTH",
"2 82 OFFCURVE",
"80 -10 OFFCURVE",
"253 -10 CURVE SMOOTH"
);
},
{
closed = 1;
nodes = (
"355 705 LINE",
"371 780 LINE",
"294 780 LINE",
"278 705 LINE"
);
},
{
closed = 1;
nodes = (
"531 705 LINE",
"547 780 LINE",
"469 780 LINE",
"453 705 LINE"
);
},
{
closed = 1;
nodes = (
"579 846 LINE",
"591 905 LINE",
"304 905 LINE",
"292 846 LINE"
);
}
);
width = 671;
}
);
leftKerningGroup = U;
note = Udieresismacron;
rightKerningGroup = U;
unicode = 01D5;
},
{
glyphname = Udotbelow;
lastChange = "2015-10-24 19:57:31 +0000";
layers = (
{
layerId = "1336773A-60E9-4881-855D-D55F9632DBDF";
name = "Light Italic";
paths = (
{
closed = 1;
nodes = (
"445 -10 OFFCURVE",
"541 70 OFFCURVE",
"576 236 CURVE SMOOTH",
"662 644 LINE",
"580 644 LINE",
"493 235 LINE SMOOTH",
"466 109 OFFCURVE",
"395 60 OFFCURVE",
"268 60 CURVE SMOOTH",
"137 60 OFFCURVE",
"89 106 OFFCURVE",
"116 235 CURVE SMOOTH",
"203 644 LINE",
"121 644 LINE",
"35 236 LINE SMOOTH",
"2 82 OFFCURVE",
"80 -10 OFFCURVE",
"253 -10 CURVE SMOOTH"
);
},
{
closed = 1;
nodes = (
"261 -164 LINE",
"277 -87 LINE",
"197 -87 LINE",
"181 -164 LINE"
);
}
);
width = 671;
}
);
leftKerningGroup = U;
note = Udotbelow;
rightKerningGroup = U;
unicode = 1EE4;
},
{
glyphname = Ugrave;
lastChange = "2015-10-24 19:57:30 +0000";
layers = (
{
layerId = "1336773A-60E9-4881-855D-D55F9632DBDF";
name = "Light Italic";
paths = (
{
closed = 1;
nodes = (
"445 -10 OFFCURVE",
"541 70 OFFCURVE",
"576 236 CURVE SMOOTH",
"662 644 LINE",
"580 644 LINE",
"493 235 LINE SMOOTH",
"466 109 OFFCURVE",
"395 60 OFFCURVE",
"268 60 CURVE SMOOTH",
"137 60 OFFCURVE",
"89 106 OFFCURVE",
"116 235 CURVE SMOOTH",
"203 644 LINE",
"121 644 LINE",
"35 236 LINE SMOOTH",
"2 82 OFFCURVE",
"80 -10 OFFCURVE",
"253 -10 CURVE SMOOTH"
);
},
{
closed = 1;
nodes = (
"451 688 LINE",
"416 856 LINE",
"342 856 LINE",
"385 688 LINE"
);
}
);
width = 671;
}
);
leftKerningGroup = U;
note = Ugrave;
rightKerningGroup = U;
unicode = 00D9;
},
{
glyphname = Uhookabove;
lastChange = "2015-10-24 19:57:30 +0000";
layers = (
{
layerId = "1336773A-60E9-4881-855D-D55F9632DBDF";
name = "Light Italic";
paths = (
{
closed = 1;
nodes = (
"445 -10 OFFCURVE",
"541 70 OFFCURVE",
"576 236 CURVE SMOOTH",
"662 644 LINE",
"580 644 LINE",
"493 235 LINE SMOOTH",
"466 109 OFFCURVE",
"395 60 OFFCURVE",
"268 60 CURVE SMOOTH",
"137 60 OFFCURVE",
"89 106 OFFCURVE",
"116 235 CURVE SMOOTH",
"203 644 LINE",
"121 644 LINE",
"35 236 LINE SMOOTH",
"2 82 OFFCURVE",
"80 -10 OFFCURVE",
"253 -10 CURVE SMOOTH"
);
},
{
closed = 1;
nodes = (
"431 688 LINE",
"441 736 LINE",
"510 745 OFFCURVE",
"538 775 OFFCURVE",
"550 829 CURVE SMOOTH",
"562 886 OFFCURVE",
"520 920 OFFCURVE",
"448 920 CURVE SMOOTH",
"419 920 OFFCURVE",
"382 915 OFFCURVE",
"360 907 CURVE",
"350 856 LINE",
"368 863 OFFCURVE",
"397 868 OFFCURVE",
"418 868 CURVE SMOOTH",
"477 868 OFFCURVE",
"494 856 OFFCURVE",
"487 823 CURVE SMOOTH",
"479 788 OFFCURVE",
"461 775 OFFCURVE",
"383 771 CURVE",
"365 688 LINE"
);
}
);
width = 671;
}
);
leftKerningGroup = U;
note = Uhookabove;
rightKerningGroup = U;
unicode = 1EE6;
},
{
glyphname = Uhorn;
lastChange = "2015-10-24 19:57:30 +0000";
layers = (
{
layerId = "1336773A-60E9-4881-855D-D55F9632DBDF";
name = "Light Italic";
paths = (
{
closed = 1;
nodes = (
"445 -10 OFFCURVE",
"541 70 OFFCURVE",
"576 236 CURVE SMOOTH",
"641 544 LINE",
"633 505 LINE",
"746 506 OFFCURVE",
"812 552 OFFCURVE",
"841 688 CURVE",
"770 688 LINE",
"751 598 OFFCURVE",
"724 570 OFFCURVE",
"646 569 CURVE",
"662 644 LINE",
"580 644 LINE",
"493 235 LINE SMOOTH",
"466 109 OFFCURVE",
"395 60 OFFCURVE",
"268 60 CURVE SMOOTH",
"137 60 OFFCURVE",
"89 106 OFFCURVE",
"116 235 CURVE SMOOTH",
"203 644 LINE",
"121 644 LINE",
"35 236 LINE SMOOTH",
"2 82 OFFCURVE",
"80 -10 OFFCURVE",
"253 -10 CURVE SMOOTH"
);
}
);
width = 805;
}
);
leftKerningGroup = U;
note = Uhorn;
rightKerningGroup = U;
unicode = 01AF;
},
{
glyphname = Uhornacute;
lastChange = "2015-10-24 19:57:31 +0000";
layers = (
{
layerId = "1336773A-60E9-4881-855D-D55F9632DBDF";
name = "Light Italic";
paths = (
{
closed = 1;
nodes = (
"445 -10 OFFCURVE",
"541 70 OFFCURVE",
"576 236 CURVE SMOOTH",
"641 544 LINE",
"633 505 LINE",
"746 506 OFFCURVE",
"812 552 OFFCURVE",
"841 688 CURVE",
"770 688 LINE",
"751 598 OFFCURVE",
"724 570 OFFCURVE",
"646 569 CURVE",
"662 644 LINE",
"580 644 LINE",
"493 235 LINE SMOOTH",
"466 109 OFFCURVE",
"395 60 OFFCURVE",
"268 60 CURVE SMOOTH",
"137 60 OFFCURVE",
"89 106 OFFCURVE",
"116 235 CURVE SMOOTH",
"203 644 LINE",
"121 644 LINE",
"35 236 LINE SMOOTH",
"2 82 OFFCURVE",
"80 -10 OFFCURVE",
"253 -10 CURVE SMOOTH"
);
},
{
closed = 1;
nodes = (
"442 688 LINE",
"557 856 LINE",
"483 856 LINE",
"376 688 LINE"
);
}
);
width = 805;
}
);
leftKerningGroup = U;
note = Uhornacute;
rightKerningGroup = U;
unicode = 1EE8;
},
{
glyphname = Uhorndotbelow;
lastChange = "2015-10-24 19:57:30 +0000";
layers = (
{
layerId = "1336773A-60E9-4881-855D-D55F9632DBDF";
name = "Light Italic";
paths = (
{
closed = 1;
nodes = (
"445 -10 OFFCURVE",
"541 70 OFFCURVE",
"576 236 CURVE SMOOTH",
"641 544 LINE",
"633 505 LINE",
"746 506 OFFCURVE",
"812 552 OFFCURVE",
"841 688 CURVE",
"770 688 LINE",
"751 598 OFFCURVE",
"724 570 OFFCURVE",
"646 569 CURVE",
"662 644 LINE",
"580 644 LINE",
"493 235 LINE SMOOTH",
"466 109 OFFCURVE",
"395 60 OFFCURVE",
"268 60 CURVE SMOOTH",
"137 60 OFFCURVE",
"89 106 OFFCURVE",
"116 235 CURVE SMOOTH",
"203 644 LINE",
"121 644 LINE",
"35 236 LINE SMOOTH",
"2 82 OFFCURVE",
"80 -10 OFFCURVE",
"253 -10 CURVE SMOOTH"
);
},
{
closed = 1;
nodes = (
"259 -164 LINE",
"275 -87 LINE",
"195 -87 LINE",
"179 -164 LINE"
);
}
);
width = 805;
}
);
leftKerningGroup = U;
note = Uhorndotbelow;
rightKerningGroup = U;
unicode = 1EF0;
},
{
glyphname = Uhorngrave;
lastChange = "2015-10-24 19:57:30 +0000";
layers = (
{
layerId = "1336773A-60E9-4881-855D-D55F9632DBDF";
name = "Light Italic";
paths = (
{
closed = 1;
nodes = (
"445 -10 OFFCURVE",
"541 70 OFFCURVE",
"576 236 CURVE SMOOTH",
"641 544 LINE",
"633 505 LINE",
"746 506 OFFCURVE",
"812 552 OFFCURVE",
"841 688 CURVE",
"770 688 LINE",
"751 598 OFFCURVE",
"724 570 OFFCURVE",
"646 569 CURVE",
"662 644 LINE",
"580 644 LINE",
"493 235 LINE SMOOTH",
"466 109 OFFCURVE",
"395 60 OFFCURVE",
"268 60 CURVE SMOOTH",
"137 60 OFFCURVE",
"89 106 OFFCURVE",
"116 235 CURVE SMOOTH",
"203 644 LINE",
"121 644 LINE",
"35 236 LINE SMOOTH",
"2 82 OFFCURVE",
"80 -10 OFFCURVE",
"253 -10 CURVE SMOOTH"
);
},
{
closed = 1;
nodes = (
"444 688 LINE",
"409 856 LINE",
"335 856 LINE",
"378 688 LINE"
);
}
);
width = 805;
}
);
leftKerningGroup = U;
note = Uhorngrave;
rightKerningGroup = U;
unicode = 1EEA;
},
{
glyphname = Uhornhookabove;
lastChange = "2015-10-24 19:57:30 +0000";
layers = (
{
layerId = "1336773A-60E9-4881-855D-D55F9632DBDF";
name = "Light Italic";
paths = (
{
closed = 1;
nodes = (
"445 -10 OFFCURVE",
"541 70 OFFCURVE",
"576 236 CURVE SMOOTH",
"641 544 LINE",
"633 505 LINE",
"746 506 OFFCURVE",
"812 552 OFFCURVE",
"841 688 CURVE",
"770 688 LINE",
"751 598 OFFCURVE",
"724 570 OFFCURVE",
"646 569 CURVE",
"662 644 LINE",
"580 644 LINE",
"493 235 LINE SMOOTH",
"466 109 OFFCURVE",
"395 60 OFFCURVE",
"268 60 CURVE SMOOTH",
"137 60 OFFCURVE",
"89 106 OFFCURVE",
"116 235 CURVE SMOOTH",
"203 644 LINE",
"121 644 LINE",
"35 236 LINE SMOOTH",
"2 82 OFFCURVE",
"80 -10 OFFCURVE",
"253 -10 CURVE SMOOTH"
);
},
{
closed = 1;
nodes = (
"440 688 LINE",
"450 736 LINE",
"519 745 OFFCURVE",
"547 775 OFFCURVE",
"559 829 CURVE SMOOTH",
"571 886 OFFCURVE",
"529 920 OFFCURVE",
"457 920 CURVE SMOOTH",
"428 920 OFFCURVE",
"391 915 OFFCURVE",
"369 907 CURVE",
"359 856 LINE",
"377 863 OFFCURVE",
"406 868 OFFCURVE",
"427 868 CURVE SMOOTH",
"486 868 OFFCURVE",
"503 856 OFFCURVE",
"496 823 CURVE SMOOTH",
"488 788 OFFCURVE",
"470 775 OFFCURVE",
"392 771 CURVE",
"374 688 LINE"
);
}
);
width = 805;
}
);
leftKerningGroup = U;
note = Uhornhookabove;
rightKerningGroup = U;
unicode = 1EEC;
},
{
glyphname = Uhorntilde;
lastChange = "2015-10-24 19:57:30 +0000";
layers = (
{
layerId = "1336773A-60E9-4881-855D-D55F9632DBDF";
name = "Light Italic";
paths = (
{
closed = 1;
nodes = (
"445 -10 OFFCURVE",
"541 70 OFFCURVE",
"576 236 CURVE SMOOTH",
"641 544 LINE",
"633 505 LINE",
"746 506 OFFCURVE",
"812 552 OFFCURVE",
"841 688 CURVE",
"770 688 LINE",
"751 598 OFFCURVE",
"724 570 OFFCURVE",
"646 569 CURVE",
"662 644 LINE",
"580 644 LINE",
"493 235 LINE SMOOTH",
"466 109 OFFCURVE",
"395 60 OFFCURVE",
"268 60 CURVE SMOOTH",
"137 60 OFFCURVE",
"89 106 OFFCURVE",
"116 235 CURVE SMOOTH",
"203 644 LINE",
"121 644 LINE",
"35 236 LINE SMOOTH",
"2 82 OFFCURVE",
"80 -10 OFFCURVE",
"253 -10 CURVE SMOOTH"
);
},
{
closed = 1;
nodes = (
"513 707 OFFCURVE",
"546 719 OFFCURVE",
"563 737 CURVE",
"576 801 LINE",
"553 776 OFFCURVE",
"526 765 OFFCURVE",
"492 765 CURVE SMOOTH",
"443 765 OFFCURVE",
"411 803 OFFCURVE",
"356 803 CURVE SMOOTH",
"325 803 OFFCURVE",
"286 791 OFFCURVE",
"266 773 CURVE",
"253 710 LINE",
"280 736 OFFCURVE",
"311 745 OFFCURVE",
"343 745 CURVE SMOOTH",
"386 745 OFFCURVE",
"427 707 OFFCURVE",
"479 707 CURVE SMOOTH"
);
}
);
width = 805;
}
);
leftKerningGroup = U;
note = Uhorntilde;
rightKerningGroup = U;
unicode = 1EEE;
},
{
glyphname = Uhungarumlaut;
lastChange = "2015-10-24 19:57:30 +0000";
layers = (
{
layerId = "1336773A-60E9-4881-855D-D55F9632DBDF";
name = "Light Italic";
paths = (
{
closed = 1;
nodes = (
"445 -10 OFFCURVE",
"541 70 OFFCURVE",
"576 236 CURVE SMOOTH",
"662 644 LINE",
"580 644 LINE",
"493 235 LINE SMOOTH",
"466 109 OFFCURVE",
"395 60 OFFCURVE",
"268 60 CURVE SMOOTH",
"137 60 OFFCURVE",
"89 106 OFFCURVE",
"116 235 CURVE SMOOTH",
"203 644 LINE",
"121 644 LINE",
"35 236 LINE SMOOTH",
"2 82 OFFCURVE",
"80 -10 OFFCURVE",
"253 -10 CURVE SMOOTH"
);
},
{
closed = 1;
nodes = (
"295 688 LINE",
"407 840 LINE",
"329 840 LINE",
"227 688 LINE"
);
},
{
closed = 1;
nodes = (
"500 688 LINE",
"613 840 LINE",
"535 840 LINE",
"432 688 LINE"
);
}
);
width = 671;
}
);
leftKerningGroup = U;
note = Uhungarumlaut;
rightKerningGroup = U;
unicode = 0170;
},
{
glyphname = Umacron;
lastChange = "2015-10-24 19:57:30 +0000";
layers = (
{
layerId = "1336773A-60E9-4881-855D-D55F9632DBDF";
name = "Light Italic";
paths = (
{
closed = 1;
nodes = (
"445 -10 OFFCURVE",
"541 70 OFFCURVE",
"576 236 CURVE SMOOTH",
"662 644 LINE",
"580 644 LINE",
"493 235 LINE SMOOTH",
"466 109 OFFCURVE",
"395 60 OFFCURVE",
"268 60 CURVE SMOOTH",
"137 60 OFFCURVE",
"89 106 OFFCURVE",
"116 235 CURVE SMOOTH",
"203 644 LINE",
"121 644 LINE",
"35 236 LINE SMOOTH",
"2 82 OFFCURVE",
"80 -10 OFFCURVE",
"253 -10 CURVE SMOOTH"
);
},
{
closed = 1;
nodes = (
"540 720 LINE",
"552 779 LINE",
"265 779 LINE",
"253 720 LINE"
);
}
);
width = 671;
}
);
leftKerningGroup = U;
note = Umacron;
rightKerningGroup = U;
unicode = 016A;
},
{
glyphname = Uogonek;
lastChange = "2015-10-24 19:57:30 +0000";
layers = (
{
layerId = "1336773A-60E9-4881-855D-D55F9632DBDF";
name = "Light Italic";
paths = (
{
closed = 1;
nodes = (
"243 -220 OFFCURVE",
"271 -216 OFFCURVE",
"288 -208 CURVE",
"300 -152 LINE",
"287 -159 OFFCURVE",
"265 -163 OFFCURVE",
"249 -163 CURVE SMOOTH",
"216 -163 OFFCURVE",
"201 -154 OFFCURVE",
"208 -120 CURVE SMOOTH",
"216 -80 OFFCURVE",
"245 -41 OFFCURVE",
"292 -8 CURVE",
"458 2 OFFCURVE",
"543 81 OFFCURVE",
"576 236 CURVE SMOOTH",
"662 644 LINE",
"580 644 LINE",
"493 235 LINE SMOOTH",
"466 109 OFFCURVE",
"395 60 OFFCURVE",
"268 60 CURVE SMOOTH",
"137 60 OFFCURVE",
"89 106 OFFCURVE",
"116 235 CURVE SMOOTH",
"203 644 LINE",
"121 644 LINE",
"35 236 LINE SMOOTH",
"4 90 OFFCURVE",
"72 0 OFFCURVE",
"226 -9 CURVE",
"183 -40 OFFCURVE",
"148 -85 OFFCURVE",
"138 -132 CURVE SMOOTH",
"125 -195 OFFCURVE",
"165 -220 OFFCURVE",
"219 -220 CURVE SMOOTH"
);
}
);
width = 671;
}
);
leftKerningGroup = U;
note = Uogonek;
rightKerningGroup = U;
unicode = 0172;
},
{
glyphname = Uring;
lastChange = "2015-10-24 19:57:31 +0000";
layers = (
{
layerId = "1336773A-60E9-4881-855D-D55F9632DBDF";
name = "Light Italic";
paths = (
{
closed = 1;
nodes = (
"445 -10 OFFCURVE",
"541 70 OFFCURVE",
"576 236 CURVE SMOOTH",
"662 644 LINE",
"580 644 LINE",
"493 235 LINE SMOOTH",
"466 109 OFFCURVE",
"395 60 OFFCURVE",
"268 60 CURVE SMOOTH",
"137 60 OFFCURVE",
"89 106 OFFCURVE",
"116 235 CURVE SMOOTH",
"203 644 LINE",
"121 644 LINE",
"35 236 LINE SMOOTH",
"2 82 OFFCURVE",
"80 -10 OFFCURVE",
"253 -10 CURVE SMOOTH"
);
},
{
closed = 1;
nodes = (
"460 688 OFFCURVE",
"509 735 OFFCURVE",
"522 795 CURVE SMOOTH",
"535 855 OFFCURVE",
"500 903 OFFCURVE",
"434 903 CURVE SMOOTH",
"363 903 OFFCURVE",
"315 855 OFFCURVE",
"302 795 CURVE SMOOTH",
"289 735 OFFCURVE",
"324 688 OFFCURVE",
"388 688 CURVE SMOOTH"
);
},
{
closed = 1;
nodes = (
"355 734 OFFCURVE",
"343 761 OFFCURVE",
"350 795 CURVE SMOOTH",
"357 829 OFFCURVE",
"387 856 OFFCURVE",
"424 856 CURVE SMOOTH",
"467 856 OFFCURVE",
"480 829 OFFCURVE",
"473 795 CURVE SMOOTH",
"466 761 OFFCURVE",
"437 734 OFFCURVE",
"398 734 CURVE SMOOTH"
);
}
);
width = 671;
}
);
leftKerningGroup = U;
note = Uring;
rightKerningGroup = U;
unicode = 016E;
},
{
glyphname = Utilde;
lastChange = "2015-10-24 19:57:30 +0000";
layers = (
{
layerId = "1336773A-60E9-4881-855D-D55F9632DBDF";
name = "Light Italic";
paths = (
{
closed = 1;
nodes = (
"445 -10 OFFCURVE",
"541 70 OFFCURVE",
"576 236 CURVE SMOOTH",
"662 644 LINE",
"580 644 LINE",
"493 235 LINE SMOOTH",
"466 109 OFFCURVE",
"395 60 OFFCURVE",
"268 60 CURVE SMOOTH",
"137 60 OFFCURVE",
"89 106 OFFCURVE",
"116 235 CURVE SMOOTH",
"203 644 LINE",
"121 644 LINE",
"35 236 LINE SMOOTH",
"2 82 OFFCURVE",
"80 -10 OFFCURVE",
"253 -10 CURVE SMOOTH"
);
},
{
closed = 1;
nodes = (
"503 708 OFFCURVE",
"536 720 OFFCURVE",
"553 738 CURVE",
"566 802 LINE",
"543 777 OFFCURVE",
"516 766 OFFCURVE",
"482 766 CURVE SMOOTH",
"433 766 OFFCURVE",
"401 804 OFFCURVE",
"346 804 CURVE SMOOTH",
"315 804 OFFCURVE",
"276 792 OFFCURVE",
"256 774 CURVE",
"243 711 LINE",
"270 737 OFFCURVE",
"301 746 OFFCURVE",
"333 746 CURVE SMOOTH",
"376 746 OFFCURVE",
"417 708 OFFCURVE",
"469 708 CURVE SMOOTH"
);
}
);
width = 671;
}
);
leftKerningGroup = U;
note = Utilde;
rightKerningGroup = U;
unicode = 0168;
},
{
glyphname = V;
lastChange = "2015-10-24 19:57:30 +0000";
layers = (
{
layerId = "1336773A-60E9-4881-855D-D55F9632DBDF";
name = "Light Italic";
paths = (
{
closed = 1;
nodes = (
"311 0 LINE",
"691 644 LINE",
"602 644 LINE",
"275 83 LINE",
"187 644 LINE",
"106 644 LINE",
"215 0 LINE"
);
}
);
width = 685;
}
);
note = V;
unicode = 0056;
},
{
glyphname = W;
lastChange = "2015-10-24 19:57:30 +0000";
layers = (
{
layerId = "1336773A-60E9-4881-855D-D55F9632DBDF";
name = "Light Italic";
paths = (
{
closed = 1;
nodes = (
"210 0 LINE",
"461 490 LINE",
"497 0 LINE",
"582 0 LINE",
"867 644 LINE",
"787 644 LINE",
"552 114 LINE",
"514 644 LINE",
"447 644 LINE",
"432 573 LINE",
"196 114 LINE",
"187 644 LINE",
"106 644 LINE",
"120 0 LINE"
);
}
);
width = 861;
}
);
leftKerningGroup = W;
note = W;
rightKerningGroup = W;
unicode = 0057;
},
{
glyphname = Wacute;
lastChange = "2015-10-24 19:57:31 +0000";
layers = (
{
layerId = "1336773A-60E9-4881-855D-D55F9632DBDF";
name = "Light Italic";
paths = (
{
closed = 1;
nodes = (
"210 0 LINE",
"461 490 LINE",
"497 0 LINE",
"582 0 LINE",
"867 644 LINE",
"787 644 LINE",
"552 114 LINE",
"514 644 LINE",
"447 644 LINE",
"432 573 LINE",
"196 114 LINE",
"187 644 LINE",
"106 644 LINE",
"120 0 LINE"
);
},
{
closed = 1;
nodes = (
"531 688 LINE",
"646 856 LINE",
"572 856 LINE",
"465 688 LINE"
);
}
);
width = 861;
}
);
leftKerningGroup = W;
note = Wacute;
rightKerningGroup = W;
unicode = 1E82;
},
{
glyphname = Wcircumflex;
lastChange = "2015-10-24 19:57:30 +0000";
layers = (
{
layerId = "1336773A-60E9-4881-855D-D55F9632DBDF";
name = "Light Italic";
paths = (
{
closed = 1;
nodes = (
"210 0 LINE",
"461 490 LINE",
"497 0 LINE",
"582 0 LINE",
"867 644 LINE",
"787 644 LINE",
"552 114 LINE",
"514 644 LINE",
"447 644 LINE",
"432 573 LINE",
"196 114 LINE",
"187 644 LINE",
"106 644 LINE",
"120 0 LINE"
);
},
{
closed = 1;
nodes = (
"427 688 LINE",
"525 790 LINE",
"581 688 LINE",
"649 688 LINE",
"565 836 LINE",
"499 836 LINE",
"354 688 LINE"
);
}
);
width = 861;
}
);
leftKerningGroup = W;
note = Wcircumflex;
rightKerningGroup = W;
unicode = 0174;
},
{
glyphname = Wdieresis;
lastChange = "2015-10-24 19:57:31 +0000";
layers = (
{
layerId = "1336773A-60E9-4881-855D-D55F9632DBDF";
name = "Light Italic";
paths = (
{
closed = 1;
nodes = (
"210 0 LINE",
"461 490 LINE",
"497 0 LINE",
"582 0 LINE",
"867 644 LINE",
"787 644 LINE",
"552 114 LINE",
"514 644 LINE",
"447 644 LINE",
"432 573 LINE",
"196 114 LINE",
"187 644 LINE",
"106 644 LINE",
"120 0 LINE"
);
},
{
closed = 1;
nodes = (
"456 708 LINE",
"472 783 LINE",
"395 783 LINE",
"379 708 LINE"
);
},
{
closed = 1;
nodes = (
"632 708 LINE",
"648 783 LINE",
"570 783 LINE",
"554 708 LINE"
);
}
);
width = 861;
}
);
leftKerningGroup = W;
note = Wdieresis;
rightKerningGroup = W;
unicode = 1E84;
},
{
glyphname = Wgrave;
lastChange = "2015-10-24 19:57:30 +0000";
layers = (
{
layerId = "1336773A-60E9-4881-855D-D55F9632DBDF";
name = "Light Italic";
paths = (
{
closed = 1;
nodes = (
"210 0 LINE",
"461 490 LINE",
"497 0 LINE",
"582 0 LINE",
"867 644 LINE",
"787 644 LINE",
"552 114 LINE",
"514 644 LINE",
"447 644 LINE",
"432 573 LINE",
"196 114 LINE",
"187 644 LINE",
"106 644 LINE",
"120 0 LINE"
);
},
{
closed = 1;
nodes = (
"526 688 LINE",
"491 856 LINE",
"417 856 LINE",
"460 688 LINE"
);
}
);
width = 861;
}
);
leftKerningGroup = W;
note = Wgrave;
rightKerningGroup = W;
unicode = 1E80;
},
{
glyphname = X;
lastChange = "2015-10-24 19:57:31 +0000";
layers = (
{
layerId = "1336773A-60E9-4881-855D-D55F9632DBDF";
name = "Light Italic";
paths = (
{
closed = 1;
nodes = (
"65 0 LINE",
"300 257 LINE",
"427 0 LINE",
"522 0 LINE",
"363 320 LINE",
"655 644 LINE",
"561 644 LINE",
"326 381 LINE",
"203 644 LINE",
"109 644 LINE",
"265 320 LINE",
"-30 0 LINE"
);
}
);
width = 652;
}
);
note = X;
unicode = 0058;
},
{
glyphname = Y;
lastChange = "2015-10-24 19:57:30 +0000";
layers = (
{
layerId = "1336773A-60E9-4881-855D-D55F9632DBDF";
name = "Light Italic";
paths = (
{
closed = 1;
nodes = (
"282 0 LINE",
"333 240 LINE",
"648 644 LINE",
"559 644 LINE",
"302 310 LINE",
"187 644 LINE",
"106 644 LINE",
"251 240 LINE",
"200 0 LINE"
);
}
);
width = 642;
}
);
leftKerningGroup = Y;
note = Y;
rightKerningGroup = Y;
unicode = 0059;
},
{
glyphname = Yacute;
lastChange = "2015-10-24 19:57:30 +0000";
layers = (
{
layerId = "1336773A-60E9-4881-855D-D55F9632DBDF";
name = "Light Italic";
paths = (
{
closed = 1;
nodes = (
"282 0 LINE",
"333 240 LINE",
"648 644 LINE",
"559 644 LINE",
"302 310 LINE",
"187 644 LINE",
"106 644 LINE",
"251 240 LINE",
"200 0 LINE"
);
},
{
closed = 1;
nodes = (
"408 688 LINE",
"523 856 LINE",
"449 856 LINE",
"342 688 LINE"
);
}
);
width = 642;
}
);
leftKerningGroup = Y;
note = Yacute;
rightKerningGroup = Y;
unicode = 00DD;
},
{
glyphname = Ycircumflex;
lastChange = "2015-10-24 19:57:30 +0000";
layers = (
{
layerId = "1336773A-60E9-4881-855D-D55F9632DBDF";
name = "Light Italic";
paths = (
{
closed = 1;
nodes = (
"282 0 LINE",
"333 240 LINE",
"648 644 LINE",
"559 644 LINE",
"302 310 LINE",
"187 644 LINE",
"106 644 LINE",
"251 240 LINE",
"200 0 LINE"
);
},
{
closed = 1;
nodes = (
"313 688 LINE",
"411 790 LINE",
"467 688 LINE",
"535 688 LINE",
"451 836 LINE",
"385 836 LINE",
"240 688 LINE"
);
}
);
width = 642;
}
);
leftKerningGroup = Y;
note = Ycircumflex;
rightKerningGroup = Y;
unicode = 0176;
},
{
glyphname = Ydieresis;
lastChange = "2015-10-24 19:57:31 +0000";
layers = (
{
layerId = "1336773A-60E9-4881-855D-D55F9632DBDF";
name = "Light Italic";
paths = (
{
closed = 1;
nodes = (
"282 0 LINE",
"333 240 LINE",
"648 644 LINE",
"559 644 LINE",
"302 310 LINE",
"187 644 LINE",
"106 644 LINE",
"251 240 LINE",
"200 0 LINE"
);
},
{
closed = 1;
nodes = (
"342 711 LINE",
"358 786 LINE",
"281 786 LINE",
"265 711 LINE"
);
},
{
closed = 1;
nodes = (
"518 711 LINE",
"534 786 LINE",
"456 786 LINE",
"440 711 LINE"
);
}
);
width = 642;
}
);
leftKerningGroup = Y;
note = Ydieresis;
rightKerningGroup = Y;
unicode = 0178;
},
{
glyphname = Ydotaccent;
lastChange = "2015-10-24 19:57:30 +0000";
layers = (
{
layerId = "1336773A-60E9-4881-855D-D55F9632DBDF";
name = "Light Italic";
paths = (
{
closed = 1;
nodes = (
"282 0 LINE",
"333 240 LINE",
"648 644 LINE",
"559 644 LINE",
"302 310 LINE",
"187 644 LINE",
"106 644 LINE",
"251 240 LINE",
"200 0 LINE"
);
},
{
closed = 1;
nodes = (
"431 710 LINE",
"447 787 LINE",
"367 787 LINE",
"351 710 LINE"
);
}
);
width = 642;
}
);
leftKerningGroup = Y;
note = Ydotaccent;
rightKerningGroup = Y;
unicode = 1E8E;
},
{
glyphname = Ydotbelow;
lastChange = "2015-10-24 19:57:31 +0000";
layers = (
{
layerId = "1336773A-60E9-4881-855D-D55F9632DBDF";
name = "Light Italic";
paths = (
{
closed = 1;
nodes = (
"282 0 LINE",
"333 240 LINE",
"648 644 LINE",
"559 644 LINE",
"302 310 LINE",
"187 644 LINE",
"106 644 LINE",
"251 240 LINE",
"200 0 LINE"
);
},
{
closed = 1;
nodes = (
"250 -149 LINE",
"266 -72 LINE",
"186 -72 LINE",
"170 -149 LINE"
);
}
);
width = 642;
}
);
leftKerningGroup = Y;
note = Ydotbelow;
rightKerningGroup = Y;
unicode = 1EF4;
},
{
glyphname = Ygrave;
lastChange = "2015-10-24 19:57:31 +0000";
layers = (
{
layerId = "1336773A-60E9-4881-855D-D55F9632DBDF";
name = "Light Italic";
paths = (
{
closed = 1;
nodes = (
"282 0 LINE",
"333 240 LINE",
"648 644 LINE",
"559 644 LINE",
"302 310 LINE",
"187 644 LINE",
"106 644 LINE",
"251 240 LINE",
"200 0 LINE"
);
},
{
closed = 1;
nodes = (
"433 688 LINE",
"398 856 LINE",
"324 856 LINE",
"367 688 LINE"
);
}
);
width = 642;
}
);
leftKerningGroup = Y;
note = Ygrave;
rightKerningGroup = Y;
unicode = 1EF2;
},
{
glyphname = Yhookabove;
lastChange = "2015-10-24 19:57:31 +0000";
layers = (
{
layerId = "1336773A-60E9-4881-855D-D55F9632DBDF";
name = "Light Italic";
paths = (
{
closed = 1;
nodes = (
"282 0 LINE",
"333 240 LINE",
"648 644 LINE",
"559 644 LINE",
"302 310 LINE",
"187 644 LINE",
"106 644 LINE",
"251 240 LINE",
"200 0 LINE"
);
},
{
closed = 1;
nodes = (
"411 688 LINE",
"421 736 LINE",
"490 745 OFFCURVE",
"518 775 OFFCURVE",
"530 829 CURVE SMOOTH",
"542 886 OFFCURVE",
"500 920 OFFCURVE",
"428 920 CURVE SMOOTH",
"399 920 OFFCURVE",
"362 915 OFFCURVE",
"340 907 CURVE",
"330 856 LINE",
"348 863 OFFCURVE",
"377 868 OFFCURVE",
"398 868 CURVE SMOOTH",
"457 868 OFFCURVE",
"474 856 OFFCURVE",
"467 823 CURVE SMOOTH",
"459 788 OFFCURVE",
"441 775 OFFCURVE",
"363 771 CURVE",
"345 688 LINE"
);
}
);
width = 642;
}
);
leftKerningGroup = Y;
note = Yhookabove;
rightKerningGroup = Y;
unicode = 1EF6;
},
{
glyphname = Ytilde;
lastChange = "2015-10-24 19:57:30 +0000";
layers = (
{
layerId = "1336773A-60E9-4881-855D-D55F9632DBDF";
name = "Light Italic";
paths = (
{
closed = 1;
nodes = (
"282 0 LINE",
"333 240 LINE",
"648 644 LINE",
"559 644 LINE",
"302 310 LINE",
"187 644 LINE",
"106 644 LINE",
"251 240 LINE",
"200 0 LINE"
);
},
{
closed = 1;
nodes = (
"500 708 OFFCURVE",
"533 720 OFFCURVE",
"550 738 CURVE",
"563 802 LINE",
"540 777 OFFCURVE",
"513 766 OFFCURVE",
"479 766 CURVE SMOOTH",
"430 766 OFFCURVE",
"398 804 OFFCURVE",
"343 804 CURVE SMOOTH",
"312 804 OFFCURVE",
"273 792 OFFCURVE",
"253 774 CURVE",
"240 711 LINE",
"267 737 OFFCURVE",
"298 746 OFFCURVE",
"330 746 CURVE SMOOTH",
"373 746 OFFCURVE",
"414 708 OFFCURVE",
"466 708 CURVE SMOOTH"
);
}
);
width = 642;
}
);
leftKerningGroup = Y;
note = Ytilde;
rightKerningGroup = Y;
unicode = 1EF8;
},
{
glyphname = Z;
lastChange = "2015-10-24 19:57:31 +0000";
layers = (
{
layerId = "1336773A-60E9-4881-855D-D55F9632DBDF";
name = "Light Italic";
paths = (
{
closed = 1;
nodes = (
"447 0 LINE",
"460 64 LINE",
"90 64 LINE",
"568 593 LINE",
"578 644 LINE",
"123 644 LINE",
"110 579 LINE",
"461 579 LINE",
"-21 46 LINE",
"-30 0 LINE"
);
}
);
width = 572;
}
);
leftKerningGroup = Z;
note = Z;
rightKerningGroup = Z;
unicode = 005A;
},
{
glyphname = Zacute;
lastChange = "2015-10-24 19:57:30 +0000";
layers = (
{
layerId = "1336773A-60E9-4881-855D-D55F9632DBDF";
name = "Light Italic";
paths = (
{
closed = 1;
nodes = (
"447 0 LINE",
"460 64 LINE",
"90 64 LINE",
"568 593 LINE",
"578 644 LINE",
"123 644 LINE",
"110 579 LINE",
"461 579 LINE",
"-21 46 LINE",
"-30 0 LINE"
);
},
{
closed = 1;
nodes = (
"392 688 LINE",
"507 856 LINE",
"433 856 LINE",
"326 688 LINE"
);
}
);
width = 572;
}
);
leftKerningGroup = Z;
note = Zacute;
rightKerningGroup = Z;
unicode = 0179;
},
{
glyphname = Zcaron;
lastChange = "2015-10-24 19:57:31 +0000";
layers = (
{
layerId = "1336773A-60E9-4881-855D-D55F9632DBDF";
name = "Light Italic";
paths = (
{
closed = 1;
nodes = (
"447 0 LINE",
"460 64 LINE",
"90 64 LINE",
"568 593 LINE",
"578 644 LINE",
"123 644 LINE",
"110 579 LINE",
"461 579 LINE",
"-21 46 LINE",
"-30 0 LINE"
);
},
{
closed = 1;
nodes = (
"402 688 LINE",
"548 836 LINE",
"474 836 LINE",
"375 734 LINE",
"320 836 LINE",
"253 836 LINE",
"336 688 LINE"
);
}
);
width = 572;
}
);
leftKerningGroup = Z;
note = Zcaron;
rightKerningGroup = Z;
unicode = 017D;
},
{
glyphname = Zdotaccent;
lastChange = "2015-10-24 19:57:30 +0000";
layers = (
{
layerId = "1336773A-60E9-4881-855D-D55F9632DBDF";
name = "Light Italic";
paths = (
{
closed = 1;
nodes = (
"447 0 LINE",
"460 64 LINE",
"90 64 LINE",
"568 593 LINE",
"578 644 LINE",
"123 644 LINE",
"110 579 LINE",
"461 579 LINE",
"-21 46 LINE",
"-30 0 LINE"
);
},
{
closed = 1;
nodes = (
"405 710 LINE",
"421 787 LINE",
"341 787 LINE",
"325 710 LINE"
);
}
);
width = 572;
}
);
leftKerningGroup = Z;
note = Zdotaccent;
rightKerningGroup = Z;
unicode = 017B;
},
{
glyphname = Zdotbelow;
lastChange = "2015-10-24 19:57:30 +0000";
layers = (
{
layerId = "1336773A-60E9-4881-855D-D55F9632DBDF";
name = "Light Italic";
paths = (
{
closed = 1;
nodes = (
"447 0 LINE",
"460 64 LINE",
"90 64 LINE",
"568 593 LINE",
"578 644 LINE",
"123 644 LINE",
"110 579 LINE",
"461 579 LINE",
"-21 46 LINE",
"-30 0 LINE"
);
},
{
closed = 1;
nodes = (
"223 -164 LINE",
"239 -87 LINE",
"159 -87 LINE",
"143 -164 LINE"
);
}
);
width = 572;
}
);
leftKerningGroup = Z;
note = Zdotbelow;
rightKerningGroup = Z;
unicode = 1E92;
},
{
glyphname = a;
lastChange = "2015-10-24 19:57:31 +0000";
layers = (
{
layerId = "1336773A-60E9-4881-855D-D55F9632DBDF";
name = "Light Italic";
paths = (
{
closed = 1;
nodes = (
"252 -10 OFFCURVE",
"306 9 OFFCURVE",
"359 50 CURVE",
"355 0 LINE",
"425 0 LINE",
"525 474 LINE",
"443 474 LINE",
"436 439 LINE",
"397 470 OFFCURVE",
"356 484 OFFCURVE",
"295 484 CURVE SMOOTH",
"167 484 OFFCURVE",
"52 394 OFFCURVE",
"17 223 CURVE SMOOTH",
"-17 59 OFFCURVE",
"48 -10 OFFCURVE",
"181 -10 CURVE SMOOTH"
);
},
{
closed = 1;
nodes = (
"100 56 OFFCURVE",
"73 99 OFFCURVE",
"99 223 CURVE SMOOTH",
"126 352 OFFCURVE",
"192 418 OFFCURVE",
"303 418 CURVE SMOOTH",
"360 418 OFFCURVE",
"395 400 OFFCURVE",
"421 371 CURVE",
"367 113 LINE",
"322 74 OFFCURVE",
"271 56 OFFCURVE",
"216 56 CURVE SMOOTH"
);
}
);
width = 575;
}
);
leftKerningGroup = a;
note = a;
rightKerningGroup = a;
unicode = 0061;
},
{
glyphname = aacute;
lastChange = "2015-10-24 19:57:30 +0000";
layers = (
{
layerId = "1336773A-60E9-4881-855D-D55F9632DBDF";
name = "Light Italic";
paths = (
{
closed = 1;
nodes = (
"252 -10 OFFCURVE",
"306 9 OFFCURVE",
"359 50 CURVE",
"355 0 LINE",
"425 0 LINE",
"525 474 LINE",
"443 474 LINE",
"436 439 LINE",
"397 470 OFFCURVE",
"356 484 OFFCURVE",
"295 484 CURVE SMOOTH",
"167 484 OFFCURVE",
"52 394 OFFCURVE",
"17 223 CURVE SMOOTH",
"-17 59 OFFCURVE",
"48 -10 OFFCURVE",
"181 -10 CURVE SMOOTH"
);
},
{
closed = 1;
nodes = (
"100 56 OFFCURVE",
"73 99 OFFCURVE",
"99 223 CURVE SMOOTH",
"126 352 OFFCURVE",
"192 418 OFFCURVE",
"303 418 CURVE SMOOTH",
"360 418 OFFCURVE",
"395 400 OFFCURVE",
"421 371 CURVE",
"367 113 LINE",
"322 74 OFFCURVE",
"271 56 OFFCURVE",
"216 56 CURVE SMOOTH"
);
},
{
closed = 1;
nodes = (
"341 522 LINE",
"456 690 LINE",
"382 690 LINE",
"275 522 LINE"
);
}
);
width = 545;
}
);
leftKerningGroup = a;
note = aacute;
rightKerningGroup = a;
unicode = 00E1;
},
{
glyphname = abreve;
lastChange = "2015-10-24 19:57:30 +0000";
layers = (
{
layerId = "1336773A-60E9-4881-855D-D55F9632DBDF";
name = "Light Italic";
paths = (
{
closed = 1;
nodes = (
"252 -10 OFFCURVE",
"306 9 OFFCURVE",
"359 50 CURVE",
"355 0 LINE",
"425 0 LINE",
"525 474 LINE",
"443 474 LINE",
"436 439 LINE",
"397 470 OFFCURVE",
"356 484 OFFCURVE",
"295 484 CURVE SMOOTH",
"167 484 OFFCURVE",
"52 394 OFFCURVE",
"17 223 CURVE SMOOTH",
"-17 59 OFFCURVE",
"48 -10 OFFCURVE",
"181 -10 CURVE SMOOTH"
);
},
{
closed = 1;
nodes = (
"100 56 OFFCURVE",
"73 99 OFFCURVE",
"99 223 CURVE SMOOTH",
"126 352 OFFCURVE",
"192 418 OFFCURVE",
"303 418 CURVE SMOOTH",
"360 418 OFFCURVE",
"395 400 OFFCURVE",
"421 371 CURVE",
"367 113 LINE",
"322 74 OFFCURVE",
"271 56 OFFCURVE",
"216 56 CURVE SMOOTH"
);
},
{
closed = 1;
nodes = (
"405 522 OFFCURVE",
"451 573 OFFCURVE",
"467 648 CURVE",
"406 648 LINE",
"395 597 OFFCURVE",
"365 574 OFFCURVE",
"321 574 CURVE SMOOTH",
"274 574 OFFCURVE",
"257 597 OFFCURVE",
"268 648 CURVE",
"213 648 LINE",
"198 573 OFFCURVE",
"229 522 OFFCURVE",
"312 522 CURVE SMOOTH"
);
}
);
width = 541;
}
);
leftKerningGroup = a;
note = abreve;
rightKerningGroup = a;
unicode = 0103;
},
{
glyphname = abreveacute;
lastChange = "2015-10-24 19:57:31 +0000";
layers = (
{
layerId = "1336773A-60E9-4881-855D-D55F9632DBDF";
name = "Light Italic";
paths = (
{
closed = 1;
nodes = (
"252 -10 OFFCURVE",
"306 9 OFFCURVE",
"359 50 CURVE",
"355 0 LINE",
"425 0 LINE",
"525 474 LINE",
"443 474 LINE",
"436 439 LINE",
"397 470 OFFCURVE",
"356 484 OFFCURVE",
"295 484 CURVE SMOOTH",
"167 484 OFFCURVE",
"52 394 OFFCURVE",
"17 223 CURVE SMOOTH",
"-17 59 OFFCURVE",
"48 -10 OFFCURVE",
"181 -10 CURVE SMOOTH"
);
},
{
closed = 1;
nodes = (
"100 56 OFFCURVE",
"73 99 OFFCURVE",
"99 223 CURVE SMOOTH",
"126 352 OFFCURVE",
"192 418 OFFCURVE",
"303 418 CURVE SMOOTH",
"360 418 OFFCURVE",
"395 400 OFFCURVE",
"421 371 CURVE",
"367 113 LINE",
"322 74 OFFCURVE",
"271 56 OFFCURVE",
"216 56 CURVE SMOOTH"
);
},
{
closed = 1;
nodes = (
"406 522 OFFCURVE",
"477 560 OFFCURVE",
"499 662 CURVE",
"446 662 LINE",
"433 600 OFFCURVE",
"392 570 OFFCURVE",
"331 570 CURVE SMOOTH",
"261 570 OFFCURVE",
"243 600 OFFCURVE",
"256 662 CURVE",
"205 662 LINE",
"186 562 OFFCURVE",
"242 522 OFFCURVE",
"322 522 CURVE SMOOTH"
);
},
{
closed = 1;
nodes = (
"364 626 LINE",
"459 751 LINE",
"394 751 LINE",
"305 626 LINE"
);
}
);
width = 541;
}
);
leftKerningGroup = a;
note = abreveacute;
rightKerningGroup = a;
unicode = 1EAF;
},
{
glyphname = abrevedotbelow;
lastChange = "2015-10-24 19:57:30 +0000";
layers = (
{
layerId = "1336773A-60E9-4881-855D-D55F9632DBDF";
name = "Light Italic";
paths = (
{
closed = 1;
nodes = (
"252 -10 OFFCURVE",
"306 9 OFFCURVE",
"359 50 CURVE",
"355 0 LINE",
"425 0 LINE",
"525 474 LINE",
"443 474 LINE",
"436 439 LINE",
"397 470 OFFCURVE",
"356 484 OFFCURVE",
"295 484 CURVE SMOOTH",
"167 484 OFFCURVE",
"52 394 OFFCURVE",
"17 223 CURVE SMOOTH",
"-17 59 OFFCURVE",
"48 -10 OFFCURVE",
"181 -10 CURVE SMOOTH"
);
},
{
closed = 1;
nodes = (
"206 -164 LINE",
"222 -87 LINE",
"142 -87 LINE",
"126 -164 LINE"
);
},
{
closed = 1;
nodes = (
"100 56 OFFCURVE",
"73 99 OFFCURVE",
"99 223 CURVE SMOOTH",
"126 352 OFFCURVE",
"192 418 OFFCURVE",
"303 418 CURVE SMOOTH",
"360 418 OFFCURVE",
"395 400 OFFCURVE",
"421 371 CURVE",
"367 113 LINE",
"322 74 OFFCURVE",
"271 56 OFFCURVE",
"216 56 CURVE SMOOTH"
);
},
{
closed = 1;
nodes = (
"401 522 OFFCURVE",
"447 573 OFFCURVE",
"463 648 CURVE",
"402 648 LINE",
"391 597 OFFCURVE",
"361 574 OFFCURVE",
"317 574 CURVE SMOOTH",
"270 574 OFFCURVE",
"253 597 OFFCURVE",
"264 648 CURVE",
"209 648 LINE",
"194 573 OFFCURVE",
"225 522 OFFCURVE",
"308 522 CURVE SMOOTH"
);
}
);
width = 541;
}
);
leftKerningGroup = a;
note = abrevedotbelow;
rightKerningGroup = a;
unicode = 1EB7;
},
{
glyphname = abrevegrave;
lastChange = "2015-10-24 19:57:30 +0000";
layers = (
{
layerId = "1336773A-60E9-4881-855D-D55F9632DBDF";
name = "Light Italic";
paths = (
{
closed = 1;
nodes = (
"252 -10 OFFCURVE",
"306 9 OFFCURVE",
"359 50 CURVE",
"355 0 LINE",
"425 0 LINE",
"525 474 LINE",
"443 474 LINE",
"436 439 LINE",
"397 470 OFFCURVE",
"356 484 OFFCURVE",
"295 484 CURVE SMOOTH",
"167 484 OFFCURVE",
"52 394 OFFCURVE",
"17 223 CURVE SMOOTH",
"-17 59 OFFCURVE",
"48 -10 OFFCURVE",
"181 -10 CURVE SMOOTH"
);
},
{
closed = 1;
nodes = (
"100 56 OFFCURVE",
"73 99 OFFCURVE",
"99 223 CURVE SMOOTH",
"126 352 OFFCURVE",
"192 418 OFFCURVE",
"303 418 CURVE SMOOTH",
"360 418 OFFCURVE",
"395 400 OFFCURVE",
"421 371 CURVE",
"367 113 LINE",
"322 74 OFFCURVE",
"271 56 OFFCURVE",
"216 56 CURVE SMOOTH"
);
},
{
closed = 1;
nodes = (
"401 522 OFFCURVE",
"472 560 OFFCURVE",
"494 662 CURVE",
"441 662 LINE",
"428 600 OFFCURVE",
"387 570 OFFCURVE",
"326 570 CURVE SMOOTH",
"256 570 OFFCURVE",
"238 600 OFFCURVE",
"251 662 CURVE",
"200 662 LINE",
"181 562 OFFCURVE",
"237 522 OFFCURVE",
"317 522 CURVE SMOOTH"
);
},
{
closed = 1;
nodes = (
"378 626 LINE",
"343 751 LINE",
"278 751 LINE",
"319 626 LINE"
);
}
);
width = 541;
}
);
leftKerningGroup = a;
note = abrevegrave;
rightKerningGroup = a;
unicode = 1EB1;
},
{
glyphname = abrevehookabove;
lastChange = "2015-10-24 19:57:31 +0000";
layers = (
{
layerId = "1336773A-60E9-4881-855D-D55F9632DBDF";
name = "Light Italic";
paths = (
{
closed = 1;
nodes = (
"252 -10 OFFCURVE",
"306 9 OFFCURVE",
"359 50 CURVE",
"355 0 LINE",
"425 0 LINE",
"525 474 LINE",
"443 474 LINE",
"436 439 LINE",
"397 470 OFFCURVE",
"356 484 OFFCURVE",
"295 484 CURVE SMOOTH",
"167 484 OFFCURVE",
"52 394 OFFCURVE",
"17 223 CURVE SMOOTH",
"-17 59 OFFCURVE",
"48 -10 OFFCURVE",
"181 -10 CURVE SMOOTH"
);
},
{
closed = 1;
nodes = (
"100 56 OFFCURVE",
"73 99 OFFCURVE",
"99 223 CURVE SMOOTH",
"126 352 OFFCURVE",
"192 418 OFFCURVE",
"303 418 CURVE SMOOTH",
"360 418 OFFCURVE",
"395 400 OFFCURVE",
"421 371 CURVE",
"367 113 LINE",
"322 74 OFFCURVE",
"271 56 OFFCURVE",
"216 56 CURVE SMOOTH"
);
},
{
closed = 1;
nodes = (
"399 522 OFFCURVE",
"470 560 OFFCURVE",
"492 662 CURVE",
"439 662 LINE",
"426 600 OFFCURVE",
"385 570 OFFCURVE",
"324 570 CURVE SMOOTH",
"254 570 OFFCURVE",
"236 600 OFFCURVE",
"249 662 CURVE",
"198 662 LINE",
"179 562 OFFCURVE",
"235 522 OFFCURVE",
"315 522 CURVE SMOOTH"
);
},
{
closed = 1;
nodes = (
"360 627 LINE",
"367 661 LINE",
"426 670 OFFCURVE",
"452 692 OFFCURVE",
"462 735 CURVE",
"471 781 OFFCURVE",
"443 809 OFFCURVE",
"384 809 CURVE SMOOTH",
"356 809 OFFCURVE",
"328 804 OFFCURVE",
"308 797 CURVE",
"299 756 LINE",
"318 764 OFFCURVE",
"337 769 OFFCURVE",
"359 769 CURVE SMOOTH",
"395 769 OFFCURVE",
"409 757 OFFCURVE",
"403 730 CURVE",
"398 703 OFFCURVE",
"380 688 OFFCURVE",
"312 685 CURVE",
"300 627 LINE"
);
}
);
width = 541;
}
);
leftKerningGroup = a;
note = abrevehookabove;
rightKerningGroup = a;
unicode = 1EB3;
},
{
glyphname = abrevetilde;
lastChange = "2015-10-24 19:57:30 +0000";
layers = (
{
layerId = "1336773A-60E9-4881-855D-D55F9632DBDF";
name = "Light Italic";
paths = (
{
closed = 1;
nodes = (
"252 -10 OFFCURVE",
"306 9 OFFCURVE",
"359 50 CURVE",
"355 0 LINE",
"425 0 LINE",
"525 474 LINE",
"443 474 LINE",
"436 439 LINE",
"397 470 OFFCURVE",
"356 484 OFFCURVE",
"295 484 CURVE SMOOTH",
"167 484 OFFCURVE",
"52 394 OFFCURVE",
"17 223 CURVE SMOOTH",
"-17 59 OFFCURVE",
"48 -10 OFFCURVE",
"181 -10 CURVE SMOOTH"
);
},
{
closed = 1;
nodes = (
"100 56 OFFCURVE",
"73 99 OFFCURVE",
"99 223 CURVE SMOOTH",
"126 352 OFFCURVE",
"192 418 OFFCURVE",
"303 418 CURVE SMOOTH",
"360 418 OFFCURVE",
"395 400 OFFCURVE",
"421 371 CURVE",
"367 113 LINE",
"322 74 OFFCURVE",
"271 56 OFFCURVE",
"216 56 CURVE SMOOTH"
);
},
{
closed = 1;
nodes = (
"403 522 OFFCURVE",
"474 560 OFFCURVE",
"496 662 CURVE",
"443 662 LINE",
"430 600 OFFCURVE",
"389 570 OFFCURVE",
"328 570 CURVE SMOOTH",
"258 570 OFFCURVE",
"240 600 OFFCURVE",
"253 662 CURVE",
"202 662 LINE",
"183 562 OFFCURVE",
"239 522 OFFCURVE",
"319 522 CURVE SMOOTH"
);
},
{
closed = 1;
nodes = (
"455 683 OFFCURVE",
"485 694 OFFCURVE",
"500 710 CURVE",
"512 767 LINE",
"490 744 OFFCURVE",
"465 734 OFFCURVE",
"434 734 CURVE SMOOTH",
"389 734 OFFCURVE",
"360 769 OFFCURVE",
"309 769 CURVE SMOOTH",
"281 769 OFFCURVE",
"245 758 OFFCURVE",
"227 742 CURVE",
"215 686 LINE",
"240 710 OFFCURVE",
"269 718 OFFCURVE",
"298 718 CURVE SMOOTH",
"338 718 OFFCURVE",
"376 683 OFFCURVE",
"424 683 CURVE SMOOTH"
);
}
);
width = 541;
}
);
leftKerningGroup = a;
note = abrevetilde;
rightKerningGroup = a;
unicode = 1EB5;
},
{
glyphname = acaron;
lastChange = "2015-10-24 19:57:30 +0000";
layers = (
{
layerId = "1336773A-60E9-4881-855D-D55F9632DBDF";
name = "Light Italic";
paths = (
{
closed = 1;
nodes = (
"252 -10 OFFCURVE",
"306 9 OFFCURVE",
"359 50 CURVE",
"355 0 LINE",
"425 0 LINE",
"525 474 LINE",
"443 474 LINE",
"436 439 LINE",
"397 470 OFFCURVE",
"356 484 OFFCURVE",
"295 484 CURVE SMOOTH",
"167 484 OFFCURVE",
"52 394 OFFCURVE",
"17 223 CURVE SMOOTH",
"-17 59 OFFCURVE",
"48 -10 OFFCURVE",
"181 -10 CURVE SMOOTH"
);
},
{
closed = 1;
nodes = (
"100 56 OFFCURVE",
"73 99 OFFCURVE",
"99 223 CURVE SMOOTH",
"126 352 OFFCURVE",
"192 418 OFFCURVE",
"303 418 CURVE SMOOTH",
"360 418 OFFCURVE",
"395 400 OFFCURVE",
"421 371 CURVE",
"367 113 LINE",
"322 74 OFFCURVE",
"271 56 OFFCURVE",
"216 56 CURVE SMOOTH"
);
},
{
closed = 1;
nodes = (
"343 522 LINE",
"489 670 LINE",
"415 670 LINE",
"316 568 LINE",
"261 670 LINE",
"194 670 LINE",
"277 522 LINE"
);
}
);
width = 541;
}
);
leftKerningGroup = a;
note = acaron;
rightKerningGroup = a;
unicode = 01CE;
},
{
glyphname = acircumflex;
lastChange = "2015-10-24 19:57:30 +0000";
layers = (
{
layerId = "1336773A-60E9-4881-855D-D55F9632DBDF";
name = "Light Italic";
paths = (
{
closed = 1;
nodes = (
"252 -10 OFFCURVE",
"306 9 OFFCURVE",
"359 50 CURVE",
"355 0 LINE",
"425 0 LINE",
"525 474 LINE",
"443 474 LINE",
"436 439 LINE",
"397 470 OFFCURVE",
"356 484 OFFCURVE",
"295 484 CURVE SMOOTH",
"167 484 OFFCURVE",
"52 394 OFFCURVE",
"17 223 CURVE SMOOTH",
"-17 59 OFFCURVE",
"48 -10 OFFCURVE",
"181 -10 CURVE SMOOTH"
);
},
{
closed = 1;
nodes = (
"100 56 OFFCURVE",
"73 99 OFFCURVE",
"99 223 CURVE SMOOTH",
"126 352 OFFCURVE",
"192 418 OFFCURVE",
"303 418 CURVE SMOOTH",
"360 418 OFFCURVE",
"395 400 OFFCURVE",
"421 371 CURVE",
"367 113 LINE",
"322 74 OFFCURVE",
"271 56 OFFCURVE",
"216 56 CURVE SMOOTH"
);
},
{
closed = 1;
nodes = (
"238 522 LINE",
"336 624 LINE",
"392 522 LINE",
"460 522 LINE",
"376 670 LINE",
"310 670 LINE",
"165 522 LINE"
);
}
);
width = 541;
}
);
leftKerningGroup = a;
note = acircumflex;
rightKerningGroup = a;
unicode = 00E2;
},
{
glyphname = acircumflexacute;
lastChange = "2015-10-24 19:57:31 +0000";
layers = (
{
layerId = "1336773A-60E9-4881-855D-D55F9632DBDF";
name = "Light Italic";
paths = (
{
closed = 1;
nodes = (
"252 -10 OFFCURVE",
"306 9 OFFCURVE",
"359 50 CURVE",
"355 0 LINE",
"425 0 LINE",
"525 474 LINE",
"443 474 LINE",
"436 439 LINE",
"397 470 OFFCURVE",
"356 484 OFFCURVE",
"295 484 CURVE SMOOTH",
"167 484 OFFCURVE",
"52 394 OFFCURVE",
"17 223 CURVE SMOOTH",
"-17 59 OFFCURVE",
"48 -10 OFFCURVE",
"181 -10 CURVE SMOOTH"
);
},
{
closed = 1;
nodes = (
"100 56 OFFCURVE",
"73 99 OFFCURVE",
"99 223 CURVE SMOOTH",
"126 352 OFFCURVE",
"192 418 OFFCURVE",
"303 418 CURVE SMOOTH",
"360 418 OFFCURVE",
"395 400 OFFCURVE",
"421 371 CURVE",
"367 113 LINE",
"322 74 OFFCURVE",
"271 56 OFFCURVE",
"216 56 CURVE SMOOTH"
);
},
{
closed = 1;
nodes = (
"238 522 LINE",
"330 605 LINE",
"387 522 LINE",
"454 522 LINE",
"368 640 LINE",
"302 640 LINE",
"166 522 LINE"
);
},
{
closed = 1;
nodes = (
"472 631 LINE",
"566 756 LINE",
"501 756 LINE",
"413 631 LINE"
);
}
);
width = 551;
}
);
leftKerningGroup = a;
note = acircumflexacute;
rightKerningGroup = a;
unicode = 1EA5;
},
{
glyphname = acircumflexdotbelow;
lastChange = "2015-10-24 19:57:30 +0000";
layers = (
{
layerId = "1336773A-60E9-4881-855D-D55F9632DBDF";
name = "Light Italic";
paths = (
{
closed = 1;
nodes = (
"252 -10 OFFCURVE",
"306 9 OFFCURVE",
"359 50 CURVE",
"355 0 LINE",
"425 0 LINE",
"525 474 LINE",
"443 474 LINE",
"436 439 LINE",
"397 470 OFFCURVE",
"356 484 OFFCURVE",
"295 484 CURVE SMOOTH",
"167 484 OFFCURVE",
"52 394 OFFCURVE",
"17 223 CURVE SMOOTH",
"-17 59 OFFCURVE",
"48 -10 OFFCURVE",
"181 -10 CURVE SMOOTH"
);
},
{
closed = 1;
nodes = (
"201 -164 LINE",
"217 -87 LINE",
"137 -87 LINE",
"121 -164 LINE"
);
},
{
closed = 1;
nodes = (
"100 56 OFFCURVE",
"73 99 OFFCURVE",
"99 223 CURVE SMOOTH",
"126 352 OFFCURVE",
"192 418 OFFCURVE",
"303 418 CURVE SMOOTH",
"360 418 OFFCURVE",
"395 400 OFFCURVE",
"421 371 CURVE",
"367 113 LINE",
"322 74 OFFCURVE",
"271 56 OFFCURVE",
"216 56 CURVE SMOOTH"
);
},
{
closed = 1;
nodes = (
"231 522 LINE",
"329 624 LINE",
"385 522 LINE",
"453 522 LINE",
"369 670 LINE",
"303 670 LINE",
"158 522 LINE"
);
}
);
width = 541;
}
);
leftKerningGroup = a;
note = acircumflexdotbelow;
rightKerningGroup = a;
unicode = 1EAD;
},
{
glyphname = acircumflexgrave;
lastChange = "2015-10-24 19:57:30 +0000";
layers = (
{
layerId = "1336773A-60E9-4881-855D-D55F9632DBDF";
name = "Light Italic";
paths = (
{
closed = 1;
nodes = (
"252 -10 OFFCURVE",
"306 9 OFFCURVE",
"359 50 CURVE",
"355 0 LINE",
"425 0 LINE",
"525 474 LINE",
"443 474 LINE",
"436 439 LINE",
"397 470 OFFCURVE",
"356 484 OFFCURVE",
"295 484 CURVE SMOOTH",
"167 484 OFFCURVE",
"52 394 OFFCURVE",
"17 223 CURVE SMOOTH",
"-17 59 OFFCURVE",
"48 -10 OFFCURVE",
"181 -10 CURVE SMOOTH"
);
},
{
closed = 1;
nodes = (
"100 56 OFFCURVE",
"73 99 OFFCURVE",
"99 223 CURVE SMOOTH",
"126 352 OFFCURVE",
"192 418 OFFCURVE",
"303 418 CURVE SMOOTH",
"360 418 OFFCURVE",
"395 400 OFFCURVE",
"421 371 CURVE",
"367 113 LINE",
"322 74 OFFCURVE",
"271 56 OFFCURVE",
"216 56 CURVE SMOOTH"
);
},
{
closed = 1;
nodes = (
"223 522 LINE",
"316 605 LINE",
"372 522 LINE",
"439 522 LINE",
"354 640 LINE",
"288 640 LINE",
"152 522 LINE"
);
},
{
closed = 1;
nodes = (
"239 631 LINE",
"204 756 LINE",
"139 756 LINE",
"180 631 LINE"
);
}
);
width = 541;
}
);
leftKerningGroup = a;
note = acircumflexgrave;
rightKerningGroup = a;
unicode = 1EA7;
},
{
glyphname = acircumflexhookabove;
lastChange = "2015-10-24 19:57:31 +0000";
layers = (
{
layerId = "1336773A-60E9-4881-855D-D55F9632DBDF";
name = "Light Italic";
paths = (
{
closed = 1;
nodes = (
"252 -10 OFFCURVE",
"306 9 OFFCURVE",
"359 50 CURVE",
"355 0 LINE",
"425 0 LINE",
"525 474 LINE",
"443 474 LINE",
"436 439 LINE",
"397 470 OFFCURVE",
"356 484 OFFCURVE",
"295 484 CURVE SMOOTH",
"167 484 OFFCURVE",
"52 394 OFFCURVE",
"17 223 CURVE SMOOTH",
"-17 59 OFFCURVE",
"48 -10 OFFCURVE",
"181 -10 CURVE SMOOTH"
);
},
{
closed = 1;
nodes = (
"100 56 OFFCURVE",
"73 99 OFFCURVE",
"99 223 CURVE SMOOTH",
"126 352 OFFCURVE",
"192 418 OFFCURVE",
"303 418 CURVE SMOOTH",
"360 418 OFFCURVE",
"395 400 OFFCURVE",
"421 371 CURVE",
"367 113 LINE",
"322 74 OFFCURVE",
"271 56 OFFCURVE",
"216 56 CURVE SMOOTH"
);
},
{
closed = 1;
nodes = (
"231 521 LINE",
"323 604 LINE",
"380 521 LINE",
"447 521 LINE",
"361 639 LINE",
"295 639 LINE",
"159 521 LINE"
);
},
{
closed = 1;
nodes = (
"470 609 LINE",
"477 644 LINE",
"534 651 OFFCURVE",
"563 675 OFFCURVE",
"572 718 CURVE SMOOTH",
"582 765 OFFCURVE",
"552 793 OFFCURVE",
"492 793 CURVE SMOOTH",
"462 793 OFFCURVE",
"439 788 OFFCURVE",
"419 781 CURVE",
"410 738 LINE",
"428 745 OFFCURVE",
"447 750 OFFCURVE",
"469 750 CURVE SMOOTH",
"503 750 OFFCURVE",
"517 739 OFFCURVE",
"511 714 CURVE",
"506 688 OFFCURVE",
"490 675 OFFCURVE",
"423 672 CURVE",
"410 609 LINE"
);
}
);
width = 573;
}
);
leftKerningGroup = a;
note = acircumflexhookabove;
rightKerningGroup = a;
unicode = 1EA9;
},
{
glyphname = acircumflextilde;
lastChange = "2015-10-24 19:57:31 +0000";
layers = (
{
layerId = "1336773A-60E9-4881-855D-D55F9632DBDF";
name = "Light Italic";
paths = (
{
closed = 1;
nodes = (
"252 -10 OFFCURVE",
"306 9 OFFCURVE",
"359 50 CURVE",
"355 0 LINE",
"425 0 LINE",
"525 474 LINE",
"443 474 LINE",
"436 439 LINE",
"397 470 OFFCURVE",
"356 484 OFFCURVE",
"295 484 CURVE SMOOTH",
"167 484 OFFCURVE",
"52 394 OFFCURVE",
"17 223 CURVE SMOOTH",
"-17 59 OFFCURVE",
"48 -10 OFFCURVE",
"181 -10 CURVE SMOOTH"
);
},
{
closed = 1;
nodes = (
"100 56 OFFCURVE",
"73 99 OFFCURVE",
"99 223 CURVE SMOOTH",
"126 352 OFFCURVE",
"192 418 OFFCURVE",
"303 418 CURVE SMOOTH",
"360 418 OFFCURVE",
"395 400 OFFCURVE",
"421 371 CURVE",
"367 113 LINE",
"322 74 OFFCURVE",
"271 56 OFFCURVE",
"216 56 CURVE SMOOTH"
);
},
{
closed = 1;
nodes = (
"239 522 LINE",
"331 605 LINE",
"388 522 LINE",
"455 522 LINE",
"369 640 LINE",
"303 640 LINE",
"167 522 LINE"
);
},
{
closed = 1;
nodes = (
"439 642 OFFCURVE",
"469 653 OFFCURVE",
"483 669 CURVE",
"496 726 LINE",
"474 703 OFFCURVE",
"450 693 OFFCURVE",
"419 693 CURVE SMOOTH",
"374 693 OFFCURVE",
"344 728 OFFCURVE",
"293 728 CURVE SMOOTH",
"265 728 OFFCURVE",
"230 717 OFFCURVE",
"211 701 CURVE",
"199 645 LINE",
"224 669 OFFCURVE",
"253 677 OFFCURVE",
"282 677 CURVE SMOOTH",
"322 677 OFFCURVE",
"360 642 OFFCURVE",
"408 642 CURVE SMOOTH"
);
}
);
width = 541;
}
);
leftKerningGroup = a;
note = acircumflextilde;
rightKerningGroup = a;
unicode = 1EAB;
},
{
glyphname = adieresis;
lastChange = "2015-10-24 19:57:30 +0000";
layers = (
{
layerId = "1336773A-60E9-4881-855D-D55F9632DBDF";
name = "Light Italic";
paths = (
{
closed = 1;
nodes = (
"252 -10 OFFCURVE",
"306 9 OFFCURVE",
"359 50 CURVE",
"355 0 LINE",
"425 0 LINE",
"525 474 LINE",
"443 474 LINE",
"436 439 LINE",
"397 470 OFFCURVE",
"356 484 OFFCURVE",
"295 484 CURVE SMOOTH",
"167 484 OFFCURVE",
"52 394 OFFCURVE",
"17 223 CURVE SMOOTH",
"-17 59 OFFCURVE",
"48 -10 OFFCURVE",
"181 -10 CURVE SMOOTH"
);
},
{
closed = 1;
nodes = (
"100 56 OFFCURVE",
"73 99 OFFCURVE",
"99 223 CURVE SMOOTH",
"126 352 OFFCURVE",
"192 418 OFFCURVE",
"303 418 CURVE SMOOTH",
"360 418 OFFCURVE",
"395 400 OFFCURVE",
"421 371 CURVE",
"367 113 LINE",
"322 74 OFFCURVE",
"271 56 OFFCURVE",
"216 56 CURVE SMOOTH"
);
},
{
closed = 1;
nodes = (
"273 545 LINE",
"289 620 LINE",
"212 620 LINE",
"196 545 LINE"
);
},
{
closed = 1;
nodes = (
"449 545 LINE",
"465 620 LINE",
"387 620 LINE",
"371 545 LINE"
);
}
);
width = 541;
}
);
leftKerningGroup = a;
note = adieresis;
rightKerningGroup = a;
unicode = 00E4;
},
{
glyphname = adotbelow;
lastChange = "2015-10-24 19:57:31 +0000";
layers = (
{
layerId = "1336773A-60E9-4881-855D-D55F9632DBDF";
name = "Light Italic";
paths = (
{
closed = 1;
nodes = (
"252 -10 OFFCURVE",
"306 9 OFFCURVE",
"359 50 CURVE",
"355 0 LINE",
"425 0 LINE",
"525 474 LINE",
"443 474 LINE",
"436 439 LINE",
"397 470 OFFCURVE",
"356 484 OFFCURVE",
"295 484 CURVE SMOOTH",
"167 484 OFFCURVE",
"52 394 OFFCURVE",
"17 223 CURVE SMOOTH",
"-17 59 OFFCURVE",
"48 -10 OFFCURVE",
"181 -10 CURVE SMOOTH"
);
},
{
closed = 1;
nodes = (
"205 -164 LINE",
"221 -87 LINE",
"141 -87 LINE",
"125 -164 LINE"
);
},
{
closed = 1;
nodes = (
"100 56 OFFCURVE",
"73 99 OFFCURVE",
"99 223 CURVE SMOOTH",
"126 352 OFFCURVE",
"192 418 OFFCURVE",
"303 418 CURVE SMOOTH",
"360 418 OFFCURVE",
"395 400 OFFCURVE",
"421 371 CURVE",
"367 113 LINE",
"322 74 OFFCURVE",
"271 56 OFFCURVE",
"216 56 CURVE SMOOTH"
);
}
);
width = 541;
}
);
leftKerningGroup = a;
note = adotbelow;
rightKerningGroup = a;
unicode = 1EA1;
},
{
glyphname = agrave;
lastChange = "2015-10-24 19:57:30 +0000";
layers = (
{
layerId = "1336773A-60E9-4881-855D-D55F9632DBDF";
name = "Light Italic";
paths = (
{
closed = 1;
nodes = (
"252 -10 OFFCURVE",
"306 9 OFFCURVE",
"359 50 CURVE",
"355 0 LINE",
"425 0 LINE",
"525 474 LINE",
"443 474 LINE",
"436 439 LINE",
"397 470 OFFCURVE",
"356 484 OFFCURVE",
"295 484 CURVE SMOOTH",
"167 484 OFFCURVE",
"52 394 OFFCURVE",
"17 223 CURVE SMOOTH",
"-17 59 OFFCURVE",
"48 -10 OFFCURVE",
"181 -10 CURVE SMOOTH"
);
},
{
closed = 1;
nodes = (
"100 56 OFFCURVE",
"73 99 OFFCURVE",
"99 223 CURVE SMOOTH",
"126 352 OFFCURVE",
"192 418 OFFCURVE",
"303 418 CURVE SMOOTH",
"360 418 OFFCURVE",
"395 400 OFFCURVE",
"421 371 CURVE",
"367 113 LINE",
"322 74 OFFCURVE",
"271 56 OFFCURVE",
"216 56 CURVE SMOOTH"
);
},
{
closed = 1;
nodes = (
"358 522 LINE",
"323 690 LINE",
"249 690 LINE",
"292 522 LINE"
);
}
);
width = 541;
}
);
leftKerningGroup = a;
note = agrave;
rightKerningGroup = a;
unicode = 00E0;
},
{
glyphname = ahookabove;
lastChange = "2015-10-24 19:57:30 +0000";
layers = (
{
layerId = "1336773A-60E9-4881-855D-D55F9632DBDF";
name = "Light Italic";
paths = (
{
closed = 1;
nodes = (
"252 -10 OFFCURVE",
"306 9 OFFCURVE",
"359 50 CURVE",
"355 0 LINE",
"425 0 LINE",
"525 474 LINE",
"443 474 LINE",
"436 439 LINE",
"397 470 OFFCURVE",
"356 484 OFFCURVE",
"295 484 CURVE SMOOTH",
"167 484 OFFCURVE",
"52 394 OFFCURVE",
"17 223 CURVE SMOOTH",
"-17 59 OFFCURVE",
"48 -10 OFFCURVE",
"181 -10 CURVE SMOOTH"
);
},
{
closed = 1;
nodes = (
"100 56 OFFCURVE",
"73 99 OFFCURVE",
"99 223 CURVE SMOOTH",
"126 352 OFFCURVE",
"192 418 OFFCURVE",
"303 418 CURVE SMOOTH",
"360 418 OFFCURVE",
"395 400 OFFCURVE",
"421 371 CURVE",
"367 113 LINE",
"322 74 OFFCURVE",
"271 56 OFFCURVE",
"216 56 CURVE SMOOTH"
);
},
{
closed = 1;
nodes = (
"337 522 LINE",
"347 570 LINE",
"416 579 OFFCURVE",
"444 609 OFFCURVE",
"456 663 CURVE SMOOTH",
"468 720 OFFCURVE",
"426 754 OFFCURVE",
"354 754 CURVE SMOOTH",
"325 754 OFFCURVE",
"288 749 OFFCURVE",
"266 741 CURVE",
"256 690 LINE",
"274 697 OFFCURVE",
"303 702 OFFCURVE",
"324 702 CURVE SMOOTH",
"383 702 OFFCURVE",
"400 690 OFFCURVE",
"393 657 CURVE SMOOTH",
"385 622 OFFCURVE",
"367 609 OFFCURVE",
"289 605 CURVE",
"271 522 LINE"
);
}
);
width = 541;
}
);
leftKerningGroup = a;
note = ahookabove;
rightKerningGroup = a;
unicode = 1EA3;
},
{
glyphname = "alpha-latin";
lastChange = "2015-10-24 19:57:31 +0000";
layers = (
{
layerId = "1336773A-60E9-4881-855D-D55F9632DBDF";
name = "Light Italic";
paths = (
{
closed = 1;
nodes = (
"252 -10 OFFCURVE",
"306 9 OFFCURVE",
"359 50 CURVE",
"355 0 LINE",
"425 0 LINE",
"525 474 LINE",
"443 474 LINE",
"436 439 LINE",
"397 470 OFFCURVE",
"356 484 OFFCURVE",
"295 484 CURVE SMOOTH",
"167 484 OFFCURVE",
"52 394 OFFCURVE",
"17 223 CURVE SMOOTH",
"-17 59 OFFCURVE",
"48 -10 OFFCURVE",
"181 -10 CURVE SMOOTH"
);
},
{
closed = 1;
nodes = (
"100 56 OFFCURVE",
"73 99 OFFCURVE",
"99 223 CURVE SMOOTH",
"126 352 OFFCURVE",
"192 418 OFFCURVE",
"303 418 CURVE SMOOTH",
"360 418 OFFCURVE",
"395 400 OFFCURVE",
"421 371 CURVE",
"367 113 LINE",
"322 74 OFFCURVE",
"271 56 OFFCURVE",
"216 56 CURVE SMOOTH"
);
}
);
width = 575;
}
);
leftKerningGroup = a;
note = ascript;
rightKerningGroup = a;
unicode = 0251;
},
{
glyphname = amacron;
lastChange = "2015-10-24 19:57:31 +0000";
layers = (
{
layerId = "1336773A-60E9-4881-855D-D55F9632DBDF";
name = "Light Italic";
paths = (
{
closed = 1;
nodes = (
"252 -10 OFFCURVE",
"306 9 OFFCURVE",
"359 50 CURVE",
"355 0 LINE",
"425 0 LINE",
"525 474 LINE",
"443 474 LINE",
"436 439 LINE",
"397 470 OFFCURVE",
"356 484 OFFCURVE",
"295 484 CURVE SMOOTH",
"167 484 OFFCURVE",
"52 394 OFFCURVE",
"17 223 CURVE SMOOTH",
"-17 59 OFFCURVE",
"48 -10 OFFCURVE",
"181 -10 CURVE SMOOTH"
);
},
{
closed = 1;
nodes = (
"100 56 OFFCURVE",
"73 99 OFFCURVE",
"99 223 CURVE SMOOTH",
"126 352 OFFCURVE",
"192 418 OFFCURVE",
"303 418 CURVE SMOOTH",
"360 418 OFFCURVE",
"395 400 OFFCURVE",
"421 371 CURVE",
"367 113 LINE",
"322 74 OFFCURVE",
"271 56 OFFCURVE",
"216 56 CURVE SMOOTH"
);
},
{
closed = 1;
nodes = (
"456 546 LINE",
"468 605 LINE",
"181 605 LINE",
"169 546 LINE"
);
}
);
width = 541;
}
);
leftKerningGroup = a;
note = amacron;
rightKerningGroup = a;
unicode = 0101;
},
{
glyphname = aogonek;
lastChange = "2015-10-24 19:57:30 +0000";
layers = (
{
layerId = "1336773A-60E9-4881-855D-D55F9632DBDF";
name = "Light Italic";
paths = (
{
closed = 1;
nodes = (
"363 -220 OFFCURVE",
"391 -216 OFFCURVE",
"408 -208 CURVE",
"420 -152 LINE",
"407 -159 OFFCURVE",
"385 -163 OFFCURVE",
"369 -163 CURVE SMOOTH",
"336 -163 OFFCURVE",
"321 -154 OFFCURVE",
"328 -120 CURVE SMOOTH",
"337 -77 OFFCURVE",
"371 -35 OFFCURVE",
"425 0 CURVE",
"525 474 LINE",
"443 474 LINE",
"436 439 LINE",
"397 470 OFFCURVE",
"356 484 OFFCURVE",
"295 484 CURVE SMOOTH",
"167 484 OFFCURVE",
"52 394 OFFCURVE",
"17 223 CURVE SMOOTH",
"-17 59 OFFCURVE",
"48 -10 OFFCURVE",
"181 -10 CURVE SMOOTH",
"252 -10 OFFCURVE",
"306 9 OFFCURVE",
"359 50 CURVE",
"355 0 LINE",
"311 -30 OFFCURVE",
"269 -80 OFFCURVE",
"258 -132 CURVE SMOOTH",
"245 -195 OFFCURVE",
"285 -220 OFFCURVE",
"339 -220 CURVE SMOOTH"
);
},
{
closed = 1;
nodes = (
"100 56 OFFCURVE",
"73 99 OFFCURVE",
"99 223 CURVE SMOOTH",
"126 352 OFFCURVE",
"192 418 OFFCURVE",
"303 418 CURVE SMOOTH",
"360 418 OFFCURVE",
"395 400 OFFCURVE",
"421 371 CURVE",
"367 113 LINE",
"322 74 OFFCURVE",
"271 56 OFFCURVE",
"216 56 CURVE SMOOTH"
);
}
);
width = 559;
}
);
leftKerningGroup = a;
note = aogonek;
rightKerningGroup = a;
unicode = 0105;
},
{
glyphname = aring;
lastChange = "2015-10-24 19:57:30 +0000";
layers = (
{
layerId = "1336773A-60E9-4881-855D-D55F9632DBDF";
name = "Light Italic";
paths = (
{
closed = 1;
nodes = (
"252 -10 OFFCURVE",
"306 9 OFFCURVE",
"359 50 CURVE",
"355 0 LINE",
"425 0 LINE",
"525 474 LINE",
"443 474 LINE",
"436 439 LINE",
"397 470 OFFCURVE",
"356 484 OFFCURVE",
"295 484 CURVE SMOOTH",
"167 484 OFFCURVE",
"52 394 OFFCURVE",
"17 223 CURVE SMOOTH",
"-17 59 OFFCURVE",
"48 -10 OFFCURVE",
"181 -10 CURVE SMOOTH"
);
},
{
closed = 1;
nodes = (
"100 56 OFFCURVE",
"73 99 OFFCURVE",
"99 223 CURVE SMOOTH",
"126 352 OFFCURVE",
"192 418 OFFCURVE",
"303 418 CURVE SMOOTH",
"360 418 OFFCURVE",
"395 400 OFFCURVE",
"421 371 CURVE",
"367 113 LINE",
"322 74 OFFCURVE",
"271 56 OFFCURVE",
"216 56 CURVE SMOOTH"
);
},
{
closed = 1;
nodes = (
"385 522 OFFCURVE",
"434 569 OFFCURVE",
"447 629 CURVE SMOOTH",
"460 689 OFFCURVE",
"425 737 OFFCURVE",
"359 737 CURVE SMOOTH",
"288 737 OFFCURVE",
"240 689 OFFCURVE",
"227 629 CURVE SMOOTH",
"214 569 OFFCURVE",
"249 522 OFFCURVE",
"313 522 CURVE SMOOTH"
);
},
{
closed = 1;
nodes = (
"280 568 OFFCURVE",
"268 595 OFFCURVE",
"275 629 CURVE SMOOTH",
"282 663 OFFCURVE",
"312 690 OFFCURVE",
"349 690 CURVE SMOOTH",
"392 690 OFFCURVE",
"405 663 OFFCURVE",
"398 629 CURVE SMOOTH",
"391 595 OFFCURVE",
"362 568 OFFCURVE",
"323 568 CURVE SMOOTH"
);
}
);
width = 541;
}
);
leftKerningGroup = a;
note = aring;
rightKerningGroup = a;
unicode = 00E5;
},
{
glyphname = aringacute;
lastChange = "2015-10-24 19:57:30 +0000";
layers = (
{
layerId = "1336773A-60E9-4881-855D-D55F9632DBDF";
name = "Light Italic";
paths = (
{
closed = 1;
nodes = (
"252 -10 OFFCURVE",
"306 9 OFFCURVE",
"359 50 CURVE",
"355 0 LINE",
"425 0 LINE",
"525 474 LINE",
"443 474 LINE",
"436 439 LINE",
"397 470 OFFCURVE",
"356 484 OFFCURVE",
"295 484 CURVE SMOOTH",
"167 484 OFFCURVE",
"52 394 OFFCURVE",
"17 223 CURVE SMOOTH",
"-17 59 OFFCURVE",
"48 -10 OFFCURVE",
"181 -10 CURVE SMOOTH"
);
},
{
closed = 1;
nodes = (
"100 56 OFFCURVE",
"73 99 OFFCURVE",
"99 223 CURVE SMOOTH",
"126 352 OFFCURVE",
"192 418 OFFCURVE",
"303 418 CURVE SMOOTH",
"360 418 OFFCURVE",
"395 400 OFFCURVE",
"421 371 CURVE",
"367 113 LINE",
"322 74 OFFCURVE",
"271 56 OFFCURVE",
"216 56 CURVE SMOOTH"
);
},
{
closed = 1;
nodes = (
"376 519 OFFCURVE",
"425 566 OFFCURVE",
"438 626 CURVE SMOOTH",
"451 686 OFFCURVE",
"416 734 OFFCURVE",
"350 734 CURVE SMOOTH",
"279 734 OFFCURVE",
"231 686 OFFCURVE",
"218 626 CURVE SMOOTH",
"205 566 OFFCURVE",
"240 519 OFFCURVE",
"304 519 CURVE SMOOTH"
);
},
{
closed = 1;
nodes = (
"271 565 OFFCURVE",
"259 592 OFFCURVE",
"266 626 CURVE SMOOTH",
"273 660 OFFCURVE",
"303 687 OFFCURVE",
"340 687 CURVE SMOOTH",
"383 687 OFFCURVE",
"396 660 OFFCURVE",
"389 626 CURVE SMOOTH",
"382 592 OFFCURVE",
"353 565 OFFCURVE",
"314 565 CURVE SMOOTH"
);
},
{
closed = 1;
nodes = (
"413 783 LINE",
"528 917 LINE",
"454 917 LINE",
"347 783 LINE"
);
}
);
width = 541;
}
);
leftKerningGroup = a;
note = aringacute;
rightKerningGroup = a;
unicode = 01FB;
},
{
glyphname = atilde;
lastChange = "2015-10-24 19:57:30 +0000";
layers = (
{
layerId = "1336773A-60E9-4881-855D-D55F9632DBDF";
name = "Light Italic";
paths = (
{
closed = 1;
nodes = (
"252 -10 OFFCURVE",
"306 9 OFFCURVE",
"359 50 CURVE",
"355 0 LINE",
"425 0 LINE",
"525 474 LINE",
"443 474 LINE",
"436 439 LINE",
"397 470 OFFCURVE",
"356 484 OFFCURVE",
"295 484 CURVE SMOOTH",
"167 484 OFFCURVE",
"52 394 OFFCURVE",
"17 223 CURVE SMOOTH",
"-17 59 OFFCURVE",
"48 -10 OFFCURVE",
"181 -10 CURVE SMOOTH"
);
},
{
closed = 1;
nodes = (
"100 56 OFFCURVE",
"73 99 OFFCURVE",
"99 223 CURVE SMOOTH",
"126 352 OFFCURVE",
"192 418 OFFCURVE",
"303 418 CURVE SMOOTH",
"360 418 OFFCURVE",
"395 400 OFFCURVE",
"421 371 CURVE",
"367 113 LINE",
"322 74 OFFCURVE",
"271 56 OFFCURVE",
"216 56 CURVE SMOOTH"
);
},
{
closed = 1;
nodes = (
"424 542 OFFCURVE",
"457 554 OFFCURVE",
"474 572 CURVE",
"487 636 LINE",
"464 611 OFFCURVE",
"437 600 OFFCURVE",
"403 600 CURVE SMOOTH",
"354 600 OFFCURVE",
"322 638 OFFCURVE",
"267 638 CURVE SMOOTH",
"236 638 OFFCURVE",
"197 626 OFFCURVE",
"177 608 CURVE",
"164 545 LINE",
"191 571 OFFCURVE",
"222 580 OFFCURVE",
"254 580 CURVE SMOOTH",
"297 580 OFFCURVE",
"338 542 OFFCURVE",
"390 542 CURVE SMOOTH"
);
}
);
width = 541;
}
);
leftKerningGroup = a;
note = atilde;
rightKerningGroup = a;
unicode = 00E3;
},
{
glyphname = ae;
lastChange = "2015-10-24 19:57:31 +0000";
layers = (
{
layerId = "1336773A-60E9-4881-855D-D55F9632DBDF";
name = "Light Italic";
paths = (
{
closed = 1;
nodes = (
"262 -10 OFFCURVE",
"336 32 OFFCURVE",
"385 80 CURVE",
"415 20 OFFCURVE",
"466 -10 OFFCURVE",
"568 -10 CURVE SMOOTH",
"624 -10 OFFCURVE",
"679 -1 OFFCURVE",
"724 17 CURVE",
"738 81 LINE",
"695 65 OFFCURVE",
"644 56 OFFCURVE",
"598 56 CURVE SMOOTH",
"462 56 OFFCURVE",
"427 91 OFFCURVE",
"442 199 CURVE",
"793 199 LINE",
"812 288 LINE SMOOTH",
"836 400 OFFCURVE",
"779 484 OFFCURVE",
"647 484 CURVE SMOOTH",
"562 484 OFFCURVE",
"498 457 OFFCURVE",
"454 411 CURVE",
"433 459 OFFCURVE",
"382 484 OFFCURVE",
"296 484 CURVE SMOOTH",
"229 484 OFFCURVE",
"167 473 OFFCURVE",
"122 457 CURVE",
"107 389 LINE",
"157 405 OFFCURVE",
"214 415 OFFCURVE",
"271 415 CURVE SMOOTH",
"382 415 OFFCURVE",
"398 383 OFFCURVE",
"383 310 CURVE SMOOTH",
"377 281 LINE",
"212 281 LINE SMOOTH",
"83 281 OFFCURVE",
"16 220 OFFCURVE",
"-2 133 CURVE SMOOTH",
"-23 37 OFFCURVE",
"46 -10 OFFCURVE",
"134 -10 CURVE SMOOTH"
);
},
{
closed = 1;
nodes = (
"98 57 OFFCURVE",
"66 75 OFFCURVE",
"79 133 CURVE SMOOTH",
"91 190 OFFCURVE",
"126 218 OFFCURVE",
"201 218 CURVE SMOOTH",
"364 218 LINE",
"344 126 LINE",
"298 83 OFFCURVE",
"247 57 OFFCURVE",
"170 57 CURVE SMOOTH"
);
},
{
closed = 1;
nodes = (
"477 365 OFFCURVE",
"522 418 OFFCURVE",
"635 418 CURVE SMOOTH",
"735 418 OFFCURVE",
"759 376 OFFCURVE",
"741 297 CURVE SMOOTH",
"732 258 LINE",
"454 258 LINE"
);
}
);
width = 881;
}
);
leftKerningGroup = a;
note = ae;
rightKerningGroup = e;
unicode = 00E6;
},
{
glyphname = aeacute;
lastChange = "2015-10-24 19:57:30 +0000";
layers = (
{
layerId = "1336773A-60E9-4881-855D-D55F9632DBDF";
name = "Light Italic";
paths = (
{
closed = 1;
nodes = (
"262 -10 OFFCURVE",
"336 32 OFFCURVE",
"385 80 CURVE",
"415 20 OFFCURVE",
"466 -10 OFFCURVE",
"568 -10 CURVE SMOOTH",
"624 -10 OFFCURVE",
"679 -1 OFFCURVE",
"724 17 CURVE",
"738 81 LINE",
"695 65 OFFCURVE",
"644 56 OFFCURVE",
"598 56 CURVE SMOOTH",
"462 56 OFFCURVE",
"427 91 OFFCURVE",
"442 199 CURVE",
"793 199 LINE",
"812 288 LINE SMOOTH",
"836 400 OFFCURVE",
"779 484 OFFCURVE",
"647 484 CURVE SMOOTH",
"562 484 OFFCURVE",
"498 457 OFFCURVE",
"454 411 CURVE",
"433 459 OFFCURVE",
"382 484 OFFCURVE",
"296 484 CURVE SMOOTH",
"229 484 OFFCURVE",
"167 473 OFFCURVE",
"122 457 CURVE",
"107 389 LINE",
"157 405 OFFCURVE",
"214 415 OFFCURVE",
"271 415 CURVE SMOOTH",
"382 415 OFFCURVE",
"398 383 OFFCURVE",
"383 310 CURVE SMOOTH",
"377 281 LINE",
"212 281 LINE SMOOTH",
"83 281 OFFCURVE",
"16 220 OFFCURVE",
"-2 133 CURVE SMOOTH",
"-23 37 OFFCURVE",
"46 -10 OFFCURVE",
"134 -10 CURVE SMOOTH"
);
},
{
closed = 1;
nodes = (
"98 57 OFFCURVE",
"66 75 OFFCURVE",
"79 133 CURVE SMOOTH",
"91 190 OFFCURVE",
"126 218 OFFCURVE",
"201 218 CURVE SMOOTH",
"364 218 LINE",
"344 126 LINE",
"298 83 OFFCURVE",
"247 57 OFFCURVE",
"170 57 CURVE SMOOTH"
);
},
{
closed = 1;
nodes = (
"477 365 OFFCURVE",
"522 418 OFFCURVE",
"635 418 CURVE SMOOTH",
"735 418 OFFCURVE",
"759 376 OFFCURVE",
"741 297 CURVE SMOOTH",
"732 258 LINE",
"454 258 LINE"
);
},
{
closed = 1;
nodes = (
"499 522 LINE",
"614 690 LINE",
"540 690 LINE",
"433 522 LINE"
);
}
);
width = 881;
}
);
leftKerningGroup = a;
note = aeacute;
rightKerningGroup = e;
unicode = 01FD;
},
{
glyphname = b;
lastChange = "2015-10-24 19:57:30 +0000";
layers = (
{
layerId = "1336773A-60E9-4881-855D-D55F9632DBDF";
name = "Light Italic";
paths = (
{
closed = 1;
nodes = (
"374 -10 OFFCURVE",
"459 69 OFFCURVE",
"496 241 CURVE SMOOTH",
"532 412 OFFCURVE",
"455 484 OFFCURVE",
"332 484 CURVE SMOOTH",
"271 484 OFFCURVE",
"216 470 OFFCURVE",
"165 439 CURVE",
"215 674 LINE",
"133 674 LINE",
"-10 0 LINE",
"60 0 LINE",
"76 50 LINE",
"111 9 OFFCURVE",
"157 -10 OFFCURVE",
"228 -10 CURVE SMOOTH"
);
},
{
closed = 1;
nodes = (
"166 56 OFFCURVE",
"123 74 OFFCURVE",
"96 113 CURVE",
"150 371 LINE",
"190 400 OFFCURVE",
"239 418 OFFCURVE",
"296 418 CURVE SMOOTH",
"409 418 OFFCURVE",
"441 370 OFFCURVE",
"414 241 CURVE SMOOTH",
"387 117 OFFCURVE",
"328 56 OFFCURVE",
"221 56 CURVE SMOOTH"
);
}
);
width = 575;
}
);
note = b;
unicode = 0062;
},
{
glyphname = c;
lastChange = "2015-10-24 19:57:31 +0000";
layers = (
{
layerId = "1336773A-60E9-4881-855D-D55F9632DBDF";
name = "Light Italic";
paths = (
{
closed = 1;
nodes = (
"269 -10 OFFCURVE",
"318 -1 OFFCURVE",
"363 16 CURVE",
"377 82 LINE",
"335 65 OFFCURVE",
"288 56 OFFCURVE",
"244 56 CURVE SMOOTH",
"106 56 OFFCURVE",
"75 111 OFFCURVE",
"102 237 CURVE SMOOTH",
"130 367 OFFCURVE",
"206 418 OFFCURVE",
"324 418 CURVE SMOOTH",
"372 418 OFFCURVE",
"410 409 OFFCURVE",
"442 392 CURVE",
"456 457 LINE",
"420 475 OFFCURVE",
"386 484 OFFCURVE",
"323 484 CURVE SMOOTH",
"159 484 OFFCURVE",
"55 403 OFFCURVE",
"20 237 CURVE SMOOTH",
"-14 79 OFFCURVE",
"56 -10 OFFCURVE",
"211 -10 CURVE SMOOTH"
);
}
);
width = 490;
}
);
leftKerningGroup = c;
note = c;
rightKerningGroup = c;
unicode = 0063;
},
{
glyphname = cacute;
lastChange = "2015-10-24 19:57:31 +0000";
layers = (
{
layerId = "1336773A-60E9-4881-855D-D55F9632DBDF";
name = "Light Italic";
paths = (
{
closed = 1;
nodes = (
"269 -10 OFFCURVE",
"318 -1 OFFCURVE",
"363 16 CURVE",
"377 82 LINE",
"335 65 OFFCURVE",
"288 56 OFFCURVE",
"244 56 CURVE SMOOTH",
"106 56 OFFCURVE",
"75 111 OFFCURVE",
"102 237 CURVE SMOOTH",
"130 367 OFFCURVE",
"206 418 OFFCURVE",
"324 418 CURVE SMOOTH",
"372 418 OFFCURVE",
"410 409 OFFCURVE",
"442 392 CURVE",
"456 457 LINE",
"420 475 OFFCURVE",
"386 484 OFFCURVE",
"323 484 CURVE SMOOTH",
"159 484 OFFCURVE",
"55 403 OFFCURVE",
"20 237 CURVE SMOOTH",
"-14 79 OFFCURVE",
"56 -10 OFFCURVE",
"211 -10 CURVE SMOOTH"
);
},
{
closed = 1;
nodes = (
"327 522 LINE",
"442 690 LINE",
"368 690 LINE",
"261 522 LINE"
);
}
);
width = 490;
}
);
leftKerningGroup = c;
note = cacute;
rightKerningGroup = c;
unicode = 0107;
},
